<?xml version="1.0" encoding="iso-8859-1"?>
<!-- Generator: Adobe Illustrator 16.0.0, SVG Export Plug-In . SVG Version: 6.00 Build 0)  -->
<!DOCTYPE svg PUBLIC "-//W3C//DTD SVG 1.1//EN" "http://www.w3.org/Graphics/SVG/1.1/DTD/svg11.dtd">
<svg version="1.1" id="&#x56FE;&#x5C42;_1" xmlns="http://www.w3.org/2000/svg" xmlns:xlink="http://www.w3.org/1999/xlink" x="0px"
	 y="0px" width="43px" height="55px" viewBox="0 0 43 55" style="enable-background:new 0 0 43 55;" xml:space="preserve">
<g>
	<g>
		<path style="fill:#FFFFFF;" d="M42.022,8.839C28.341,8.839,21.5,0.981,21.5,0.981S14.659,8.839,0.977,8.839v17.79
			c0,7.356,3.418,14.291,9.24,18.75L21.5,54.018l11.282-8.639c5.823-4.459,9.24-11.394,9.24-18.75V8.839z"/>
		<path style="fill:#0A94E3;" d="M21.5,55c-0.208,0-0.417-0.066-0.592-0.2L9.625,46.16C3.598,41.545,0,34.243,0,26.629V8.839
			c0-0.543,0.438-0.982,0.977-0.982c13.087,0,19.722-7.447,19.788-7.522C20.95,0.122,21.217,0,21.499,0C21.5,0,21.5,0,21.5,0
			c0.281,0,0.548,0.122,0.734,0.333c0.066,0.075,6.753,7.523,19.788,7.523c0.54,0,0.978,0.439,0.978,0.982v17.79
			c0,7.614-3.598,14.916-9.625,19.53L22.092,54.8C21.917,54.934,21.708,55,21.5,55z M1.955,9.808v16.821
			c0,7.005,3.31,13.722,8.855,17.969l10.69,8.187l10.689-8.188c5.545-4.246,8.856-10.963,8.856-17.968V9.808
			C30.056,9.516,23.584,4.355,21.5,2.379C19.416,4.355,12.944,9.516,1.955,9.808z"/>
	</g>
	<g>
		<path style="fill:#0A94E3;" d="M21.5,50.061c-0.54,0-0.977-0.439-0.977-0.982V6.203c0-0.542,0.438-0.982,0.977-0.982
			c0.539,0,0.977,0.44,0.977,0.982v42.875C22.477,49.621,22.039,50.061,21.5,50.061z"/>
	</g>
	<g>
		<path style="fill:#C2E4F8;" d="M4.886,26.518H21.5V6.203c-3.104,2.354-8.647,5.547-16.614,6.366V26.518z"/>
		<path style="fill:#0A94E3;" d="M21.5,27.5H4.886c-0.54,0-0.977-0.439-0.977-0.982V12.569c0-0.503,0.379-0.925,0.878-0.977
			c7.635-0.785,12.982-3.79,16.124-6.173c0.297-0.224,0.693-0.26,1.024-0.095c0.332,0.166,0.541,0.506,0.541,0.879v20.314
			C22.477,27.06,22.039,27.5,21.5,27.5z M5.864,25.535h14.659V8.098c-3.291,2.185-8.165,4.526-14.659,5.347V25.535z"/>
	</g>
	<g>
		<path style="fill:#0A94E3;" d="M4.886,25.535c-0.25,0-0.5-0.096-0.691-0.288c-0.382-0.384-0.382-1.005,0-1.389L20.809,7.162
			c0.382-0.384,1-0.384,1.382,0c0.381,0.384,0.381,1.005,0,1.389L5.577,25.248C5.386,25.439,5.136,25.535,4.886,25.535z"/>
	</g>
	<g>
		<path style="fill:#0A94E3;" d="M4.886,19.643c-0.25,0-0.5-0.096-0.691-0.288c-0.382-0.384-0.382-1.005,0-1.389l7.736-7.774
			c0.382-0.384,1-0.384,1.382,0c0.382,0.383,0.382,1.005,0,1.389l-7.736,7.774C5.386,19.546,5.136,19.643,4.886,19.643z"/>
	</g>
	<g>
		<path style="fill:#0A94E3;" d="M8.795,27.5c-0.25,0-0.5-0.096-0.691-0.288c-0.382-0.384-0.382-1.005,0-1.389l12.705-12.768
			c0.382-0.384,1-0.384,1.382,0c0.381,0.384,0.381,1.005,0,1.389L9.486,27.212C9.295,27.404,9.045,27.5,8.795,27.5z"/>
	</g>
	<g>
		<path style="fill:#C2E4F8;" d="M38.113,26.629v-0.111H21.5v22.561l8.914-6.824C35.235,38.562,38.113,32.721,38.113,26.629z"/>
		<path style="fill:#0A94E3;" d="M21.5,50.061c-0.148,0-0.296-0.033-0.434-0.103c-0.333-0.166-0.543-0.507-0.543-0.88V26.518
			c0-0.542,0.438-0.982,0.977-0.982h16.613c0.541,0,0.978,0.44,0.978,0.982v0.111c0,6.396-3.022,12.528-8.084,16.406l-8.915,6.825
			C21.918,49.993,21.71,50.061,21.5,50.061z M22.477,27.5v19.596l7.345-5.623c4.35-3.332,7.035-8.504,7.294-13.973H22.477z"/>
	</g>
	<g>
		<path style="fill:#0A94E3;" d="M14.659,27.5c-0.25,0-0.5-0.096-0.691-0.288c-0.382-0.384-0.382-1.005,0-1.389l6.841-6.875
			c0.382-0.384,1-0.384,1.382,0c0.381,0.383,0.381,1.005,0,1.389l-6.841,6.875C15.159,27.404,14.909,27.5,14.659,27.5z"/>
	</g>
	<g>
		<path style="fill:#0A94E3;" d="M32.44,41.441c-0.25,0-0.5-0.096-0.69-0.287L20.809,30.159c-0.382-0.384-0.382-1.007,0-1.39
			s1-0.383,1.382,0l10.94,10.995c0.382,0.384,0.382,1.006,0,1.39C32.941,41.346,32.691,41.441,32.44,41.441z"/>
	</g>
	<g>
		<path style="fill:#0A94E3;" d="M29.254,44.133c-0.25,0-0.5-0.097-0.69-0.289l-7.672-7.71c-0.382-0.384-0.382-1.005,0-1.389
			s1-0.384,1.382,0l7.672,7.71c0.382,0.384,0.382,1.005,0,1.389C29.754,44.036,29.504,44.133,29.254,44.133z"/>
	</g>
	<g>
		<path style="fill:#0A94E3;" d="M25.923,46.677c-0.25,0-0.5-0.096-0.691-0.288l-4.34-4.362c-0.382-0.384-0.382-1.005,0-1.389
			s1-0.384,1.382,0L26.613,45c0.382,0.384,0.382,1.005,0,1.389C26.423,46.581,26.173,46.677,25.923,46.677z"/>
	</g>
	<g>
		<path style="fill:#0A94E3;" d="M35.04,38.16c-0.25,0-0.501-0.096-0.691-0.287L23.741,27.212c-0.382-0.384-0.382-1.005,0-1.389
			s1-0.384,1.382,0L35.73,36.484c0.382,0.384,0.382,1.005,0,1.389C35.54,38.064,35.29,38.16,35.04,38.16z"/>
	</g>
	<g>
		<path style="fill:#0A94E3;" d="M36.957,34.194c-0.25,0-0.5-0.096-0.691-0.287l-6.661-6.695c-0.382-0.384-0.382-1.005,0-1.389
			s1-0.384,1.382,0l6.661,6.695c0.382,0.384,0.382,1.005,0,1.389C37.457,34.099,37.207,34.194,36.957,34.194z"/>
	</g>
	<g>
		<path style="fill:#0A94E3;" d="M38.113,27.5H4.886c-0.54,0-0.977-0.439-0.977-0.982s0.438-0.982,0.977-0.982h33.227
			c0.541,0,0.978,0.44,0.978,0.982S38.654,27.5,38.113,27.5z"/>
	</g>
	<g>
		<path style="fill:#FFFFFF;" d="M4.886,26.518v0.111c0,6.092,2.878,11.933,7.7,15.625l8.914,6.824V26.518H4.886z"/>
		<path style="fill:#0A94E3;" d="M21.5,50.061c-0.21,0-0.418-0.067-0.592-0.2l-8.914-6.824c-5.062-3.879-8.085-10.012-8.085-16.407
			v-0.111c0-0.542,0.438-0.982,0.977-0.982H21.5c0.539,0,0.977,0.44,0.977,0.982v22.561c0,0.373-0.21,0.714-0.543,0.88
			C21.796,50.027,21.648,50.061,21.5,50.061z M5.884,27.5c0.259,5.469,2.944,10.641,7.294,13.974l7.345,5.622V27.5H5.884z"/>
	</g>
	<g>
		<path style="fill:#FFFFFF;" d="M38.113,26.518V12.569C30.147,11.75,24.604,8.557,21.5,6.203v20.314H38.113z"/>
		<path style="fill:#0A94E3;" d="M38.113,27.5H21.5c-0.54,0-0.977-0.439-0.977-0.982V6.203c0-0.373,0.21-0.713,0.542-0.879
			c0.332-0.165,0.729-0.129,1.024,0.095c3.142,2.383,8.489,5.388,16.124,6.173c0.499,0.052,0.878,0.474,0.878,0.977v13.949
			C39.091,27.06,38.654,27.5,38.113,27.5z M22.477,25.535h14.66v-12.09c-6.495-0.821-11.369-3.162-14.66-5.347V25.535z"/>
	</g>
</g>
</svg>
