<?xml version="1.0" encoding="iso-8859-1"?>
<!-- Generator: Adobe Illustrator 16.0.0, SVG Export Plug-In . SVG Version: 6.00 Build 0)  -->
<!DOCTYPE svg PUBLIC "-//W3C//DTD SVG 1.1//EN" "http://www.w3.org/Graphics/SVG/1.1/DTD/svg11.dtd">
<svg version="1.1" id="&#x56FE;&#x5C42;_1" xmlns="http://www.w3.org/2000/svg" xmlns:xlink="http://www.w3.org/1999/xlink" x="0px"
	 y="0px" width="55px" height="52px" viewBox="0 0 55 52" style="enable-background:new 0 0 55 52;" xml:space="preserve">
<g>
	<path style="fill:#FFFFFF;" d="M1.064,8.749V31.75c0,4.233,3.383,7.67,7.554,7.67h3.776v11.499l11.33-11.499h22.657
		c4.172,0,7.554-3.437,7.554-7.67V8.749c0-4.234-3.382-7.668-7.554-7.668H8.618C4.447,1.081,1.064,4.515,1.064,8.749z"/>
	<path style="fill:#0A94E3;" d="M12.395,52c-0.137,0-0.275-0.025-0.407-0.081c-0.397-0.167-0.657-0.563-0.657-1V40.5H8.618
		C3.866,40.5,0,36.574,0,31.75V8.749C0,3.924,3.866,0,8.618,0h37.764C51.134,0,55,3.924,55,8.749V31.75
		c0,4.824-3.866,8.75-8.618,8.75H24.165L13.147,51.685C12.943,51.891,12.671,52,12.395,52z M8.618,2.162
		c-3.578,0-6.488,2.955-6.488,6.587V31.75c0,3.633,2.91,6.589,6.488,6.589h3.776c0.588,0,1.065,0.481,1.065,1.081v8.891l9.512-9.656
		c0.199-0.202,0.47-0.315,0.753-0.315h22.657c3.578,0,6.489-2.956,6.489-6.589V8.749c0-3.632-2.911-6.587-6.489-6.587H8.618z"/>
</g>
<g>
	<path style="fill:#0A94E3;" d="M8.4,15.984h1.529v-0.621c0-1.403,0.295-2.419,0.886-3.047c0.59-0.627,1.447-0.941,2.57-0.941
		c1.182,0,2.164,0.141,2.947,0.421l-0.554,2.305c-0.34-0.118-0.639-0.195-0.897-0.232s-0.528-0.056-0.809-0.056
		c-0.296,0-0.528,0.044-0.698,0.133s-0.295,0.226-0.376,0.41c-0.082,0.185-0.133,0.414-0.155,0.687
		c-0.022,0.273-0.033,0.588-0.033,0.942h2.438v2.438H12.81v8.642h-2.88v-8.642H8.4V15.984z"/>
	<path style="fill:#0A94E3;" d="M22.648,18.688c-0.458-0.162-0.872-0.244-1.241-0.244c-0.518,0-0.95,0.137-1.296,0.41
		c-0.347,0.273-0.58,0.624-0.698,1.053v7.157h-2.88V15.984h2.238l0.333,1.462h0.089c0.251-0.546,0.59-0.967,1.019-1.263
		c0.428-0.296,0.931-0.443,1.507-0.443c0.384,0,0.82,0.081,1.308,0.244L22.648,18.688z"/>
	<path style="fill:#0A94E3;" d="M33.174,26.11c-0.443,0.354-1.045,0.654-1.807,0.897c-0.761,0.244-1.569,0.366-2.426,0.366
		c-1.788,0-3.095-0.521-3.922-1.562c-0.828-1.041-1.241-2.471-1.241-4.288c0-1.949,0.465-3.412,1.396-4.387
		c0.931-0.976,2.238-1.463,3.921-1.463c0.562,0,1.108,0.074,1.641,0.222c0.531,0.147,1.004,0.392,1.418,0.731
		c0.413,0.34,0.746,0.798,0.997,1.373c0.251,0.576,0.376,1.293,0.376,2.149c0,0.311-0.018,0.644-0.055,0.998
		s-0.092,0.724-0.166,1.107h-6.648c0.044,0.931,0.284,1.633,0.72,2.105c0.436,0.473,1.141,0.709,2.116,0.709
		c0.605,0,1.148-0.092,1.629-0.277c0.479-0.185,0.845-0.373,1.097-0.564L33.174,26.11z M29.052,17.979
		c-0.753,0-1.311,0.226-1.673,0.676c-0.362,0.45-0.58,1.053-0.654,1.806h4.122c0.06-0.798-0.063-1.41-0.365-1.839
		C30.178,18.192,29.701,17.979,29.052,17.979z"/>
	<path style="fill:#0A94E3;" d="M44.319,26.11c-0.442,0.354-1.045,0.654-1.806,0.897c-0.762,0.244-1.57,0.366-2.427,0.366
		c-1.788,0-3.095-0.521-3.922-1.562s-1.241-2.471-1.241-4.288c0-1.949,0.466-3.412,1.396-4.387c0.931-0.976,2.238-1.463,3.922-1.463
		c0.562,0,1.107,0.074,1.64,0.222s1.005,0.392,1.419,0.731c0.412,0.34,0.745,0.798,0.996,1.373c0.252,0.576,0.377,1.293,0.377,2.149
		c0,0.311-0.019,0.644-0.055,0.998c-0.037,0.354-0.093,0.724-0.166,1.107h-6.648c0.045,0.931,0.284,1.633,0.721,2.105
		c0.436,0.473,1.141,0.709,2.115,0.709c0.605,0,1.148-0.092,1.629-0.277c0.48-0.185,0.846-0.373,1.098-0.564L44.319,26.11z
		 M40.197,17.979c-0.753,0-1.311,0.226-1.672,0.676c-0.363,0.45-0.58,1.053-0.654,1.806h4.121c0.06-0.798-0.062-1.41-0.365-1.839
		S40.848,17.979,40.197,17.979z"/>
</g>
</svg>
