<?xml version="1.0" encoding="iso-8859-1"?>
<!-- Generator: Adobe Illustrator 16.0.0, SVG Export Plug-In . SVG Version: 6.00 Build 0)  -->
<!DOCTYPE svg PUBLIC "-//W3C//DTD SVG 1.1//EN" "http://www.w3.org/Graphics/SVG/1.1/DTD/svg11.dtd">
<svg version="1.1" id="&#x56FE;&#x5C42;_1" xmlns="http://www.w3.org/2000/svg" xmlns:xlink="http://www.w3.org/1999/xlink" x="0px"
	 y="0px" width="55px" height="53px" viewBox="0 0 55 53" style="enable-background:new 0 0 55 53;" xml:space="preserve">
<g>
	<g>
		<polygon style="fill:#C2E4F8;" points="37.02,10.6 37.02,5.3 43.365,5.3 43.365,16.96 		"/>
		<path style="fill:#0A94E3;" d="M43.365,18.02c-0.274,0-0.545-0.108-0.748-0.311l-6.346-6.36c-0.198-0.199-0.31-0.468-0.31-0.749
			V5.3c0-0.585,0.473-1.06,1.058-1.06h6.346c0.585,0,1.058,0.475,1.058,1.06v11.66c0,0.429-0.257,0.815-0.652,0.979
			C43.639,17.994,43.502,18.02,43.365,18.02z M38.077,10.161l4.23,4.24V6.36h-4.23V10.161z"/>
	</g>
	<g>
		<polygon style="fill:#FFFFFF;" points="47.596,21.2 47.596,51.94 32.788,51.94 32.788,37.1 22.211,37.1 22.211,51.94 7.404,51.94 
			7.404,21.208 1.058,27.56 27.5,1.06 53.942,27.56 		"/>
		<path style="fill:#0A94E3;" d="M47.596,53H32.788c-0.584,0-1.058-0.474-1.058-1.06V38.16h-8.461v13.78
			c0,0.586-0.474,1.06-1.058,1.06H7.404c-0.584,0-1.058-0.474-1.058-1.06V23.765l-4.541,4.546c-0.413,0.412-1.083,0.413-1.496-0.001
			c-0.413-0.414-0.413-1.085,0-1.499l26.442-26.5c0.414-0.414,1.083-0.414,1.496,0l26.442,26.5C54.896,27.018,55,27.289,55,27.56
			c0,0.272-0.104,0.543-0.31,0.75c-0.413,0.414-1.083,0.414-1.496,0l-4.54-4.551V51.94C48.654,52.526,48.181,53,47.596,53z
			 M33.846,50.88h12.692V21.639L27.5,2.559L8.461,21.639V50.88h12.692V37.1c0-0.586,0.474-1.06,1.058-1.06h10.577
			c0.585,0,1.058,0.474,1.058,1.06V50.88z"/>
	</g>
</g>
</svg>
