<?xml version="1.0" encoding="iso-8859-1"?>
<!-- Generator: Adobe Illustrator 16.0.0, SVG Export Plug-In . SVG Version: 6.00 Build 0)  -->
<!DOCTYPE svg PUBLIC "-//W3C//DTD SVG 1.1//EN" "http://www.w3.org/Graphics/SVG/1.1/DTD/svg11.dtd">
<svg version="1.1" id="&#x56FE;&#x5C42;_1" xmlns="http://www.w3.org/2000/svg" xmlns:xlink="http://www.w3.org/1999/xlink" x="0px"
	 y="0px" width="65px" height="47px" viewBox="0 0 65 47" style="enable-background:new 0 0 65 47;" xml:space="preserve">
<g>
	<g>
		<path style="fill:#E3D9FF;" d="M63.144,22.021c-0.026-1.492-0.245-5.458-0.887-8.469c-0.632-2.906-2.921-5.078-5.741-5.398
			c-4.377-0.497-10.995-0.745-19.852-0.745c-22.748,0-25.257-0.266-26.227,10.541c-0.405,4.458-0.402,12.664,0,17.089
			c0.249,2.777,0.524,9.131,6.374,9.797c8.862,1.006,30.833,1.008,39.704,0C63.124,44.086,63.402,36.307,63.144,22.021z
			 M42.361,24.939l-13.564,8.547c-0.951,0.68-2.597,0.059-2.597-1.443v-17.09c0-1.416,1.515-2.147,2.597-1.442
			c13.85,9.021,14.36,8.347,14.36,9.987C43.157,24.156,42.893,24.637,42.361,24.939z"/>
	</g>
	<g>
		<g>
			<path style="fill:#8068C1;" d="M32.486,46.947c-8.971,0-17.941-0.293-23.129-0.883c-7.574-0.861-8.246-8.75-8.533-12.119
				l-0.038-0.443c-0.476-5.234-0.476-14.779,0-20.02C1.993,0.045,5.815,0.06,30.635,0.052l1.852,0.001
				c10.254,0,18.037,0.293,23.129,0.871c3.818,0.434,6.957,3.368,7.812,7.302c0.758,3.561,1.021,8.141,1.056,10.066l0,0
				c0.271,14.922,0.485,26.709-8.867,27.772C50.428,46.654,41.457,46.947,32.486,46.947z M28.844,2.753
				c-22.979,0-24.407,0.264-25.367,10.972c-0.456,5.023-0.456,14.517,0,19.535l0.039,0.457c0.374,4.379,1.187,9.1,6.147,9.664
				c10.238,1.162,35.41,1.162,45.649,0c6.259-0.711,6.778-8.176,6.472-25.04l0,0c-0.026-1.477-0.256-6.068-0.996-9.547
				c-0.608-2.798-2.809-4.885-5.476-5.186c-4.993-0.568-12.673-0.855-22.825-0.855h-1.852C30.025,2.753,29.426,2.753,28.844,2.753z
				 M27.924,35.107c-0.482,0-0.979-0.111-1.432-0.346c-1.027-0.527-1.642-1.545-1.642-2.723V14.947c0-1.149,0.592-2.156,1.583-2.694
				c0.982-0.532,2.17-0.485,3.101,0.121c5.177,3.372,8.438,5.356,10.597,6.67c3.707,2.258,4.377,2.665,4.377,4.448
				c0,1.131-0.514,2.053-1.447,2.6l-13.545,8.531C29.073,34.941,28.509,35.107,27.924,35.107z M27.887,14.583
				c-0.074,0-0.135,0.026-0.166,0.043c-0.113,0.062-0.17,0.166-0.17,0.32v17.092c0,0.162,0.052,0.258,0.174,0.32
				c0.119,0.062,0.243,0.053,0.285,0.023l13.633-8.59c0.016-0.011,0.032-0.021,0.051-0.031c0.08-0.045,0.113-0.064,0.113-0.27
				c0-0.051,0.001-0.096-0.001-0.14c-0.282-0.299-1.468-1.021-3.081-2.002c-2.17-1.321-5.453-3.319-10.665-6.714
				C27.999,14.596,27.939,14.583,27.887,14.583z"/>
		</g>
	</g>
</g>
</svg>
