<?xml version="1.0" encoding="iso-8859-1"?>
<!-- Generator: Adobe Illustrator 16.0.0, SVG Export Plug-In . SVG Version: 6.00 Build 0)  -->
<!DOCTYPE svg PUBLIC "-//W3C//DTD SVG 1.1//EN" "http://www.w3.org/Graphics/SVG/1.1/DTD/svg11.dtd">
<svg version="1.1" id="&#x56FE;&#x5C42;_1" xmlns="http://www.w3.org/2000/svg" xmlns:xlink="http://www.w3.org/1999/xlink" x="0px"
	 y="0px" width="63px" height="58px" viewBox="0 0 63 58" style="enable-background:new 0 0 63 58;" xml:space="preserve">
<g>
	<g>
		<rect x="14.903" y="20.396" style="fill:#E3D9FF;" width="14.98" height="21.535"/>
	</g>
	<g>
		<g>
			<path style="fill:#8068C1;" d="M61.675,57.806H1.326C0.593,57.806,0,57.212,0,56.48V7.986C0,7.253,0.593,6.66,1.326,6.66h60.349
				C62.407,6.66,63,7.253,63,7.986V56.48C63,57.212,62.407,57.806,61.675,57.806z M2.651,55.154h57.697V9.312H2.651V55.154z"/>
		</g>
		<g>
			<path style="fill:#8068C1;" d="M52.677,27.092H37.999c-0.732,0-1.324-0.592-1.324-1.324c0-0.733,0.592-1.325,1.324-1.325h14.678
				c0.732,0,1.326,0.592,1.326,1.325C54.003,26.5,53.409,27.092,52.677,27.092z"/>
		</g>
		<g>
			<path style="fill:#8068C1;" d="M47.753,35.176h-9.754c-0.732,0-1.324-0.595-1.324-1.326s0.592-1.325,1.324-1.325h9.754
				c0.733,0,1.326,0.594,1.326,1.325S48.486,35.176,47.753,35.176z"/>
		</g>
		<g>
			<path style="fill:#8068C1;" d="M50.68,19.011H37.999c-0.732,0-1.324-0.594-1.324-1.326c0-0.731,0.592-1.325,1.324-1.325H50.68
				c0.731,0,1.325,0.594,1.325,1.325C52.005,18.417,51.411,19.011,50.68,19.011z"/>
		</g>
		<g>
			<path style="fill:#8068C1;" d="M49.821,51.34H9.947c-0.732,0-1.326-0.593-1.326-1.326c0-0.732,0.594-1.325,1.326-1.325h39.874
				c0.731,0,1.324,0.593,1.324,1.325C51.146,50.747,50.553,51.34,49.821,51.34z"/>
		</g>
		<g>
			<path style="fill:#8068C1;" d="M44.827,43.257h-6.828c-0.732,0-1.324-0.594-1.324-1.325s0.592-1.325,1.324-1.325h6.828
				c0.732,0,1.326,0.594,1.326,1.325S45.56,43.257,44.827,43.257z"/>
		</g>
		<g>
			<path style="fill:#8068C1;" d="M51.655,43.257h-1.467c-0.732,0-1.326-0.594-1.326-1.325s0.594-1.325,1.326-1.325h1.467
				c0.732,0,1.325,0.594,1.325,1.325S52.388,43.257,51.655,43.257z"/>
		</g>
		<g>
			<path style="fill:#8068C1;" d="M61.675,9.312H1.326C0.593,9.312,0,8.718,0,7.986V4.098c0-2.152,1.751-3.903,3.903-3.903h55.194
				C61.249,0.194,63,1.945,63,4.098v3.889C63,8.718,62.407,9.312,61.675,9.312z M2.651,6.66h57.697V4.098
				c0-0.691-0.561-1.252-1.251-1.252H3.903c-0.691,0-1.252,0.561-1.252,1.252V6.66z"/>
		</g>
		<g>
			<path style="fill:#8068C1;" d="M28.881,43.257h-17.93c-1.284,0-2.329-1.044-2.329-2.328V16.533c0-1.284,1.045-2.33,2.329-2.33
				h17.93c1.285,0,2.329,1.046,2.329,2.33v24.396C31.21,42.213,30.166,43.257,28.881,43.257z M11.273,40.606h17.286V16.854H11.273
				V40.606z M28.881,16.854h0.011H28.881z"/>
		</g>
	</g>
</g>
</svg>
