<?xml version="1.0" encoding="iso-8859-1"?>
<!-- Generator: Adobe Illustrator 16.0.0, SVG Export Plug-In . SVG Version: 6.00 Build 0)  -->
<!DOCTYPE svg PUBLIC "-//W3C//DTD SVG 1.1//EN" "http://www.w3.org/Graphics/SVG/1.1/DTD/svg11.dtd">
<svg version="1.1" id="&#x56FE;&#x5C42;_1" xmlns="http://www.w3.org/2000/svg" xmlns:xlink="http://www.w3.org/1999/xlink" x="0px"
	 y="0px" width="64px" height="59px" viewBox="0 0 64 59" style="enable-background:new 0 0 64 59;" xml:space="preserve">
<g>
	<g>
		<path style="fill:#E3D9FF;" d="M49.577,52.371h0.059v-27.47c-0.491,0.022-0.987-0.124-1.411-0.419
			c-0.026-0.014-0.061-0.03-0.11-0.058c-0.12-0.064-0.236-0.141-0.355-0.212c-0.341-0.2-0.685-0.396-1.025-0.602
			c-0.884-0.532-1.761-1.108-2.532-1.797c-0.825-0.737-1.465-1.713-1.447-2.853c0.021-1.552,1.336-2.49,2.688-2.89
			c1.23-0.364,2.128,0.323,2.485,1.246c0.553,0.004,1.107,0.178,1.529,0.546c0.059,0.052,0.12,0.105,0.179,0.159V1.351H35.648v51.02
			h5.26c-0.034,0.197-0.068,0.398-0.068,0.605c0,2.207,1.972,3.994,4.401,3.994c2.432,0,4.401-1.787,4.401-3.994
			C49.643,52.77,49.608,52.568,49.577,52.371z"/>
	</g>
	<g>
		<g>
			<path style="fill:#8068C1;" d="M62.71,43.211c-0.328,0-0.656-0.129-0.905-0.383l-4.244-4.34c-0.488-0.502-0.48-1.303,0.02-1.791
				c0.5-0.49,1.303-0.482,1.792,0.018l4.245,4.342c0.489,0.5,0.479,1.303-0.02,1.793C63.351,43.09,63.031,43.211,62.71,43.211z"/>
		</g>
		<g>
			<path style="fill:#8068C1;" d="M49.636,47.691c-0.325,0-0.65-0.123-0.897-0.371c-0.494-0.496-0.494-1.299,0.002-1.793
				l8.461-8.451V24.644c0-0.7,0.567-1.268,1.267-1.268c0.7,0,1.268,0.567,1.268,1.268v12.958c0,0.336-0.134,0.658-0.372,0.896
				l-8.832,8.824C50.283,47.568,49.96,47.691,49.636,47.691z"/>
		</g>
		<g>
			<g>
				<path style="fill:#8068C1;" d="M7.453,47.691c-0.699,0-1.266-0.568-1.266-1.268V34.988C6.175,34.92,6.17,34.85,6.17,34.777V4.43
					c0-2.397,1.948-4.348,4.346-4.348h42.207c0.699,0,1.267,0.567,1.267,1.267c0,0.701-0.567,1.269-1.267,1.269
					c-0.999,0-1.812,0.812-1.812,1.812v13.097c0,0.7-0.567,1.267-1.269,1.267c-0.699,0-1.267-0.566-1.267-1.267V4.43
					c0-0.648,0.143-1.262,0.396-1.812H10.516c-0.999,0-1.812,0.812-1.812,1.812v30.136c0.013,0.068,0.019,0.139,0.019,0.211v11.646
					C8.722,47.123,8.155,47.691,7.453,47.691z"/>
			</g>
			<g>
				<path style="fill:#8068C1;" d="M45.244,58.918c-0.699,0-1.266-0.568-1.266-1.268s0.566-1.268,1.266-1.268
					c1.727,0,3.132-1.406,3.132-3.131V25.779c0-0.699,0.567-1.268,1.267-1.268c0.701,0,1.269,0.568,1.269,1.268v27.473
					C50.911,56.375,48.37,58.918,45.244,58.918z"/>
			</g>
		</g>
		<g>
			<path style="fill:#8068C1;" d="M31.09,14.158H14.807c-0.699,0-1.267-0.567-1.267-1.267c0-0.701,0.567-1.268,1.267-1.268H31.09
				c0.699,0,1.268,0.566,1.268,1.268C32.357,13.59,31.789,14.158,31.09,14.158z"/>
		</g>
		<g>
			<path style="fill:#8068C1;" d="M30.079,23.447H14.807c-0.699,0-1.267-0.567-1.267-1.268c0-0.699,0.567-1.267,1.267-1.267h15.272
				c0.699,0,1.268,0.567,1.268,1.267C31.347,22.879,30.778,23.447,30.079,23.447z"/>
		</g>
		<g>
			<path style="fill:#8068C1;" d="M30.085,32.738H14.807c-0.699,0-1.267-0.568-1.267-1.268c0-0.701,0.567-1.268,1.267-1.268h15.278
				c0.7,0,1.268,0.566,1.268,1.268C31.353,32.17,30.785,32.738,30.085,32.738z"/>
		</g>
		<g>
			<path style="fill:#8068C1;" d="M35.65,42.027H14.807c-0.699,0-1.267-0.566-1.267-1.268c0-0.699,0.567-1.266,1.267-1.266H35.65
				c0.7,0,1.267,0.566,1.267,1.266C36.917,41.461,36.351,42.027,35.65,42.027z"/>
		</g>
		<g>
			<path style="fill:#8068C1;" d="M45.244,58.918H5.691c-3.128,0-5.67-2.543-5.67-5.666v-0.881c0-0.699,0.566-1.266,1.266-1.266
				h39.559c0.701,0,1.268,0.566,1.268,1.266v0.881c0,1.725,1.404,3.131,3.131,3.131l0,0c0.7,0,1.269,0.568,1.269,1.268l0,0l0,0l0,0
				c0,0.002,0,0.002,0,0.004l0,0c-0.001,0.242-0.07,0.467-0.187,0.658c-0.216,0.35-0.594,0.586-1.03,0.604
				C45.278,58.918,45.262,58.918,45.244,58.918z M5.691,56.383h34.833c-0.528-0.797-0.864-1.734-0.934-2.744H2.579
				c0.19,1.531,1.491,2.725,3.068,2.744C5.662,56.383,5.677,56.383,5.691,56.383z"/>
		</g>
		<g>
			<path style="fill:#8068C1;" d="M49.643,27.045c-0.218,0-0.438-0.056-0.64-0.174l-5.05-2.955
				c-2.291-1.348-3.066-4.312-1.729-6.605c0.864-1.474,2.465-2.389,4.184-2.389c0.843,0,1.678,0.227,2.419,0.654l8.521,4.991
				c1.473,0.862,2.388,2.462,2.388,4.172c0,0.7-0.569,1.267-1.269,1.267s-1.267-0.566-1.267-1.267c0-0.814-0.434-1.575-1.133-1.985
				l-8.516-4.988c-1.062-0.615-2.53-0.214-3.139,0.822c-0.635,1.091-0.266,2.5,0.824,3.143l5.047,2.955
				c0.604,0.352,0.808,1.128,0.454,1.731C50.502,26.822,50.077,27.045,49.643,27.045z"/>
		</g>
		<g>
			<path style="fill:#8068C1;" d="M55.801,7.895h-6.158c-0.699,0-1.267-0.566-1.267-1.267V4.43c0-2.397,1.949-4.348,4.347-4.348
				c0.235,0,0.456,0.016,0.676,0.055c2.078,0.307,3.669,2.154,3.669,4.293v2.198C57.067,7.329,56.5,7.895,55.801,7.895z
				 M50.911,5.361h3.623V4.43c0-0.893-0.663-1.661-1.541-1.791c-0.11-0.019-0.188-0.021-0.271-0.021
				c-0.999,0-1.812,0.812-1.812,1.812V5.361z"/>
		</g>
	</g>
</g>
</svg>
