<?xml version="1.0" encoding="iso-8859-1"?>
<!-- Generator: Adobe Illustrator 16.0.0, SVG Export Plug-In . SVG Version: 6.00 Build 0)  -->
<!DOCTYPE svg PUBLIC "-//W3C//DTD SVG 1.1//EN" "http://www.w3.org/Graphics/SVG/1.1/DTD/svg11.dtd">
<svg version="1.1" id="&#x56FE;&#x5C42;_1" xmlns="http://www.w3.org/2000/svg" xmlns:xlink="http://www.w3.org/1999/xlink" x="0px"
	 y="0px" width="65px" height="46px" viewBox="0 0 65 46" style="enable-background:new 0 0 65 46;" xml:space="preserve">
<g>
	<g>
		<path style="fill:#E3D9FF;" d="M42.589,19.424h21.505v19.893c0,2.237-1.812,4.049-4.049,4.049H42.589V19.424z"/>
	</g>
	<g>
		<path style="fill:#8068C1;" d="M60.93,45.991H43.122c-0.7,0-1.269-0.567-1.269-1.268c0-0.701,0.568-1.269,1.269-1.269H60.93
			c0.816,0,1.533-1.069,1.533-2.288V4.835c0-1.22-0.717-2.289-1.533-2.289h-1.475c-0.701,0-1.27-0.566-1.27-1.269
			c0-0.7,0.568-1.269,1.27-1.269h1.475c2.244,0,4.07,2.165,4.07,4.826v36.332C65,43.827,63.174,45.991,60.93,45.991z"/>
	</g>
	<g>
		<path style="fill:#8068C1;" d="M22.898,45.991H4.068C1.825,45.991,0,43.827,0,41.167V4.835c0-2.661,1.825-4.826,4.068-4.826h1.476
			c0.7,0,1.269,0.568,1.269,1.269c0,0.702-0.568,1.269-1.269,1.269H4.068c-0.816,0-1.532,1.069-1.532,2.289v36.332
			c0,1.219,0.716,2.288,1.532,2.288h18.83c0.7,0,1.268,0.567,1.268,1.269C24.166,45.424,23.599,45.991,22.898,45.991z"/>
	</g>
</g>
</svg>
