<?xml version="1.0" encoding="iso-8859-1"?>
<!-- Generator: Adobe Illustrator 16.0.0, SVG Export Plug-In . SVG Version: 6.00 Build 0)  -->
<!DOCTYPE svg PUBLIC "-//W3C//DTD SVG 1.1//EN" "http://www.w3.org/Graphics/SVG/1.1/DTD/svg11.dtd">
<svg version="1.1" id="&#x56FE;&#x5C42;_1" xmlns="http://www.w3.org/2000/svg" xmlns:xlink="http://www.w3.org/1999/xlink" x="0px"
	 y="0px" width="52px" height="54px" viewBox="0 0 52 54" style="enable-background:new 0 0 52 54;" xml:space="preserve">
<g>
	<g>
		<path style="fill:#E3D9FF;" d="M6.535,51.51l10.351-21.056h13.767l9.987,18.082c0,0-5.521-0.437-8.522-0.026
			c-2.999,0.412-6.714,1.649-10.323,2.798C18.187,52.458,11.769,54.333,6.535,51.51z"/>
	</g>
	<g>
		<g>
			<path style="fill:#8068C1;" d="M20.657,15.088c-0.596,0-1.079-0.482-1.079-1.079v-3.524c0-0.596,0.483-1.08,1.079-1.08
				s1.08,0.483,1.08,1.08v3.524C21.737,14.605,21.253,15.088,20.657,15.088z"/>
		</g>
		<g>
			<path style="fill:#8068C1;" d="M20.657,11.565c-0.202,0-0.401-0.057-0.577-0.168c-0.313-0.199-0.502-0.542-0.502-0.912V1.11
				c0-0.351,0.17-0.679,0.456-0.882c0.285-0.202,0.654-0.251,0.984-0.136l11.346,4.026c0.412,0.146,0.696,0.527,0.718,0.963
				c0.021,0.437-0.223,0.844-0.617,1.031l-11.346,5.349C20.971,11.53,20.814,11.565,20.657,11.565z M21.737,2.639v6.142l7.434-3.504
				L21.737,2.639z"/>
		</g>
		<g>
			<path style="fill:#8068C1;" d="M50.864,48.092c-0.384,0-0.756-0.206-0.95-0.566L39.561,28.344l-4.619,8.396
				c-0.284,0.523-0.942,0.716-1.465,0.432c-0.524-0.286-0.716-0.94-0.432-1.465l4.573-8.398c0.384-0.703,1.117-1.138,1.918-1.138
				c0.002,0,0.005,0,0.009,0.002c0.803,0.001,1.538,0.443,1.917,1.149l10.352,19.177c0.283,0.523,0.087,1.18-0.437,1.462
				C51.214,48.049,51.037,48.092,50.864,48.092z"/>
		</g>
		<g>
			<path style="fill:#8068C1;" d="M40.933,50.154c-0.385,0.001-0.756-0.205-0.951-0.566L21.609,15.559
				c-0.23-0.425-0.633-0.471-0.796-0.473h0c-0.162,0-0.563,0.047-0.795,0.473L2.026,48.595c-0.287,0.521-0.942,0.713-1.467,0.426
				c-0.522-0.287-0.712-0.942-0.426-1.465l1.395-2.561l16.592-30.469c0.538-0.986,1.57-1.599,2.692-1.599c0.001,0,0.002,0,0.002,0
				c1.126,0.002,2.158,0.618,2.695,1.609l0.131,0.244l18.24,33.782c0.284,0.525,0.089,1.18-0.437,1.464
				C41.281,50.113,41.105,50.154,40.933,50.154z"/>
		</g>
		<g>
			<path style="fill:#8068C1;" d="M14.401,53.969c-3.819,0-7.782-1.214-11.795-3.618c-0.329-0.196-0.634-0.386-0.938-0.585
				c-0.396-0.251-0.804-0.516-1.219-0.816c-0.483-0.348-0.593-1.022-0.244-1.506c0.348-0.483,1.021-0.594,1.508-0.244
				c0.377,0.272,0.748,0.515,1.12,0.749c0.294,0.19,0.576,0.366,0.843,0.525c4.036,2.417,7.938,3.527,11.625,3.312
				c2.51-0.143,4.357-0.832,6.494-1.63c2.093-0.779,4.466-1.664,7.892-2.195c3.454-0.529,6.993-0.558,10.526-0.082
				c0.312,0.041,0.611,0.083,0.902,0.134c0.588,0.099,0.983,0.658,0.883,1.246s-0.659,0.981-1.247,0.882
				c-0.264-0.046-0.536-0.083-0.824-0.121c-3.331-0.448-6.663-0.422-9.911,0.076c-3.207,0.496-5.371,1.305-7.465,2.085
				c-2.207,0.822-4.29,1.6-7.126,1.761C15.083,53.959,14.742,53.969,14.401,53.969z"/>
		</g>
		<g>
			<path style="fill:#8068C1;" d="M50.92,48.112c-0.146,0-0.294-0.03-0.436-0.092c-1.989-0.879-4.089-1.399-6.239-1.549
				c-1.575-0.11-3.172-0.014-4.734,0.281c-0.587,0.111-1.151-0.275-1.263-0.86c-0.11-0.586,0.274-1.15,0.86-1.261
				c1.745-0.331,3.526-0.437,5.286-0.314c2.401,0.166,4.742,0.747,6.961,1.728c0.546,0.24,0.793,0.879,0.552,1.423
				C51.73,47.872,51.334,48.112,50.92,48.112z"/>
		</g>
		<g>
			<path style="fill:#8068C1;" d="M22.379,25.353h-8.34c-0.596,0-1.08-0.482-1.08-1.079c0-0.596,0.483-1.079,1.08-1.079h8.34
				c0.595,0,1.079,0.483,1.079,1.079C23.458,24.871,22.974,25.353,22.379,25.353z"/>
		</g>
		<g>
			<path style="fill:#8068C1;" d="M44.633,37.249h-3.7c-0.598,0-1.08-0.483-1.08-1.079c0-0.597,0.482-1.079,1.08-1.079h3.7
				c0.597,0,1.08,0.482,1.08,1.079C45.713,36.766,45.229,37.249,44.633,37.249z"/>
		</g>
	</g>
</g>
</svg>
