<?xml version="1.0" encoding="iso-8859-1"?>
<!-- Generator: Adobe Illustrator 16.0.0, SVG Export Plug-In . SVG Version: 6.00 Build 0)  -->
<!DOCTYPE svg PUBLIC "-//W3C//DTD SVG 1.1//EN" "http://www.w3.org/Graphics/SVG/1.1/DTD/svg11.dtd">
<svg version="1.1" id="&#x56FE;&#x5C42;_1" xmlns="http://www.w3.org/2000/svg" xmlns:xlink="http://www.w3.org/1999/xlink" x="0px"
	 y="0px" width="52px" height="54px" viewBox="0 0 52 54" style="enable-background:new 0 0 52 54;" xml:space="preserve">
<g>
	<g>
		<path style="fill:#E3D9FF;" d="M34.992,32.812c-0.498-1.987-1.164-4.149-0.379-5.975c-0.06-0.941,0.512-1.932,1.726-1.932h0.537
			c0.533,0,0.976,0.249,1.289,0.608V11.073H18.626v29.108h16.802C35.003,37.759,35.611,35.287,34.992,32.812z"/>
	</g>
	<g>
		<g>
			<path style="fill:#8068C1;" d="M37.543,46.095H14.456c-0.583,0-1.054-0.472-1.054-1.055s0.472-1.055,1.054-1.055h23.087
				c0.583,0,1.055,0.472,1.055,1.055S38.126,46.095,37.543,46.095z"/>
		</g>
		<g>
			<path style="fill:#8068C1;" d="M42.729,21.891c-0.583,0-1.055-0.473-1.055-1.055v-16.1c0-1.308-1.063-2.371-2.37-2.371H12.689
				c-1.302,0-2.363,1.061-2.363,2.364V20.83c0,0.583-0.472,1.055-1.055,1.055c-0.583,0-1.055-0.473-1.055-1.055V4.729
				c0-2.466,2.006-4.473,4.473-4.473h26.614c2.47,0,4.479,2.01,4.479,4.48v16.1C43.783,21.418,43.312,21.891,42.729,21.891z"/>
		</g>
		<g>
			<path style="fill:#8068C1;" d="M38.165,21.528c-0.583,0-1.055-0.472-1.055-1.054V7.738c0-0.111-0.096-0.208-0.207-0.208H15.103
				c-0.114,0-0.213,0.097-0.213,0.208v12.736c0,0.583-0.472,1.054-1.055,1.054s-1.054-0.472-1.054-1.054V7.738
				c0-1.277,1.041-2.316,2.322-2.316h21.801c1.277,0,2.316,1.039,2.316,2.316v12.736C39.22,21.057,38.747,21.528,38.165,21.528z"/>
		</g>
		<g>
			<path style="fill:#8068C1;" d="M30.521,41.236h-9.042c-0.583,0-1.054-0.472-1.054-1.055s0.471-1.056,1.054-1.056h9.042
				c0.583,0,1.055,0.473,1.055,1.056S31.104,41.236,30.521,41.236z"/>
		</g>
		<g>
			<path style="fill:#8068C1;" d="M12.847,53.744c-0.107,0-0.216-0.016-0.324-0.051c-0.554-0.18-0.858-0.774-0.679-1.328
				l1.403-4.343L2.614,44.587l-0.557,1.722c-0.179,0.554-0.775,0.859-1.326,0.679c-0.556-0.178-0.859-0.772-0.68-1.326l0.88-2.727
				c0.085-0.267,0.274-0.487,0.523-0.614c0.248-0.128,0.536-0.152,0.805-0.064l12.639,4.083c0.554,0.179,0.858,0.774,0.68,1.329
				l-1.727,5.346C13.707,53.461,13.292,53.744,12.847,53.744z"/>
		</g>
		<g>
			<path style="fill:#8068C1;" d="M39.3,47.685c-0.409,0-0.799-0.24-0.97-0.641c-0.298-0.697-1.151-2.013-1.905-3.174
				c-0.761-1.172-1.478-2.277-1.805-2.994c-0.085-0.165-0.146-0.347-0.187-0.479c-0.157-0.657-0.201-2.222-0.263-4.728
				c-0.037-1.528-0.089-3.622-0.174-4.008c-1.037-3.443-0.899-5.898,0.416-7.267c0.961-1.001,2.271-1.108,3.18-0.873
				c2.463,0.633,2.799,3.246,3.067,5.343c0.12,0.944,0.246,1.919,0.529,2.633c0.029,0.067,0.186,0.301,0.484,0.531V20.836
				c0-0.425,0.256-0.811,0.649-0.974c0.394-0.164,0.846-0.076,1.148,0.225c2.86,2.839,6.769,6.888,7.668,9.242
				c0.092,0.249,0.161,0.474,0.161,0.474c0.427,1.423,0.207,2.813-0.194,5.337c-0.134,0.838-0.364,2.095-0.602,3.399
				c-0.329,1.803-0.669,3.667-0.804,4.65c-0.078,0.577-0.627,0.979-1.187,0.903c-0.577-0.079-0.982-0.609-0.902-1.188
				c0.139-1.03,0.483-2.919,0.818-4.745c0.233-1.289,0.46-2.527,0.593-3.353c0.363-2.287,0.547-3.438,0.26-4.389l0,0
				c0,0-0.053-0.173-0.118-0.352c-0.469-1.226-2.277-3.467-5.382-6.666v10.276c0,0.305-0.133,0.595-0.362,0.795
				s-0.533,0.292-0.837,0.249c-0.391-0.054-0.815-0.248-1.375-0.518c-1.047-0.496-1.752-1.332-1.984-1.939
				c-0.378-0.949-0.52-2.059-0.657-3.131c-0.263-2.049-0.495-3.31-1.502-3.57c-0.07-0.018-0.693-0.162-1.131,0.292
				c-0.34,0.353-1.01,1.568,0.092,5.227c0.143,0.485,0.184,1.691,0.253,4.535c0.04,1.611,0.094,3.818,0.188,4.228
				c-0.001-0.003-0.001-0.005-0.001-0.005c0.003,0,0.023,0.059,0.056,0.123c0.279,0.613,0.987,1.703,1.673,2.759
				c0.838,1.293,1.706,2.63,2.075,3.493c0.229,0.536-0.02,1.155-0.555,1.385C39.579,47.657,39.438,47.685,39.3,47.685z"/>
		</g>
		<g>
			<path style="fill:#8068C1;" d="M39.153,53.744c-0.445,0-0.86-0.283-1.004-0.73l-1.728-5.346c-0.179-0.555,0.126-1.15,0.68-1.329
				l12.639-4.083c0.268-0.088,0.557-0.063,0.805,0.064c0.25,0.127,0.438,0.348,0.523,0.614l0.881,2.727
				c0.179,0.554-0.126,1.148-0.68,1.326c-0.557,0.181-1.149-0.125-1.328-0.679l-0.556-1.722l-10.633,3.436l1.403,4.343
				c0.179,0.554-0.125,1.148-0.68,1.328C39.369,53.729,39.26,53.744,39.153,53.744z"/>
		</g>
		<g>
			<path style="fill:#8068C1;" d="M12.697,47.688c-0.139,0-0.28-0.027-0.415-0.085c-0.536-0.229-0.784-0.85-0.553-1.385
				c0.37-0.866,1.239-2.205,2.079-3.5c0.683-1.053,1.39-2.142,1.654-2.718c0.057-0.116,0.069-0.164,0.069-0.165
				c0.093-0.401,0.147-2.598,0.186-4.202c0.071-2.855,0.114-4.066,0.257-4.547c1.101-3.662,0.428-4.88,0.089-5.231
				c-0.437-0.455-1.062-0.312-1.13-0.294c-1.008,0.26-1.239,1.523-1.501,3.573c-0.137,1.073-0.277,2.183-0.658,3.143
				c-0.238,0.604-0.943,1.436-1.982,1.933c-0.544,0.261-0.993,0.464-1.391,0.512c-0.303,0.036-0.601-0.058-0.827-0.257
				c-0.226-0.2-0.355-0.488-0.355-0.79V23.397c-3.814,3.934-5.051,5.803-5.388,6.688c-0.064,0.169-0.114,0.33-0.117,0.341
				c-0.28,0.942-0.099,2.092,0.265,4.384c0.133,0.844,0.366,2.125,0.609,3.447c0.326,1.788,0.664,3.636,0.8,4.649
				c0.077,0.576-0.329,1.107-0.907,1.186c-0.576,0.077-1.107-0.327-1.185-0.905c-0.129-0.963-0.463-2.787-0.784-4.55
				c-0.245-1.342-0.482-2.642-0.618-3.498c-0.4-2.522-0.621-3.914-0.201-5.324c0.003-0.009,0.074-0.239,0.166-0.48
				c0.903-2.371,4.811-6.416,7.671-9.251c0.301-0.3,0.755-0.388,1.148-0.225c0.394,0.165,0.65,0.548,0.65,0.974v11.197
				c0.299-0.233,0.457-0.47,0.484-0.535c0.281-0.707,0.406-1.684,0.526-2.628c0.268-2.099,0.601-4.713,3.066-5.348
				c0.904-0.235,2.216-0.128,3.178,0.872c1.316,1.371,1.454,3.827,0.411,7.302c-0.079,0.364-0.131,2.463-0.168,3.993
				c-0.061,2.496-0.105,4.057-0.242,4.639c-0.045,0.185-0.12,0.385-0.219,0.586c-0.314,0.685-1.03,1.788-1.788,2.955
				c-0.755,1.164-1.61,2.483-1.911,3.184C13.495,47.449,13.106,47.688,12.697,47.688z"/>
		</g>
	</g>
</g>
</svg>
