<?xml version="1.0" encoding="iso-8859-1"?>
<!-- Generator: Adobe Illustrator 16.0.0, SVG Export Plug-In . SVG Version: 6.00 Build 0)  -->
<!DOCTYPE svg PUBLIC "-//W3C//DTD SVG 1.1//EN" "http://www.w3.org/Graphics/SVG/1.1/DTD/svg11.dtd">
<svg version="1.1" id="&#x56FE;&#x5C42;_1" xmlns="http://www.w3.org/2000/svg" xmlns:xlink="http://www.w3.org/1999/xlink" x="0px"
	 y="0px" width="55px" height="37px" viewBox="0 0 55 37" style="enable-background:new 0 0 55 37;" xml:space="preserve">
<g>
	<g>
		<path style="fill:#E3D9FF;" d="M43.896,30.787H16.481V14.982c0-1.777,1.44-3.217,3.217-3.217h24.198V30.787z"/>
	</g>
	<g>
		<g>
			<path style="fill:#8068C1;" d="M50.316,36.869H4.685C2.103,36.869,0,34.423,0,31.416v-0.629c0-0.583,0.473-1.054,1.054-1.054
				h52.892c0.583,0,1.054,0.471,1.054,1.054v0.629C55,34.423,52.899,36.869,50.316,36.869z M2.129,31.841
				c0.162,1.645,1.246,2.919,2.556,2.919h45.631c1.31,0,2.395-1.274,2.556-2.919H2.129z"/>
		</g>
		<g>
			<path style="fill:#8068C1;" d="M49.721,30.776c-0.582,0-1.054-0.472-1.054-1.053V3.411c0-0.646-0.574-1.172-1.279-1.172H7.572
				c-0.704,0-1.278,0.525-1.278,1.172v26.312c0,0.581-0.472,1.053-1.054,1.053c-0.583,0-1.055-0.472-1.055-1.053V3.411
				c0-1.809,1.52-3.28,3.387-3.28h39.816c1.867,0,3.387,1.472,3.387,3.28v26.312C50.774,30.305,50.302,30.776,49.721,30.776z"/>
		</g>
		<g>
			<path style="fill:#8068C1;" d="M43.896,30.776c-0.582,0-1.054-0.472-1.054-1.053V8.534c0-0.367-0.3-0.668-0.668-0.668H12.785
				c-0.368,0-0.668,0.301-0.668,0.668v17.097c0,0.581-0.472,1.053-1.055,1.053c-0.582,0-1.054-0.472-1.054-1.053V8.534
				c0-1.531,1.246-2.775,2.776-2.775h29.389c1.531,0,2.776,1.244,2.776,2.775v21.189C44.95,30.305,44.479,30.776,43.896,30.776z"/>
		</g>
	</g>
</g>
</svg>
