<svg xmlns="http://www.w3.org/2000/svg" xmlns:xlink="http://www.w3.org/1999/xlink" width="100" height="100" viewBox="0 0 100 100">
  <metadata><?xpacket begin="﻿" id="W5M0MpCehiHzreSzNTczkc9d"?>
<x:xmpmeta xmlns:x="adobe:ns:meta/" x:xmptk="Adobe XMP Core 5.6-c140 79.160451, 2017/05/06-01:08:21        ">
   <rdf:RDF xmlns:rdf="http://www.w3.org/1999/02/22-rdf-syntax-ns#">
      <rdf:Description rdf:about=""/>
   </rdf:RDF>
</x:xmpmeta>
                                                                                                    
                                                                                                    
                                                                                                    
                                                                                                    
                                                                                                    
                                                                                                    
                                                                                                    
                                                                                                    
                                                                                                    
                                                                                                    
                                                                                                    
                                                                                                    
                                                                                                    
                                                                                                    
                                                                                                    
                                                                                                    
                                                                                                    
                                                                                                    
                                                                                                    
                                                                                                    
                           
<?xpacket end="w"?></metadata>
<defs>
    <style>
      .cls-1 {
        fill-rule: evenodd;
        fill: url(#linear-gradient);
      }
    </style>
    <linearGradient id="linear-gradient" x1="10172" y1="2523" x2="10172" y2="2423" gradientUnits="userSpaceOnUse">
      <stop offset="0" stop-color="#2486ed"/>
      <stop offset="1" stop-color="#38b8f2"/>
    </linearGradient>
  </defs>
  <path id="形状_1094" data-name="形状 1094" class="cls-1" d="M10172,2423a50,50,0,1,1-50,50A50.005,50.005,0,0,1,10172,2423Zm0,93.75a43.75,43.75,0,1,0-43.8-43.75A43.77,43.77,0,0,0,10172,2516.75Zm25.6-70.63v-0.17c0-.03,0-0.06-0.1-0.08v-0.24c-0.1-.02-0.1-0.05-0.1-0.07v-0.14c0-.02,0-0.03-0.1-0.04v-0.08c0-.02,0-0.03-0.1-0.05v-0.11a0.168,0.168,0,0,0-.1-0.02v-0.09l-0.1-.02v-0.06l-0.1-.02v-0.05l-0.1-.02v-0.06c0-.01-0.1-0.01-0.1-0.02h0v-0.03c0-.01,0-0.01-0.1-0.02v-0.04c-0.1-.01-0.1-0.01-0.1-0.02v-0.03c0-.01-0.1-0.01-0.1-0.02v-0.02a0.158,0.158,0,0,0-.1-0.01v-0.04a0.158,0.158,0,0,1-.1-0.01v-0.01h0v-0.01l-0.1-.01h0l-0.1-.01h0a0.34,0.34,0,0,0-.1-0.01h-0.5v0.01a0.34,0.34,0,0,1-.1.01v0.01a0.34,0.34,0,0,1-.1.01v0.02h-0.1c0,0.02-.1.04-0.1,0.06a0.158,0.158,0,0,1-.1.01v0.01c0,0.01,0,.02-0.1.04l-52.9,23.22-0.2.1h0c-0.1.01-.1,0.03-0.1,0.05v0.01c-0.1.01-.1,0.03-0.1,0.04v0.02c0,0.01-.1.03-0.1,0.04v0.06c-0.1.01-.1,0.03-0.1,0.04v0.02c0,0.01,0,.02-0.1.04v0.09l-0.1.01v0.08c-0.1.09-.1,0.17-0.2,0.26a1.458,1.458,0,0,0-.2.62v0.34a1.455,1.455,0,0,0,.1.65,0.42,0.42,0,0,0,.1.33v0.01a0.113,0.113,0,0,0,.1.12v0.11c0,0.01.1,0.01,0.1,0.02v0.1l0.1,0.03v0.06l0.1,0.04v0.07l0.1,0.04v0.04a0.418,0.418,0,0,1,.1.04v0.01l15.6,11.11-3.1,16.66v0.9c0.1,0.17.1,0.34,0.2,0.5,0,0.01.1,0.01,0.1,0.02v0.11c0,0.01.1,0.04,0.1,0.05v0.09c0,0.01,0,.02.1,0.03v0.08c0,0.02.1,0.03,0.1,0.05v0.03c0,0.02.1,0.04,0.1,0.06v0.03a0.418,0.418,0,0,0,.1.04v0.02c0,0.01,0,.02.1,0.04v0.02c0,0.01,0,.02.1,0.03v0.02l0.1,0.04v0.01c0,0.01,0,.02.1,0.03v0.01l0.1,0.04v0.01c0,0.01.1,0.01,0.1,0.02v0.01l0.1,0.01v0.01c0,0.01,0,.01.1,0.01h0v0.02l0.1,0.01h0l0.1,0.01h0.1c0.1,0,.1-0.01.2-0.01,0-.01,0-0.01.1-0.01h0v-0.02h0a0.158,0.158,0,0,0,.1-0.01v-0.01l0.1-.01v-0.01a0.158,0.158,0,0,1,.1-0.01v-0.02a0.381,0.381,0,0,1,.1-0.03v-0.01a0.355,0.355,0,0,0,.1-0.02h0l0.1-.03h0v-0.05c0.1-.01.1-0.02,0.1-0.03v-0.01a0.418,0.418,0,0,0,.1-0.04v-0.04c0-.01,0-0.01.1-0.02v-0.06l0.1-.01,12.6-9.8,18.1,9.98a1.348,1.348,0,0,0,.3.14,0.158,0.158,0,0,0,.1.01v0.03l0.1,0.01v0.01a2.612,2.612,0,0,0,.4.04h0.2a1.868,1.868,0,0,0,.6-0.14h0a0.53,0.53,0,0,0,.1-0.06v-0.01c0.1-.01.1-0.03,0.1-0.04s0-.01.1-0.02v-0.05c0.1-.01.1-0.02,0.1-0.03v-0.04c0-.01.1-0.02,0.1-0.03v-0.04a0.53,0.53,0,0,0,.1-0.06v-0.04l0.1-.04v-0.08a0.168,0.168,0,0,1,.1-0.02v-0.09c0.1-.03.1-0.07,0.1-0.11a0.642,0.642,0,0,0,.2-0.39v-0.09c0-.01.1-0.03,0.1-0.04v-0.3l6.8-53.01v-0.62Zm-51,24.01,39.6-17.33-27.2,26.17Zm21.4,17.39-9.2,7.15,2.3-12.1,24.5-23.66Zm19.2,8.8-14.8-8.19,20-32.66Z" transform="translate(-10122 -2423)"/>
</svg>
