<svg xmlns="http://www.w3.org/2000/svg" xmlns:xlink="http://www.w3.org/1999/xlink" width="100" height="100" viewBox="0 0 100 100">
  <metadata><?xpacket begin="﻿" id="W5M0MpCehiHzreSzNTczkc9d"?>
<x:xmpmeta xmlns:x="adobe:ns:meta/" x:xmptk="Adobe XMP Core 5.6-c140 79.160451, 2017/05/06-01:08:21        ">
   <rdf:RDF xmlns:rdf="http://www.w3.org/1999/02/22-rdf-syntax-ns#">
      <rdf:Description rdf:about=""/>
   </rdf:RDF>
</x:xmpmeta>
                                                                                                    
                                                                                                    
                                                                                                    
                                                                                                    
                                                                                                    
                                                                                                    
                                                                                                    
                                                                                                    
                                                                                                    
                                                                                                    
                                                                                                    
                                                                                                    
                                                                                                    
                                                                                                    
                                                                                                    
                                                                                                    
                                                                                                    
                                                                                                    
                                                                                                    
                                                                                                    
                           
<?xpacket end="w"?></metadata>
<defs>
    <style>
      .cls-1 {
        fill-rule: evenodd;
        fill: url(#linear-gradient);
      }
    </style>
    <linearGradient id="linear-gradient" x1="11255" y1="2523" x2="11255" y2="2423" gradientUnits="userSpaceOnUse">
      <stop offset="0" stop-color="#2486ed"/>
      <stop offset="1" stop-color="#38b8f2"/>
    </linearGradient>
  </defs>
  <path id="形状_1093" data-name="形状 1093" class="cls-1" d="M11255,2423a50,50,0,1,1-50,50A50.005,50.005,0,0,1,11255,2423Zm0,93.75a43.75,43.75,0,1,0-43.8-43.75A43.685,43.685,0,0,0,11255,2516.75Zm10.2-32.34c-5.6-.82-4.7-7.1-4.9-7.01s0.1-1.32.1-1.32c3.2-1.8,4.3-6.79,4.3-6.79v-6.33s-1.3-6.8-6.4-6.8l-4.5-2.16c-5.7,0-6.2,8.96-6.2,8.96s0.1,2.3,0,5.82c0,3.51,4.2,7.41,4.2,7.41a6.285,6.285,0,0,1,.1,1.32c-0.2-.09,1.1,6.08-4.5,6.9a24.172,24.172,0,0,0-11.3,5.27c-1.8,2.35-1.4,8.08-1.4,8.08h42.9s-0.6-7.08-1.6-8.08a21.7,21.7,0,0,0-10.8-5.27h0Zm-25.2-.85a2.893,2.893,0,0,1,0-.93s3.1-2.74,3.1-5.2v-5.38s-0.8-6.31-4.8-6.31l-3.2,1.53c-3.6,0-4.7,4.78-4.7,4.78v5.74s0.9,3.38,3.1,4.64a7.522,7.522,0,0,1,.1,1.46c-0.2-.06.6,3.94-3.3,4.52a12.033,12.033,0,0,0-6.9,3.7c-0.7.7-1.6,5.56-1.6,5.56l10.6,0.08s-0.4-5.81,1-7.91c0.4-.5,1.7-1.97,6.2-4.75a2.774,2.774,0,0,0,.4-1.53h0Zm40.4-20.07h-6.8V2440h6.8v23.49Zm0,10.7h-6.8v-6.84h6.8v6.84Z" transform="translate(-11205 -2423)"/>
</svg>
