<svg xmlns="http://www.w3.org/2000/svg" xmlns:xlink="http://www.w3.org/1999/xlink" width="91" height="91" viewBox="0 0 91 91">
  <metadata><?xpacket begin="﻿" id="W5M0MpCehiHzreSzNTczkc9d"?>
<x:xmpmeta xmlns:x="adobe:ns:meta/" x:xmptk="Adobe XMP Core 5.6-c140 79.160451, 2017/05/06-01:08:21        ">
   <rdf:RDF xmlns:rdf="http://www.w3.org/1999/02/22-rdf-syntax-ns#">
      <rdf:Description rdf:about=""/>
   </rdf:RDF>
</x:xmpmeta>
                                                                                                    
                                                                                                    
                                                                                                    
                                                                                                    
                                                                                                    
                                                                                                    
                                                                                                    
                                                                                                    
                                                                                                    
                                                                                                    
                                                                                                    
                                                                                                    
                                                                                                    
                                                                                                    
                                                                                                    
                                                                                                    
                                                                                                    
                                                                                                    
                                                                                                    
                                                                                                    
                           
<?xpacket end="w"?></metadata>
<defs>
    <style>
      .cls-1 {
        fill-rule: evenodd;
        fill: url(#linear-gradient);
      }
    </style>
    <linearGradient id="linear-gradient" x1="10532.5" y1="2519" x2="10532.5" y2="2428" gradientUnits="userSpaceOnUse">
      <stop offset="0" stop-color="#2486ed"/>
      <stop offset="1" stop-color="#38b8f2"/>
    </linearGradient>
  </defs>
  <path id="形状_1919" data-name="形状 1919" class="cls-1" d="M10521.5,2511.42c-11.8-1.07-20.9-8.94-21.3-21.98h6.6l-9.9-14.73-9.9,14.7h6.5c0.3,16.85,12.2,27.77,27.3,29.29a3.686,3.686,0,0,0,3.9-3.49A3.753,3.753,0,0,0,10521.5,2511.42Zm22.1-75.98c10.6,1.07,19.1,7.42,20.9,18.34h-6.1l9.8,14.66,9.8-14.64h-6.8c-1.8-14.72-12.9-24.28-27-25.64a3.512,3.512,0,0,0-3.7,3.46v0.18A3.661,3.661,0,0,0,10543.6,2435.44Zm31.2,46.86a3.71,3.71,0,0,0-3.4-3.74H10537a3.6,3.6,0,0,0-3.5,3.74v32.92a3.649,3.649,0,0,0,3.5,3.78h34.3a3.611,3.611,0,0,0,3.5-3.73V2482.3Zm-20.6,29.7a11.484,11.484,0,0,1-6.4-21.03,1.662,1.662,0,0,1,2.3.47,1.609,1.609,0,0,1-.5,2.27,8.2,8.2,0,1,0,12.8,6.82,8.094,8.094,0,0,0-3.8-6.88,1.8,1.8,0,0,1-.5-2.27,1.7,1.7,0,0,1,2.3-.49A11.451,11.451,0,0,1,10554.2,2512Zm-1.7-12.94v-10.35a1.7,1.7,0,0,1,1.7-1.64,1.614,1.614,0,0,1,1.6,1.64v10.35a1.616,1.616,0,0,1-1.6,1.65A1.7,1.7,0,0,1,10552.5,2499.06Zm-20.8-34.42V2431.8a3.679,3.679,0,0,0-3.5-3.8h-34.4a3.668,3.668,0,0,0-3.5,3.74v32.8a3.726,3.726,0,0,0,3.4,3.9h34.5a3.677,3.677,0,0,0,3.5-3.75v-0.05Zm-11.3-17.05a8.112,8.112,0,0,1-5.3,2.35,8.683,8.683,0,0,1,1.7,2.15,51.5,51.5,0,0,1,3.6,7.61h-5.1q-0.6-1.935-2.4-6.06a7.88,7.88,0,0,0-2.1-2.99,4.183,4.183,0,0,0-2.3-.45h-2l-2,9.5h-4.7l4.8-22.96h10.2a12.219,12.219,0,0,1,4.1.54,4.631,4.631,0,0,1,2.4,1.98,6.484,6.484,0,0,1,.9,3.5A6.752,6.752,0,0,1,10520.4,2447.59Zm-3.9-6.64a6.967,6.967,0,0,0-2.8-.37h-5.2l-1.2,6.17h2.5a17.562,17.562,0,0,0,5-.45,4.551,4.551,0,0,0,2-1.43,3.97,3.97,0,0,0,.7-2.04A2.227,2.227,0,0,0,10516.5,2440.95Z" transform="translate(-10487 -2428)"/>
</svg>
