<svg xmlns="http://www.w3.org/2000/svg" xmlns:xlink="http://www.w3.org/1999/xlink" width="100" height="100" viewBox="0 0 100 100">
  <metadata><?xpacket begin="﻿" id="W5M0MpCehiHzreSzNTczkc9d"?>
<x:xmpmeta xmlns:x="adobe:ns:meta/" x:xmptk="Adobe XMP Core 5.6-c140 79.160451, 2017/05/06-01:08:21        ">
   <rdf:RDF xmlns:rdf="http://www.w3.org/1999/02/22-rdf-syntax-ns#">
      <rdf:Description rdf:about=""/>
   </rdf:RDF>
</x:xmpmeta>
                                                                                                    
                                                                                                    
                                                                                                    
                                                                                                    
                                                                                                    
                                                                                                    
                                                                                                    
                                                                                                    
                                                                                                    
                                                                                                    
                                                                                                    
                                                                                                    
                                                                                                    
                                                                                                    
                                                                                                    
                                                                                                    
                                                                                                    
                                                                                                    
                                                                                                    
                                                                                                    
                           
<?xpacket end="w"?></metadata>
<defs>
    <style>
      .cls-1 {
        fill-rule: evenodd;
        fill: url(#linear-gradient);
      }
    </style>
    <linearGradient id="linear-gradient" x1="10894" y1="2523" x2="10894" y2="2423" gradientUnits="userSpaceOnUse">
      <stop offset="0" stop-color="#2486ed"/>
      <stop offset="1" stop-color="#38b8f2"/>
    </linearGradient>
  </defs>
  <path id="形状_1092" data-name="形状 1092" class="cls-1" d="M10882.5,2472.99a11.5,11.5,0,1,0,11.5-11.51A11.48,11.48,0,0,0,10882.5,2472.99Zm52.9,27.95a49.394,49.394,0,1,0-4.6,5.9Zm-41.4-71.24a43.322,43.322,0,0,1,42.9,37.5,54.793,54.793,0,0,0-27.3-16.61c-0.2-.13-0.4-0.25-0.6-0.38l-0.1.2a61.344,61.344,0,0,0-30.1.07l-0.1-.1a0.368,0.368,0,0,1-.2.19,55.033,55.033,0,0,0-27.4,16.62A43.322,43.322,0,0,1,10894,2429.7Zm23.1,43.29a23.1,23.1,0,1,1-36.8-18.56,56.864,56.864,0,0,1,27.4.01A23.02,23.02,0,0,1,10917.1,2472.99Zm-23.1,43.3a43.4,43.4,0,0,1-43.3-41.74,47.926,47.926,0,0,1,20.9-17.19,27.678,27.678,0,0,0-4.9,15.63,27.3,27.3,0,1,0,49.7-15.61,47.931,47.931,0,0,1,20.9,17.16A43.4,43.4,0,0,1,10894,2516.29Z" transform="translate(-10844 -2423)"/>
</svg>
