<svg xmlns="http://www.w3.org/2000/svg" xmlns:xlink="http://www.w3.org/1999/xlink" width="100" height="104" viewBox="0 0 100 104">
  <metadata><?xpacket begin="﻿" id="W5M0MpCehiHzreSzNTczkc9d"?>
<x:xmpmeta xmlns:x="adobe:ns:meta/" x:xmptk="Adobe XMP Core 5.6-c140 79.160451, 2017/05/06-01:08:21        ">
   <rdf:RDF xmlns:rdf="http://www.w3.org/1999/02/22-rdf-syntax-ns#">
      <rdf:Description rdf:about=""/>
   </rdf:RDF>
</x:xmpmeta>
                                                                                                    
                                                                                                    
                                                                                                    
                                                                                                    
                                                                                                    
                                                                                                    
                                                                                                    
                                                                                                    
                                                                                                    
                                                                                                    
                                                                                                    
                                                                                                    
                                                                                                    
                                                                                                    
                                                                                                    
                                                                                                    
                                                                                                    
                                                                                                    
                                                                                                    
                                                                                                    
                           
<?xpacket end="w"?></metadata>
<defs>
    <style>
      .cls-1 {
        fill-rule: evenodd;
        fill: url(#linear-gradient);
        filter: url(#filter);
      }
    </style>
    <linearGradient id="linear-gradient" x1="8089" y1="2601" x2="8089" y2="2499" gradientUnits="userSpaceOnUse">
      <stop offset="0" stop-color="#2486ed"/>
      <stop offset="1" stop-color="#38b8f2"/>
    </linearGradient>
    <filter id="filter" x="8040" y="2499" width="100" height="104" filterUnits="userSpaceOnUse">
      <feOffset result="offset" dx="2.427" dy="1.763" in="SourceAlpha"/>
      <feGaussianBlur result="blur"/>
      <feFlood result="flood" flood-color="#cee3fa"/>
      <feComposite result="composite" operator="in" in2="blur"/>
      <feBlend result="blend" in="SourceGraphic"/>
    </filter>
  </defs>
  <path id="形状_1092" data-name="形状 1092" class="cls-1" d="M8138,2588.06h-41.24a8.89,8.89,0,0,0-3.15-3.35v-7.31a39.37,39.37,0,1,0-9.22,0v7.31a8.89,8.89,0,0,0-3.15,3.35H8040v7.98h41.08a8.8,8.8,0,0,0,15.84,0H8138v-7.98Zm-51.63-47.11v10.49H8072.1a56.664,56.664,0,0,1-1.42-10.49h15.69Zm-15.69-5.24a56.779,56.779,0,0,1,1.42-10.49h14.27v10.49h-15.69Zm42.45,26.73a34.027,34.027,0,0,1-9.41,6.66,41.766,41.766,0,0,0,6.18-12.41h7.86A34.32,34.32,0,0,1,8113.13,2562.44Zm7.38-11h-9.23a61.286,61.286,0,0,0,1.29-10.49h10.45A33.531,33.531,0,0,1,8120.51,2551.44Zm2.51-15.73h-10.45a62.427,62.427,0,0,0-1.29-10.49h9.23A33.6,33.6,0,0,1,8123.02,2535.71Zm-9.89-21.48a33.852,33.852,0,0,1,4.63,5.74h-7.86a41.766,41.766,0,0,0-6.18-12.41A34.061,34.061,0,0,1,8113.13,2514.23Zm-21.51-9.61a12,12,0,0,1,3.55,1.76,22.434,22.434,0,0,1,6.03,6.83,37.575,37.575,0,0,1,3.16,6.76h-12.74v-15.35Zm0,20.6h14.28a56.779,56.779,0,0,1,1.42,10.49h-15.7v-10.49Zm0,15.73h15.7a56.664,56.664,0,0,1-1.42,10.49h-14.28v-10.49Zm12.74,15.74a37.921,37.921,0,0,1-3.15,6.76,22.514,22.514,0,0,1-6.04,6.84,11.673,11.673,0,0,1-3.54,1.75l-0.01-15.35h12.74Zm-21.53-50.31a12.187,12.187,0,0,1,3.54-1.76v15.35h-12.73a38.272,38.272,0,0,1,3.16-6.76A22.315,22.315,0,0,1,8082.83,2506.38Zm-17.96,7.85a34.21,34.21,0,0,1,9.41-6.67,41.766,41.766,0,0,0-6.18,12.41h-7.86A33.852,33.852,0,0,1,8064.87,2514.23Zm-7.38,10.99h9.23a62.427,62.427,0,0,0-1.29,10.49h-10.45A33.6,33.6,0,0,1,8057.49,2525.22Zm-2.51,15.73h10.45a63.345,63.345,0,0,0,1.29,10.49h-9.23A33.531,33.531,0,0,1,8054.98,2540.95Zm9.89,21.49a34.32,34.32,0,0,1-4.63-5.75h7.86a41.766,41.766,0,0,0,6.18,12.41A34.027,34.027,0,0,1,8064.87,2562.44Zm11.93,1.01a37.941,37.941,0,0,1-3.16-6.76h12.73v15.35a11.787,11.787,0,0,1-3.54-1.75A22.6,22.6,0,0,1,8076.8,2563.45Z" transform="translate(-8040 -2499)"/>
</svg>
