<?xml version="1.0" encoding="utf-8"?>
<!-- Generator: Adobe Illustrator 22.1.0, SVG Export Plug-In . SVG Version: 6.00 Build 0)  -->
<svg version="1.1" id="图层_1" xmlns="http://www.w3.org/2000/svg" xmlns:xlink="http://www.w3.org/1999/xlink" x="0px" y="0px"
	 viewBox="0 0 97 92" style="enable-background:new 0 0 97 92;" xml:space="preserve">
<style type="text/css">
	.st0{fill:url(#形状_1091_1_);}
</style>
<linearGradient id="形状_1091_1_" gradientUnits="userSpaceOnUse" x1="9147.501" y1="-1940.1102" x2="9147.501" y2="-1850.1102" gradientTransform="matrix(1 0 0 -1 -9100 -1850.1102)">
	<stop  offset="0" style="stop-color:#2486ED"/>
	<stop  offset="1" style="stop-color:#38B8F2"/>
</linearGradient>
<path id="形状_1091" class="st0" d="M41,45.6L41,45.6l13,0V32.4H41V45.6z M86,0H8.6C5.3,0,0.1,2.3,0,9.2l0,60C0,72.5,1.4,78,9,78
	h77.3c6.8,0,8.6-5.5,8.6-8.8l0.1-60C95.2,1.2,89.3,0,86,0z M76.3,30h-6.9v6.9h6.9v4.3h-6.9V48h6.9v4.3h-6.9v8.9h-8.8V68h-4.2v-6.8
	h-6.8V68h-4.2v-6.8h-6.8V68h-4.2v-6.8h-8.8v-8.9h-6.9V48h6.9v-6.9h-6.9v-4.3h6.9V30h-6.9v-4.3h6.9v-8.9h8.8V10h4.2v6.8h6.8V10h4.2
	v6.8h6.8V10h4.2v6.8h8.8v8.9h6.9V30z M68.2,84H26.7c-1.6,0-3,1.4-3,3l0,0c0,1.6,1.3,3,3,3h41.5c1.7,0,3-1.3,3-3S69.9,84,68.2,84z
	 M29.8,56.9h35.3V21.1H29.8V56.9z M36.8,28.2h21.5v21.7H36.8V28.2z"/>
</svg>
