<?xml version="1.0" encoding="utf-8"?>
<!-- Generator: Adobe Illustrator 22.1.0, SVG Export Plug-In . SVG Version: 6.00 Build 0)  -->
<svg version="1.1" id="图层_1" xmlns="http://www.w3.org/2000/svg" xmlns:xlink="http://www.w3.org/1999/xlink" x="0px" y="0px"
	 viewBox="0 0 93 84" style="enable-background:new 0 0 93 84;" xml:space="preserve">
<style type="text/css">
	.st0{fill:url(#形状_1954_1_);}
</style>
<linearGradient id="形状_1954_1_" gradientUnits="userSpaceOnUse" x1="8801.501" y1="-1944.1102" x2="8801.501" y2="-1862.1101" gradientTransform="matrix(1 0 0 -1 -8756 -1862.1102)">
	<stop  offset="0" style="stop-color:#2486ED"/>
	<stop  offset="1" style="stop-color:#38B8F2"/>
</linearGradient>
<path id="形状_1954" class="st0" d="M10.7,40.7h11.2c1,0,1.9-0.8,1.9-1.8c0,0,0,0,0,0c0-1.1-0.9-1.9-1.9-1.9H10.7
	c-1,0-1.9,0.9-1.9,1.9c0,0,0,0,0,0C8.8,39.9,9.6,40.7,10.7,40.7C10.7,40.7,10.7,40.7,10.7,40.7z M10.7,33.7h11.2
	c1,0,1.9-0.8,1.9-1.8c0,0,0,0,0,0c0-1.1-0.9-1.9-1.9-1.9c0,0,0,0,0,0H10.7c-1,0-1.9,0.8-1.9,1.9c0,0,0,0,0,0.1
	C8.8,32.9,9.6,33.7,10.7,33.7C10.7,33.8,10.7,33.8,10.7,33.7z M87.8,9.6h-23V3.2c0-1.8-1.4-3.2-3.2-3.2H29.4c-1.7,0-3.2,1.4-3.2,3.2
	c0,0,0,0,0,0v6.4h-23C1.5,9.6,0,11,0,12.8v61.6c0,1.7,1.5,3.1,3.2,3.1h23v1.3c0,1.7,1.4,3.2,3.2,3.2c0,0,0,0,0,0h32.2
	c1.8,0,3.2-1.4,3.2-3.2v-1.3h23c1.7,0,3.2-1.4,3.2-3.1V12.8C91,11,89.6,9.6,87.8,9.6C87.8,9.6,87.8,9.6,87.8,9.6L87.8,9.6L87.8,9.6z
	 M26.2,69.3H6.4V16.8h19.8V69.3L26.2,69.3z M58.4,73.9H32.6V7.2h25.8V73.9z M84.6,69.3H64.8V16.8h19.8V69.3L84.6,69.3z M10.7,26.8
	h11.2c1,0,1.9-0.8,1.9-1.8c0,0,0,0,0,0c0-1.1-0.9-1.9-1.9-1.9c0,0,0,0,0,0H10.7c-1,0-1.9,0.8-1.9,1.9c0,0,0,0,0,0.1
	C8.8,26,9.6,26.8,10.7,26.8C10.7,26.8,10.7,26.8,10.7,26.8L10.7,26.8z M21.4,53.7c-2.8-2.8-7.3-2.8-10.1,0c0,0,0,0,0,0
	c-2.7,2.7-2.8,7.1-0.1,9.8l0.1,0.1c1.3,1.3,3.2,2.1,5,2.1c1.9,0,3.7-0.7,5-2.1c2.8-2.7,2.8-7.1,0.1-9.8c0,0,0,0,0,0L21.4,53.7z
	 M18.6,61c-1.3,1.3-3.3,1.3-4.6,0.1c0,0,0,0-0.1-0.1l-0.1,0c-0.6-0.6-0.9-1.4-0.9-2.3c0-0.9,0.3-1.7,1-2.3l0,0.1
	c1.2-1.3,3.1-1.4,4.4-0.2c0.1,0.1,0.1,0.1,0.2,0.2l0.1,0c0.6,0.6,0.9,1.4,0.9,2.2C19.6,59.5,19.3,60.4,18.6,61L18.6,61L18.6,61z
	 M69.1,33.7h11.2c1,0,1.9-0.8,1.9-1.8c0,0,0,0,0-0.1c0-1-0.8-1.9-1.9-1.9c0,0,0,0,0,0H69.1c-1,0-1.9,0.8-1.9,1.9c0,0,0,0,0,0.1
	C67.2,32.9,68,33.8,69.1,33.7C69.1,33.8,69.1,33.8,69.1,33.7L69.1,33.7z M69.1,40.7h11.2c1,0,1.9-0.8,1.9-1.8c0,0,0,0,0,0
	c0-1.1-0.9-1.9-1.9-1.9H69.1c-1.1,0-1.9,0.9-1.9,1.9C67.2,39.9,68,40.7,69.1,40.7C69.1,40.7,69.1,40.7,69.1,40.7L69.1,40.7z
	 M69.1,26.8h11.2c1,0,1.9-0.8,1.9-1.8c0,0,0,0,0-0.1c0-1-0.8-1.9-1.9-1.9c0,0,0,0,0,0H69.1c-1,0-1.9,0.8-1.9,1.9c0,0,0,0,0,0.1
	C67.2,26,68,26.8,69.1,26.8C69.1,26.8,69.1,26.8,69.1,26.8L69.1,26.8z M38.6,37.1h13.8c1,0,1.9-0.9,1.9-1.9s-0.9-1.9-1.9-1.9H38.6
	c-1,0-1.9,0.8-1.9,1.9C36.7,36.3,37.6,37.1,38.6,37.1L38.6,37.1z M79.8,53.7c-2.8-2.8-7.3-2.8-10.1,0c0,0,0,0,0,0
	c-1.3,1.3-2.1,3.1-2.1,4.9c0,1.8,0.7,3.6,2,4.9l0.1,0.1c1.3,1.3,3.1,2.1,5,2.1c1.9,0,3.7-0.7,5.1-2.1c1.3-1.3,2.1-3.1,2.1-5
	C81.9,56.8,81.2,55.1,79.8,53.7L79.8,53.7z M77.1,61c-0.6,0.6-1.5,1-2.3,1c-0.9,0-1.7-0.4-2.3-1l-0.1,0c-0.6-0.6-0.9-1.4-0.9-2.3
	c0-0.9,0.4-1.7,1-2.3v0.1c0.6-0.6,1.4-1,2.3-1c0.9,0,1.7,0.4,2.3,1l0.1,0c0.6,0.6,0.9,1.4,0.9,2.2C78.1,59.5,77.7,60.4,77.1,61
	L77.1,61L77.1,61z M38.6,20h13.8c1,0,1.9-0.8,1.9-1.9c0-1-0.8-1.9-1.9-1.9c0,0,0,0-0.1,0H38.6c-1,0-1.9,0.8-1.9,1.8c0,0,0,0.1,0,0.1
	C36.7,19.2,37.6,20.1,38.6,20C38.6,20.1,38.6,20.1,38.6,20L38.6,20z M38.6,28.6h13.8c1.1,0,1.9-0.9,1.9-1.9c0-1-0.9-1.9-1.9-1.8
	c0,0,0,0,0,0H38.6c-1,0-1.9,0.8-1.9,1.8c0,0,0,0,0,0C36.7,27.7,37.6,28.6,38.6,28.6L38.6,28.6z M51.5,54.3l-0.1,0
	c-1.5-1.6-3.7-2.5-5.9-2.5c-2.2,0-4.2,0.8-5.8,2.3l-0.1,0.1c-3.2,3.1-3.3,8.2-0.2,11.4c0.1,0.1,0.1,0.1,0.2,0.2
	c1.6,1.6,3.7,2.4,5.9,2.4c2.2,0,4.3-0.9,5.9-2.4c1.6-1.5,2.5-3.6,2.5-5.8C53.9,57.9,53,55.9,51.5,54.3L51.5,54.3L51.5,54.3z
	 M48.7,63.2c-1.7,1.8-4.6,1.8-6.3,0h0l0,0c-1.7-1.6-1.8-4.3-0.2-6c0.1-0.1,0.1-0.1,0.2-0.2l0-0.1c0.8-0.8,2-1.3,3.1-1.2
	c1.2,0,2.3,0.5,3.2,1.3l0.1,0c0.8,0.8,1.3,1.9,1.2,3.1C50,61.2,49.5,62.4,48.7,63.2L48.7,63.2z"/>
</svg>
