<svg xmlns="http://www.w3.org/2000/svg" xmlns:xlink="http://www.w3.org/1999/xlink" width="105" height="93" viewBox="0 0 105 93">
  <metadata><?xpacket begin="﻿" id="W5M0MpCehiHzreSzNTczkc9d"?>
<x:xmpmeta xmlns:x="adobe:ns:meta/" x:xmptk="Adobe XMP Core 5.6-c140 79.160451, 2017/05/06-01:08:21        ">
   <rdf:RDF xmlns:rdf="http://www.w3.org/1999/02/22-rdf-syntax-ns#">
      <rdf:Description rdf:about=""/>
   </rdf:RDF>
</x:xmpmeta>
                                                                                                    
                                                                                                    
                                                                                                    
                                                                                                    
                                                                                                    
                                                                                                    
                                                                                                    
                                                                                                    
                                                                                                    
                                                                                                    
                                                                                                    
                                                                                                    
                                                                                                    
                                                                                                    
                                                                                                    
                                                                                                    
                                                                                                    
                                                                                                    
                                                                                                    
                                                                                                    
                           
<?xpacket end="w"?></metadata>
<defs>
    <style>
      .cls-1 {
        fill-rule: evenodd;
        fill: url(#linear-gradient);
        filter: url(#filter);
      }
    </style>
    <linearGradient id="linear-gradient" x1="8446.5" y1="2033" x2="8446.5" y2="1942" gradientUnits="userSpaceOnUse">
      <stop offset="0" stop-color="#2486ed"/>
      <stop offset="1" stop-color="#38b8f2"/>
    </linearGradient>
    <filter id="filter" x="8395" y="1942" width="105" height="93" filterUnits="userSpaceOnUse">
      <feOffset result="offset" dx="2.427" dy="1.763" in="SourceAlpha"/>
      <feGaussianBlur result="blur"/>
      <feFlood result="flood" flood-color="#cee3fa"/>
      <feComposite result="composite" operator="in" in2="blur"/>
      <feBlend result="blend" in="SourceGraphic"/>
    </filter>
  </defs>
  <path id="形状_1092" data-name="形状 1092" class="cls-1" d="M8405.31,1991.35l0.2,2.28c-3.5,1.05-5.81,2.87-5.81,4.94,0,3.26,5.72,5.9,12.79,5.9s12.79-2.64,12.79-5.9c0-2.07-2.31-3.89-5.81-4.94l0.2-2.28c6.08,1.41,10.32,4.57,10.32,8.23,0,4.99-7.84,9.04-17.5,9.04s-17.49-4.05-17.49-9.04c0-3.67,4.23-6.83,10.32-8.24Zm68.01,0,0.2,2.28c-3.5,1.05-5.81,2.87-5.81,4.94,0,3.26,5.72,5.9,12.79,5.9s12.79-2.64,12.79-5.9c0-2.07-2.31-3.89-5.81-4.94l0.2-2.28c6.08,1.41,10.32,4.57,10.32,8.23,0,4.99-7.83,9.04-17.5,9.04s-17.5-4.05-17.5-9.04c0-3.66,4.24-6.82,10.32-8.23h0Zm-37.46,16.06,0.29,3.38c-5.19,1.56-8.61,4.26-8.61,7.33,0,4.82,8.48,8.73,18.96,8.73s18.96-3.91,18.96-8.73c0-3.07-3.43-5.77-8.62-7.33l0.29-3.38c9.02,2.09,15.29,6.77,15.29,12.2,0,7.4-11.61,13.39-25.92,13.39s-25.93-5.99-25.93-13.39c0-5.43,6.27-10.11,15.29-12.2h0Zm10.64-43.58a10.92,10.92,0,1,1-.64-21.83h0.64A10.919,10.919,0,0,1,8446.5,1963.83Zm-0.05,1.59a25.671,25.671,0,0,1,13.31,4.05,197.109,197.109,0,0,1-.31,19.86c-0.56,5.71-3.3,6.08-3.72,10.89q-0.435,4.8-3.75,19.39h-10.91c-2.27-9.72-3.52-16.19-3.81-19.39-0.43-4.81-3.16-5.18-3.73-10.89a197.981,197.981,0,0,1-.3-19.86A25.348,25.348,0,0,1,8446.45,1965.42Zm34.05-3.49a7.367,7.367,0,1,1-.37-14.73h0.37a7.37,7.37,0,1,1,0,14.74v-0.01Zm-0.03,1.08a17.241,17.241,0,0,1,8.98,2.73,130.248,130.248,0,0,1-.21,13.4c-0.37,3.86-2.22,4.11-2.51,7.35a124.965,124.965,0,0,1-2.53,13.09h-7.36a118.207,118.207,0,0,1-2.57-13.09c-0.29-3.24-2.14-3.49-2.52-7.35q-0.375-3.855-.2-13.4a17.044,17.044,0,0,1,8.92-2.73h0Zm-67.98-1.08a7.367,7.367,0,1,1-.36-14.73h0.36a7.37,7.37,0,1,1,0,14.74v-0.01Zm-0.03,1.08a17.241,17.241,0,0,1,8.98,2.73q0.18,9.54-.2,13.4c-0.38,3.86-2.23,4.11-2.52,7.35a122.255,122.255,0,0,1-2.53,13.09h-7.36a120.735,120.735,0,0,1-2.57-13.09c-0.29-3.24-2.14-3.49-2.52-7.35q-0.375-3.855-.2-13.4a17.044,17.044,0,0,1,8.92-2.73h0Z" transform="translate(-8395 -1942)"/>
</svg>
