<?xml version="1.0" encoding="utf-8"?>
<!-- Generator: Adobe Illustrator 22.1.0, SVG Export Plug-In . SVG Version: 6.00 Build 0)  -->
<svg version="1.1" id="图层_1" xmlns="http://www.w3.org/2000/svg" xmlns:xlink="http://www.w3.org/1999/xlink" x="0px" y="0px"
	 viewBox="0 0 105 93" style="enable-background:new 0 0 105 93;" xml:space="preserve">
<style type="text/css">
	.st0{fill:url(#形状_1092_拷贝_1_);}
</style>
<linearGradient id="形状_1092_拷贝_1_" gradientUnits="userSpaceOnUse" x1="9176.501" y1="-2502.1104" x2="9176.501" y2="-2411.1104" gradientTransform="matrix(1 0 0 -1 -9125 -2411.1104)">
	<stop  offset="0" style="stop-color:#2486ED"/>
	<stop  offset="1" style="stop-color:#38B8F2"/>
</linearGradient>
<path id="形状_1092_拷贝" class="st0" d="M10.3,49.3l0.2,2.3c-3.5,1.1-5.8,2.9-5.8,4.9c0,3.3,5.7,5.9,12.8,5.9
	s12.8-2.6,12.8-5.9c0-2.1-2.3-3.9-5.8-4.9l0.2-2.3c6.1,1.4,10.3,4.6,10.3,8.2c0,5-7.8,9-17.5,9S0,62.6,0,57.6
	C0,53.9,4.2,50.8,10.3,49.3L10.3,49.3L10.3,49.3z M78.3,49.3l0.2,2.3c-3.5,1.1-5.8,2.9-5.8,4.9c0,3.3,5.7,5.9,12.8,5.9
	s12.8-2.6,12.8-5.9c0-2.1-2.3-3.9-5.8-4.9l0.2-2.3c6.1,1.4,10.3,4.6,10.3,8.2c0,5-7.8,9-17.5,9S68,62.6,68,57.6
	C68,53.9,72.2,50.8,78.3,49.3L78.3,49.3L78.3,49.3z M40.9,65.4l0.3,3.4c-5.2,1.6-8.6,4.2-8.6,7.3c0,4.8,8.5,8.7,19,8.7
	s19-3.9,19-8.7c0-3.1-3.4-5.8-8.6-7.3l0.3-3.4c9,2.1,15.3,6.8,15.3,12.2C77.4,85,65.8,91,51.5,91s-25.9-6-25.9-13.4
	C25.6,72.2,31.8,67.5,40.9,65.4L40.9,65.4z M51.5,21.8c-6,0.2-11.1-4.5-11.3-10.5C40,5.3,44.7,0.2,50.7,0c0.1,0,0.1,0,0.2,0h0.6
	c6,0,10.9,4.9,10.9,10.9C62.4,17,57.5,21.8,51.5,21.8C51.5,21.8,51.5,21.8,51.5,21.8L51.5,21.8z M51.4,23.4
	c4.7,0.1,9.3,1.5,13.3,4.1c0.2,6.6,0.1,13.2-0.3,19.9c-0.6,5.7-3.3,6.1-3.7,10.9c-0.3,3.2-1.5,9.7-3.8,19.4H46.1
	c-2.3-9.7-3.5-16.2-3.8-19.4c-0.4-4.8-3.2-5.2-3.7-10.9c-0.4-6.6-0.5-13.2-0.3-19.9C42.2,24.9,46.8,23.5,51.4,23.4L51.4,23.4z
	 M85.5,19.9c-4.1,0.1-7.4-3.1-7.5-7.2s3.1-7.4,7.2-7.5l0,0c0.1,0,0.2,0,0.4,0c4.1,0,7.4,3.3,7.4,7.4C92.9,16.6,89.6,19.9,85.5,19.9
	C85.5,19.9,85.5,19.9,85.5,19.9L85.5,19.9z M85.5,21c3.2,0.1,6.3,1,9,2.7c0.1,6.4,0.1,10.8-0.2,13.4c-0.4,3.9-2.2,4.1-2.5,7.4
	c-0.6,4.4-1.5,8.8-2.5,13.1h-7.4c-1.1-4.3-2-8.7-2.6-13.1c-0.3-3.2-2.1-3.5-2.5-7.4c-0.2-2.6-0.3-7-0.2-13.4
	C79.2,22,82.3,21.1,85.5,21L85.5,21z M17.5,19.9c-4.1,0.1-7.4-3.1-7.5-7.2s3.1-7.4,7.2-7.5l0,0c0.1,0,0.2,0,0.4,0
	c4.1,0,7.4,3.3,7.4,7.4C24.9,16.6,21.6,19.9,17.5,19.9C17.5,19.9,17.5,19.9,17.5,19.9L17.5,19.9z M17.5,21c3.2,0.1,6.3,1,9,2.7
	c0.1,6.4,0.1,10.8-0.2,13.4c-0.4,3.9-2.2,4.1-2.5,7.4c-0.6,4.4-1.4,8.8-2.5,13.1h-7.4c-1.1-4.3-2-8.7-2.6-13.1
	C11,41.3,9.1,41,8.7,37.1c-0.2-2.6-0.3-7-0.2-13.4C11.2,22,14.3,21.1,17.5,21L17.5,21z"/>
</svg>
