<?xml version="1.0" encoding="utf-8"?>
<!-- Generator: Adobe Illustrator 22.1.0, SVG Export Plug-In . SVG Version: 6.00 Build 0)  -->
<svg version="1.1" id="图层_1" xmlns="http://www.w3.org/2000/svg" xmlns:xlink="http://www.w3.org/1999/xlink" x="0px" y="0px"
	 viewBox="0 0 100 100" style="enable-background:new 0 0 100 100;" xml:space="preserve">
<style type="text/css">
	.st0{fill:url(#形状_1092_1_);}
</style>
<linearGradient id="形状_1092_1_" gradientUnits="userSpaceOnUse" x1="8103" y1="-1936.1102" x2="8103" y2="-1838.1102" gradientTransform="matrix(1 0 0 -1 -8054 -1838.1102)">
	<stop  offset="0" style="stop-color:#2486ED"/>
	<stop  offset="1" style="stop-color:#38B8F2"/>
</linearGradient>
<path id="形状_1092" class="st0" d="M49,0C21.9,0,0,21.9,0,49s21.9,49,49,49s49-21.9,49-49S76.1,0,49,0L49,0L49,0z M34,51.4
	c1.4,2.1,3.3,3.8,5.5,4.9l0.1,8c-2.2-0.6-4.2-1.6-6.1-2.8c-3.7-2.5-6.5-6.2-8-10.4c-0.8-2.2-1.2-4.5-1.1-6.8c0-2.8,0.5-5.6,1.6-8.1
	c1-2.5,2.6-4.8,4.5-6.7c1.9-1.9,4.2-3.4,6.6-4.5c5.2-2.2,11.1-2.2,16.3,0c2.5,1.1,4.7,2.6,6.6,4.5c1.9,1.9,3.4,4.2,4.5,6.7
	c1.1,2.6,1.7,5.3,1.6,8.1c0,1.7-0.2,3.3-0.6,4.9l-6.9-4.5v-0.4c0-1.8-0.3-3.6-1.1-5.2c-1.4-3.2-3.9-5.8-7.1-7.2
	c-1.6-0.7-3.4-1.1-5.2-1.1c-1.8,0-3.6,0.3-5.3,1.1c-3.2,1.4-5.8,3.9-7.2,7.2C31.2,43,31.6,47.6,34,51.4L34,51.4L34,51.4z M69.8,61.4
	c-1.3,0.1-2.8,0.2-4.4,0.4c-1.7,0.2-3.4,0.6-5,1L67,73.7c0.6,1.1,0.7,2.3,0.3,3.5c-0.3,1.2-1.1,2.2-2.2,2.7
	c-1.1,0.6-2.3,0.7-3.5,0.3c-1.2-0.3-2.1-1.1-2.7-2.2l-5.5-12.3c-1.4,0.8-2.8,1.8-4,2.8c-1.2,1-2.2,1.9-3.1,2.8c-1,1-1.8,2-2.7,3
	l-0.2-36.7l30.7,23.7C72.6,61.2,71.2,61.2,69.8,61.4L69.8,61.4L69.8,61.4z"/>
</svg>
