<svg xmlns="http://www.w3.org/2000/svg" width="166" height="48" viewBox="0 0 166 48">
  <metadata><?xpacket begin="﻿" id="W5M0MpCehiHzreSzNTczkc9d"?>
<x:xmpmeta xmlns:x="adobe:ns:meta/" x:xmptk="Adobe XMP Core 5.6-c138 79.159824, 2016/09/14-01:09:01        ">
   <rdf:RDF xmlns:rdf="http://www.w3.org/1999/02/22-rdf-syntax-ns#">
      <rdf:Description rdf:about=""/>
   </rdf:RDF>
</x:xmpmeta>
                                                                                                    
                                                                                                    
                                                                                                    
                                                                                                    
                                                                                                    
                                                                                                    
                                                                                                    
                                                                                                    
                                                                                                    
                                                                                                    
                                                                                                    
                                                                                                    
                                                                                                    
                                                                                                    
                                                                                                    
                                                                                                    
                                                                                                    
                                                                                                    
                                                                                                    
                                                                                                    
                           
<?xpacket end="w"?></metadata>
<defs>
    <style>
      .cls-1 {
        fill: #fff;
        fill-rule: evenodd;
      }
    </style>
  </defs>
  <path id="形状_1" data-name="形状 1" class="cls-1" d="M0,6.264C6.266-1.549,24.716-3.59,23.5,9.207,22.486,19.935,7.954,25.1,4.86,19.72c-5.025-8.732,27.079-22.3,23.819,2.08H24.63C31.354,1.347,5.381,8.637,7.047,16.709c1.062,5.134,16,2.9,15.872-8C22.8-.874,10.49.721,5.2,6.269ZM36.155,21.846H33.046l1.138-5.185c0.1-.415.722-2.576,0.109-3.068a5.288,5.288,0,0,0-5.2.238l0.249-1.142a9.606,9.606,0,0,1,5.4-1.511,3.121,3.121,0,0,1,2.57.968,3.363,3.363,0,0,1,.348,2.917Zm5.679-3.167c0.508-2.178,4.5-1.905,4.969-1.943l-0.681,3.012c-0.314.224-4.6,0.3-4.288-1.069m3.853,3.167h3.067l1.576-7.1a2.476,2.476,0,0,0-.712-2.728,6.317,6.317,0,0,0-4.112-.868,11.953,11.953,0,0,0-4.659,1.511l-0.255,1.236a7.339,7.339,0,0,1,5.037-1.037c2.342,0.21,1.744,1.483,1.613,2.062l-0.009.053c-1.541.058-7.808-.341-8.72,3.836-0.485,2.207,1.783,3.039,2.813,3.039a13.134,13.134,0,0,0,4.6-1.162Zm8.341,0h-2.94L54.277,7.625h2.94Zm7.765-3.575,4.534-7.041h3.293L59.957,25.86H56.621l3.745-5.426-2.937-9.2h2.137Zm14.191-5.633a6.979,6.979,0,0,1,1.96.847l0.263-1.1a8.51,8.51,0,0,0-4.24-1.153c-2.1,0-3.613.566-4.179,1.821-0.738,1.637.514,3.143,2.105,3.512,1.766,0.412,2.564,1.117,2.4,1.97-0.166.877-2.308,1.587-3.367,1.587a5.836,5.836,0,0,1-5.508-3.267l-0.756,1.021s2.207,3.811,6.376,3.972c2.615,0.106,4.456-.377,5.644-1.922a2.724,2.724,0,0,0,.126-3.644c-1.7-1.537-4.81-.568-4.519-2.523,0.139-.9,2.019-1.527,3.694-1.12m7.233,5.633,4.534-7.041h3.295L81.469,25.86H78.134l3.654-5.426-2.933-9.2h2.133Zm14.194-5.633a6.966,6.966,0,0,1,1.958.847l0.263-1.1A8.516,8.516,0,0,0,95.39,11.23c-2.1,0-3.61.566-4.173,1.821-0.743,1.637.51,3.143,2.1,3.512,1.767,0.412,2.565,1.117,2.4,1.97-0.171.877-2.31,1.587-3.367,1.587a5.835,5.835,0,0,1-5.507-3.267l-0.759,1.021s2.207,3.811,6.379,3.972c2.613,0.106,4.455-.377,5.64-1.922,1.205-1.567.751-3.084,0.127-3.644-1.7-1.537-4.81-.568-4.517-2.523,0.136-.9,2.017-1.527,3.694-1.12m27.28,12.911a15.774,15.774,0,0,0-.56-3.191q4.05,0.151,4.392-2.635l0.564-4.051h-1.458a16.4,16.4,0,0,1-5.774,6.407,27.51,27.51,0,0,1-8.118,3.723q-0.861-1.039-1.83-2.38a24.864,24.864,0,0,0,7.059-2.736,14.721,14.721,0,0,0,5.344-5.014h-2.417a17.391,17.391,0,0,1-5.058,4.343,26.853,26.853,0,0,1-6.022,2.6q-0.7-.937-1.673-2.431a16.8,16.8,0,0,0,8.981-4.508h-2.364a29.97,29.97,0,0,1-5.751,2.633q-0.665-1.012-1.638-2.33a24.054,24.054,0,0,0,8.256-4.356h-0.8a25.367,25.367,0,0,0-2.587.153q0.348-1.418.483-2.381l0.869-6.23a23.771,23.771,0,0,0,.19-2.431q1.512,0.153,2.543.152h11.622q1.082,0,2.587-.152-0.358,1.494-.491,2.431l-0.867,6.23a22.424,22.424,0,0,0-.183,2.381q-1.539-.154-2.544-0.153h-6.792a10.008,10.008,0,0,1-1.607,1.419h10.564q1.283,0,3.041-.153-0.394,1.749-.519,2.635l-0.559,4a6.811,6.811,0,0,1-1.972,4.318,8.068,8.068,0,0,1-4.906,1.71M116.74,8.985H127.2l0.2-1.417H116.937Zm0.565-4.05H127.77l0.2-1.42H117.5Zm24.163,0.909,0.425-3.038q1.476,0.052,2.6.1h6.137a5.523,5.523,0,0,1,.881.913,34.318,34.318,0,0,1-3.456,10.332,41.63,41.63,0,0,1,2.251,4.052l-2.582,2.28q-0.787-1.57-1.56-3.241a17.323,17.323,0,0,1-5.521,5.317,16.783,16.783,0,0,0-1.4-2.989,15.5,15.5,0,0,0,5.437-5.063q-1.569-2.636-3.283-5.673l2.869-1.469q1.194,1.9,2.218,3.95a54,54,0,0,0,1.582-5.571H144.1q-1.139.05-2.63,0.1M146.717,25.9a23.227,23.227,0,0,0-1.293-2.987,12.979,12.979,0,0,0,8.024-5.128,21.447,21.447,0,0,0,3.334-9.56l0.345-2.482q1.724,0.279,3.093.557a30.854,30.854,0,0,1-2.179,8.762H160q-0.346,1.216-.456,1.824L158.818,22.1a0.5,0.5,0,0,0,.52.608h0.8a1.259,1.259,0,0,0,1.14-1.038,9.73,9.73,0,0,0,.342-2,13.114,13.114,0,0,0,2.856,1.164,15.585,15.585,0,0,1-1.12,3.255,3.016,3.016,0,0,1-2.785,1.66h-2.667a4.758,4.758,0,0,1-1.788-.254,1.056,1.056,0,0,1-.616-1.267l0.8-5.723q-2.761,5.368-9.585,7.394m3.68-9.42c0.288-1.35.469-2.28,0.541-2.787l1.314-9.42q0.1-.76.23-2.736,2.317,0.152,3,.153h7.447c0.268,0,.578-0.013.935-0.039s0.956-.063,1.8-0.114c-0.268,1.2-.445,2.095-0.525,2.685l-1.294,9.269q-0.108.758-.231,2.735h-3.32q0.428-1.974.532-2.735l1.252-8.965h-6.842l-1.28,9.167c-0.071.506-.149,1.437-0.238,2.787H150.4ZM29.479,36.392a16.6,16.6,0,0,1-1.91,1.69,1.8,1.8,0,0,1-.944.357,0.525,0.525,0,0,1-.532-0.428,1.62,1.62,0,0,1-.082-0.678,0.45,0.45,0,0,1,.2-0.321q0.075-.023.465-0.2t0.936-.5q0.546-.321,1.2-0.773a10.229,10.229,0,0,0,1.294-1.071q0.409-.4.715-0.7a3.761,3.761,0,0,0,.47-0.536,4.349,4.349,0,0,0,.628-1.047,0.918,0.918,0,0,1,.394-0.571q0.331,0,.23.523A6.658,6.658,0,0,1,30.6,35.225a1,1,0,0,1,.3.881,2.305,2.305,0,0,1-.116.357,16,16,0,0,0-.754,2.928l-0.977,5.427a9.553,9.553,0,0,1-.547,1.976,1.138,1.138,0,0,1-.317.476,0.744,0.744,0,0,1-.351.167,0.325,0.325,0,0,1-.289-0.1,0.469,0.469,0,0,1-.125-0.333,7.81,7.81,0,0,1,.159-1.19q0.078-.4.224-1.035t0.367-1.535q0.463-1.785.808-3.571T29.479,36.392Zm5.392,3.666a0.508,0.508,0,0,1,.477.4,1.426,1.426,0,0,1,.078.762,1.108,1.108,0,0,1-.356.619q-0.146.143-.551,0.464t-1.069.821q-1.328,1-1.931,1.428a2.156,2.156,0,0,1-.768.429,0.12,0.12,0,0,1-.133-0.167,1.149,1.149,0,0,1,.352-0.476q0.635-.595,1.1-1.059t0.8-.845a8.128,8.128,0,0,0,1.1-1.547A1.238,1.238,0,0,1,34.872,40.057Zm0.613-5.379a11.025,11.025,0,0,1-1.317,2.047,7.031,7.031,0,0,1-1.076,1.166,1.2,1.2,0,0,1-.4.226,0.167,0.167,0,0,1-.194-0.036,0.268,0.268,0,0,1-.006-0.214,0.938,0.938,0,0,1,.166-0.309q1.116-1.618,1.61-2.523a5.419,5.419,0,0,0,.595-1.428,4.321,4.321,0,0,0,.1-0.809,2.327,2.327,0,0,1,.028-0.452,0.363,0.363,0,0,1,.286-0.381,0.547,0.547,0,0,1,.254.1,1.292,1.292,0,0,1,.3.262,1.1,1.1,0,0,1,.217.4,1.077,1.077,0,0,1,.017.523,2.051,2.051,0,0,1-.051.2c-0.022.071-.048,0.147-0.079,0.226q1.362,0.048,2.689.036t2.444-.047q1.118-.035,1.934-0.1l1.151-.083a1.225,1.225,0,0,1,.665.167,0.991,0.991,0,0,1,.381.417,0.76,0.76,0,0,1,.055.512,0.689,0.689,0,0,1-.331.429q-0.48.405-.955,0.845t-0.9.916a2.369,2.369,0,0,1-1.338.928q-0.237,0-.209-0.143a2.257,2.257,0,0,1,.4-0.619A9.8,9.8,0,0,0,43.2,35.106a0.32,0.32,0,0,0-.21-0.381,14.651,14.651,0,0,0-2.271-.179Q38.926,34.488,35.485,34.678Zm3.792,3.38a1.307,1.307,0,0,1-.182.452,7.71,7.71,0,0,0-.633,1.809q-0.315,1.262-1.054,5.094a7.319,7.319,0,0,1-.527,1.75,0.943,0.943,0,0,1-.576.654,0.5,0.5,0,0,1-.332-0.238,1.911,1.911,0,0,1,.015-1.178q0.181-.94.6-2.606,0.208-.833.39-1.654t0.339-1.63q0.151-.785.241-1.309t0.125-.833q0.036-.309.063-0.571a0.864,0.864,0,0,1,.718-0.9A0.619,0.619,0,0,1,38.8,37a1.071,1.071,0,0,1,.29.274,1.139,1.139,0,0,1,.177.369A0.912,0.912,0,0,1,39.277,38.058Zm5.339,6.022a1.209,1.209,0,0,1-.707.476,2.9,2.9,0,0,1-1.02.262,1.1,1.1,0,0,1-.649-0.19,3.2,3.2,0,0,1-.6-0.726,13.76,13.76,0,0,1-.721-1.226q-0.172-.333-0.332-0.666T40.3,41.343a2.287,2.287,0,0,1-.217-0.833,0.245,0.245,0,0,1,.247-0.238,0.6,0.6,0,0,1,.425.309,10.228,10.228,0,0,0,3.4,3.07A0.647,0.647,0,0,1,44.616,44.08ZM36.305,48a0.651,0.651,0,0,1-.474-0.306,1.9,1.9,0,0,1-.022-1.328c0.122-.632.324-1.512,0.6-2.616,0.137-.549.268-1.1,0.389-1.649s0.236-1.1.338-1.626,0.18-.953.24-1.305,0.1-.623.124-0.824,0.044-.395.063-0.569a1.029,1.029,0,0,1,.9-1.068,0.8,0.8,0,0,1,.431.135,1.255,1.255,0,0,1,.339.32,1.324,1.324,0,0,1,.206.428,1.1,1.1,0,0,1,.017.5,1.5,1.5,0,0,1-.207.516,7.614,7.614,0,0,0-.61,1.756c-0.207.831-.561,2.542-1.052,5.084a7.524,7.524,0,0,1-.542,1.795A1.033,1.033,0,0,1,36.305,48Zm2.157-10.925c-0.1,0-.394,0-0.54.756-0.016.16-.037,0.351-0.061,0.557s-0.066.485-.127,0.843-0.142.8-.242,1.313-0.216,1.08-.34,1.636-0.253,1.107-.391,1.659c-0.274,1.1-.475,1.971-0.6,2.6a1.709,1.709,0,0,0-.045,1.038,0.4,0.4,0,0,0,.184.16,0.836,0.836,0,0,0,.412-0.551,7.169,7.169,0,0,0,.512-1.7c0.492-2.548.848-4.266,1.057-5.1a7.8,7.8,0,0,1,.651-1.855,1.149,1.149,0,0,0,.161-0.4,0.723,0.723,0,0,0-.011-0.333,0.961,0.961,0,0,0-.148-0.309,0.893,0.893,0,0,0-.241-0.227A0.439,0.439,0,0,0,38.462,37.075ZM27.789,47.623a0.5,0.5,0,0,1-.362-0.152,0.649,0.649,0,0,1-.178-0.458,7.853,7.853,0,0,1,.162-1.23c0.053-.275.129-0.625,0.225-1.042s0.22-.934.368-1.538c0.307-1.185.578-2.382,0.806-3.561,0.19-.985.336-1.914,0.436-2.769a13.674,13.674,0,0,1-1.575,1.361,1.952,1.952,0,0,1-1.044.388,0.7,0.7,0,0,1-.706-0.558,1.771,1.771,0,0,1-.087-0.767,0.626,0.626,0,0,1,.29-0.444l0.039-.017c0.023-.007.111-0.042,0.443-0.194,0.252-.116.561-0.281,0.92-0.491s0.76-.47,1.19-0.766a10.112,10.112,0,0,0,1.271-1.052q0.407-.4.714-0.7a3.6,3.6,0,0,0,.447-0.509,4.238,4.238,0,0,0,.61-1.016,0.862,0.862,0,0,1,.561-0.681,0.407,0.407,0,0,1,.331.144,0.708,0.708,0,0,1,.078.6,6.667,6.667,0,0,1-1.879,3.069,1.116,1.116,0,0,1,.237.907,2.439,2.439,0,0,1-.126.389,15.943,15.943,0,0,0-.745,2.9L29.237,44.85a9.783,9.783,0,0,1-.56,2.018,1.289,1.289,0,0,1-.37.545,0.924,0.924,0,0,1-.438.2A0.6,0.6,0,0,1,27.789,47.623Zm1.921-11.711-0.049.5c-0.1,1-.265,2.11-0.495,3.3s-0.5,2.392-.81,3.582q-0.221.9-.366,1.53c-0.1.413-.17,0.759-0.222,1.029a7.693,7.693,0,0,0-.155,1.16,0.284,0.284,0,0,0,.071.2,0.147,0.147,0,0,0,.136.043,0.574,0.574,0,0,0,.264-0.129,0.975,0.975,0,0,0,.26-0.4,9.429,9.429,0,0,0,.537-1.941l0.976-5.425a15.985,15.985,0,0,1,.767-2.969,2.035,2.035,0,0,0,.1-0.318,0.818,0.818,0,0,0-.259-0.722l-0.116-.128,0.12-.124a6.523,6.523,0,0,0,1.9-3,0.41,0.41,0,0,0,0-.295,0.039,0.039,0,0,0-.022-0.009,1.665,1.665,0,0,0-.256.46,4.549,4.549,0,0,1-.654,1.089,3.879,3.879,0,0,1-.484.551q-0.3.3-.714,0.7a10.464,10.464,0,0,1-1.319,1.092c-0.437.3-.845,0.564-1.213,0.781s-0.689.388-.952,0.508c-0.3.136-.408,0.183-0.461,0.2a0.275,0.275,0,0,0-.1.19,1.415,1.415,0,0,0,.078.594,0.34,0.34,0,0,0,.357.295,1.639,1.639,0,0,0,.844-0.327,16.563,16.563,0,0,0,1.883-1.668Zm1.043,9.255A0.314,0.314,0,0,1,30.5,45.06a0.322,0.322,0,0,1-.056-0.277,1.253,1.253,0,0,1,.4-0.573c0.421-.394.791-0.749,1.1-1.058s0.575-.587.793-0.836A7.993,7.993,0,0,0,33.818,40.8a1.37,1.37,0,0,1,1.053-.928,0.675,0.675,0,0,1,.648.525,1.617,1.617,0,0,1,.085.859,1.293,1.293,0,0,1-.413.72c-0.1.1-.283,0.252-0.56,0.472s-0.63.491-1.073,0.824c-0.875.659-1.526,1.14-1.935,1.431A1.817,1.817,0,0,1,30.752,45.167Zm4.119-4.927a1.13,1.13,0,0,0-.734.737A8.342,8.342,0,0,1,33.01,42.56c-0.222.253-.494,0.54-0.809,0.853s-0.686.668-1.107,1.063a1.759,1.759,0,0,0-.257.294,4.06,4.06,0,0,0,.578-0.363c0.406-.289,1.054-0.768,1.927-1.425,0.44-.331.8-0.607,1.065-0.818s0.444-.361.537-0.452a0.929,0.929,0,0,0,.3-0.523,1.237,1.237,0,0,0-.07-0.664A0.324,0.324,0,0,0,34.872,40.24ZM42.889,45a1.277,1.277,0,0,1-.753-0.224A3.3,3.3,0,0,1,41.485,44a13.971,13.971,0,0,1-.731-1.242q-0.174-.337-0.335-0.672c-0.109-.226-0.207-0.455-0.292-0.681a1.973,1.973,0,0,1-.226-0.933,0.423,0.423,0,0,1,.425-0.386,0.746,0.746,0,0,1,.572.385,10.1,10.1,0,0,0,3.345,3.018,0.746,0.746,0,0,1,.551.623,1.184,1.184,0,0,1-.814.609A3.04,3.04,0,0,1,42.889,45Zm-2.562-4.546c-0.028,0-.051,0-0.068.09a2.2,2.2,0,0,0,.209.734c0.081,0.216.174,0.435,0.279,0.651s0.216,0.441.33,0.662a13.634,13.634,0,0,0,.711,1.208,3.049,3.049,0,0,0,.564.683,0.909,0.909,0,0,0,.538.153,2.749,2.749,0,0,0,.952-0.248,1.759,1.759,0,0,0,.584-0.329,1.21,1.21,0,0,0-.355-0.244A10.461,10.461,0,0,1,40.6,40.686,0.429,0.429,0,0,0,40.327,40.455Zm-7.722-2.142a0.292,0.292,0,0,1-.26-0.132,0.438,0.438,0,0,1-.028-0.362,1.107,1.107,0,0,1,.2-0.372c0.733-1.063,1.271-1.907,1.6-2.5a5.285,5.285,0,0,0,.576-1.375,4.176,4.176,0,0,0,.094-0.772,2.471,2.471,0,0,1,.031-0.489,0.509,0.509,0,0,1,.465-0.529,0.7,0.7,0,0,1,.346.121,1.484,1.484,0,0,1,.348.3,1.285,1.285,0,0,1,.255.472,1.263,1.263,0,0,1,.022.612,2.218,2.218,0,0,1-.055.219c0.822,0.025,1.637.035,2.433,0.027,0.876-.008,1.7-0.024,2.44-0.047s1.385-.055,1.926-0.095l1.151-.083h0a1.417,1.417,0,0,1,.772.194,1.178,1.178,0,0,1,.448.493,0.945,0.945,0,0,1,.067.632,0.865,0.865,0,0,1-.4.535c-0.31.262-.626,0.541-0.939,0.831s-0.61.593-.886,0.9a2.436,2.436,0,0,1-1.473.989,0.425,0.425,0,0,1-.332-0.122,0.285,0.285,0,0,1-.055-0.239,1.96,1.96,0,0,1,.439-0.7,9.191,9.191,0,0,0,1.24-1.754,0.136,0.136,0,0,0-.092-0.172,15.238,15.238,0,0,0-2.216-.169c-1.169-.038-2.891,0-5.118.125a11.206,11.206,0,0,1-1.291,1.986,7.079,7.079,0,0,1-1.109,1.2,1.342,1.342,0,0,1-.463.256A0.551,0.551,0,0,1,32.605,38.312Zm2.67-6.165a0.288,0.288,0,0,0-.108.233,2.162,2.162,0,0,0-.025.414,4.426,4.426,0,0,1-.1.847,5.522,5.522,0,0,1-.614,1.481c-0.33.6-.875,1.459-1.62,2.539a0.788,0.788,0,0,0-.14.254l-0.005.019a1.107,1.107,0,0,0,.318-0.19,6.921,6.921,0,0,0,1.044-1.135,10.9,10.9,0,0,0,1.3-2.015L35.37,34.5l0.1-.006c2.289-.126,4.056-0.171,5.255-0.131a14.567,14.567,0,0,1,2.309.184l0.031,0.011a0.5,0.5,0,0,1,.313.582,7.544,7.544,0,0,1-1.312,1.911,4.087,4.087,0,0,0-.332.465,2.158,2.158,0,0,0,1.2-.871c0.281-.316.587-0.629,0.907-0.926s0.644-.583.962-0.85l0.021-.016a0.511,0.511,0,0,0,.25-0.316,0.577,0.577,0,0,0-.043-0.391,0.807,0.807,0,0,0-.313-0.34,1.055,1.055,0,0,0-.568-0.139l-1.138.083c-0.546.04-1.2,0.072-1.941,0.1s-1.57.04-2.448,0.048-1.786,0-2.7-.036l-0.256-.009,0.093-.241c0.029-.075.054-0.146,0.075-0.213s0.035-.126.046-0.183a0.895,0.895,0,0,0-.193-0.773,1.113,1.113,0,0,0-.26-0.225A0.389,0.389,0,0,0,35.276,32.148Zm20.718,3.466q-1.076.081-1.853,0.171a8.065,8.065,0,0,0-1.265.231,9,9,0,0,1-1.147.242,0.306,0.306,0,0,1-.267-0.121,0.349,0.349,0,0,1-.056-0.282,1.58,1.58,0,0,1,.449-0.564,1.324,1.324,0,0,1,1.094-.383q0.336,0.02.756,0.02h0.94q0.52,0,.892-0.01t0.616-.03q0.264-.02.986-0.03t1.942-.01h2.1q0.88,0,1.457.02,1.132,0.041,1.309.06c0.131,0.014.191,0.047,0.181,0.1a2.168,2.168,0,0,1-.373.483,0.968,0.968,0,0,1-.734.383,4.294,4.294,0,0,1-.5-0.04q-0.322-.04-0.807-0.121-0.465-.081-0.9-0.131t-0.853-.091l-0.381,1.35a14.868,14.868,0,0,1,2.437.121q0.577,0.121.5,0.544a2.223,2.223,0,0,1-.138.4L61.8,39.3a1.442,1.442,0,0,1-.612.785,2.081,2.081,0,0,1-.979.2l-2.137-.02q0.784,0.6,1.258,1T60,41.817a1.712,1.712,0,0,1,.5.624q0.516,0.02,1.109.06t1.261,0.1a12.8,12.8,0,0,1,1.642.2q0.308,0.061.277,0.222a1.933,1.933,0,0,1-.653.584,1.873,1.873,0,0,1-1.026.443,1.689,1.689,0,0,1-.8-0.2,7.1,7.1,0,0,0-2.052-.664,15.615,15.615,0,0,1-2.926,1.994q2.441,1.551,2.328,2.135a0.7,0.7,0,0,1-.18.312,0.5,0.5,0,0,1-.393.171,2.064,2.064,0,0,1-.948-0.685,8.8,8.8,0,0,0-.808-0.685q-0.454-.342-1.02-0.725-0.575.282-1.287,0.6t-1.579.664a8.114,8.114,0,0,1-2.237.7,0.552,0.552,0,0,1-.385-0.131A0.28,0.28,0,0,1,50.7,47.3a1.573,1.573,0,0,1,1-.6,34.689,34.689,0,0,0,3.793-1.511q-1.084-.6-1.852-1.027t-1.246-.644q-1.276.181-2.122,0.373t-1.347.292a2.73,2.73,0,0,1-.7.081q-0.2-.02-0.142-0.3a0.969,0.969,0,0,1,.752-0.785,7.686,7.686,0,0,1,1.219-.2q0.9-.1,2.387-0.242a2.615,2.615,0,0,1,.4-0.383q0.3-.242.791-0.624t1.04-.725a10.184,10.184,0,0,1,1.161-.624,10.582,10.582,0,0,0-2.187.242,2.39,2.39,0,0,1-.727.141,0.6,0.6,0,0,1-.667-0.483,8.221,8.221,0,0,1,.259-2.377,1.373,1.373,0,0,1,.28-0.725A2.015,2.015,0,0,1,53.845,37q0.44,0,.936-0.03t1.064-.07q0.051-.261.081-0.574T55.993,35.614ZM55.264,39.7q0.161-.523.282-1.047t0.2-1.047q-1.016.081-1.555,0.181a2.646,2.646,0,0,0-.4.09,0.5,0.5,0,0,0-.243.171,0.822,0.822,0,0,0-.14.312q-0.047.192-.105,0.493a2.465,2.465,0,0,0-.074.8,0.279,0.279,0,0,0,.323.191q0.28,0,.872-0.061,0.288-.04.492-0.06C55.056,39.709,55.171,39.7,55.264,39.7ZM53.8,42.6q1.607-.141,2.928-0.191t2.357-.03a3.081,3.081,0,0,0-.617-0.846A4.15,4.15,0,0,0,58,41.062a1.592,1.592,0,0,0-.374-0.242,1.24,1.24,0,0,0-.323-0.091,2.367,2.367,0,0,0-.3-0.02,3.3,3.3,0,0,0-1.833.685A7.1,7.1,0,0,0,53.8,42.6Zm5.184,0.5q-1.32,0-2.592.06t-2.532.161a4.119,4.119,0,0,0,.943.5,8.208,8.208,0,0,1,.826.383q0.417,0.222.867,0.483A9.816,9.816,0,0,0,58.988,43.106Zm-0.944-3.5q0.118-.4.241-0.936t0.248-1.178q-0.684.02-1.168,0.04t-0.788.04q-0.352,1.41-.464,2.095Q56.923,39.6,58.044,39.6Zm0.813-4.108-1.792.06q-0.063.222-.137,0.554t-0.2.775q0.224-.02.7-0.02h1.22Q58.8,36.077,58.858,35.493Zm0.535,1.994q-0.184.645-.314,1.158t-0.227.916a4.1,4.1,0,0,0,1.775-.181,1.623,1.623,0,0,0,.538-1.128,0.608,0.608,0,0,0-.1-0.624,1.658,1.658,0,0,0-.853-0.141h-0.82ZM71.634,37.91a12.365,12.365,0,0,0,2.117-3.5,0.707,0.707,0,0,1,.369-0.564,0.906,0.906,0,0,1,.531.463,0.984,0.984,0,0,1,.3.745,1.15,1.15,0,0,1-.217.5,4.27,4.27,0,0,1-.314.332q-0.235.232-.625,0.594-0.78.725-1.6,1.45,0.68,0,1.142-.01t0.726-.03a3.628,3.628,0,0,0,1-.181,2.592,2.592,0,0,1,.748-0.141,0.639,0.639,0,0,1,.294.081,0.924,0.924,0,0,1,.269.211,0.812,0.812,0,0,1,.168.322,0.9,0.9,0,0,1,.01.413,1.858,1.858,0,0,1-.079.3A19.074,19.074,0,0,0,75.9,40.87a28.319,28.319,0,0,1-.866,3.343,2.826,2.826,0,0,1-.793,1.208,1.458,1.458,0,0,1-.894.383,2.205,2.205,0,0,1-.374-0.03q-0.174-.03-0.378-0.061t-0.468-.06a6.239,6.239,0,0,0-.684-0.03,4.868,4.868,0,0,0-1.887.242,1.139,1.139,0,0,1-.463.121A0.38,0.38,0,0,1,68.77,45.8a5.038,5.038,0,0,1,.095-1.732q0.107-.765.216-1.43T69.3,41.394q0.222-1.148.474-2.095A8.929,8.929,0,0,1,70.2,37.99a0.6,0.6,0,0,1,.292-0.322,0.566,0.566,0,0,1,.334-0.02,1.724,1.724,0,0,1,.373.141A1.178,1.178,0,0,0,71.634,37.91ZM70.245,42q-0.14.826-.215,1.319a5.136,5.136,0,0,0-.074.695,0.924,0.924,0,0,0,.02.312,0.322,0.322,0,0,0,.151.2,1.162,1.162,0,0,0,.347.121,4,4,0,0,0,.626.07q0.788,0.06,1.689.06a1.426,1.426,0,0,0,1.067-.242,4.094,4.094,0,0,0,.422-1.047q0.236-.805.431-1.611-0.637-.02-1.156-0.02h-0.92q-0.4,0-.986.03T70.245,42Zm4.656-.906q0.261-1.349.294-1.833a0.641,0.641,0,0,0-.123-0.6,2.992,2.992,0,0,0-1.137-.121q-0.48,0-.944.02t-0.854.071a6.09,6.09,0,0,0-.674.121,1.031,1.031,0,0,0-.4.171,1.406,1.406,0,0,0-.344.695q-0.125.494-.331,1.561l1.744-.071q0.716-.03,1.116-0.03h0.82Q74.485,41.072,74.9,41.092Zm4.291-2.638q-0.282.322-.583,0.634t-0.643.634a8.653,8.653,0,0,1-.9.745,0.788,0.788,0,0,1-.322.111,0.219,0.219,0,0,1-.2-0.061,0.227,0.227,0,0,1,.015-0.232,1.466,1.466,0,0,1,.318-0.4q0.938-1.028,1.523-1.722a12.9,12.9,0,0,0,.925-1.219,4.981,4.981,0,0,0,.509-0.977,6.659,6.659,0,0,0,.28-1.037,0.906,0.906,0,0,1,.763-0.947,1.122,1.122,0,0,1,.7.322,0.678,0.678,0,0,1,.339.524,0.739,0.739,0,0,1-.278.4,7.859,7.859,0,0,0-.545.644q-0.139.2-.443,0.635T79.9,37.587a9.93,9.93,0,0,0,1.637.121l2.1-.08q1.42,0,1.269.785a1.472,1.472,0,0,1-.13.363,5.3,5.3,0,0,0-.583,1.672l-0.194,1.108a7.031,7.031,0,0,1-1.648,3.565,5.6,5.6,0,0,1-2.484,1.672,7.38,7.38,0,0,1-2.134.383q-1.56,0-1.389-.886a0.538,0.538,0,0,1,.622-0.423,4.816,4.816,0,0,1,.6.06,5.984,5.984,0,0,0,.859.061A4.528,4.528,0,0,0,80.91,45.2a4.013,4.013,0,0,0,1.669-2.014,15.784,15.784,0,0,0,.679-2.377,8.856,8.856,0,0,0,.163-1.209,2.069,2.069,0,0,0-.08-0.775,0.678,0.678,0,0,0-.38-0.413,1.806,1.806,0,0,0-.717-0.121q-0.5,0-1.258.04T79.192,38.453ZM81.1,42.24a0.846,0.846,0,0,1-.642.373,5.6,5.6,0,0,1-1.5.171,2.964,2.964,0,0,1-1.28-.212,0.58,0.58,0,0,1-.326-0.695,0.471,0.471,0,0,1,.394-0.383,1.871,1.871,0,0,1,.614-0.121,0.645,0.645,0,0,1,.471.2,2.92,2.92,0,0,0,1.686.383Q81.144,42.018,81.1,42.24Zm9.947,1.43a13.462,13.462,0,0,0-1.69.362,1.9,1.9,0,0,1-.631.161q-0.24,0-.186-0.282a1.479,1.479,0,0,1,.58-0.725,1.6,1.6,0,0,1,1.006-.443,0.993,0.993,0,0,1,.232.04,4.4,4.4,0,0,0,1.2.121,13.336,13.336,0,0,0,.845-1.37,0.778,0.778,0,0,1,.557-0.6,0.3,0.3,0,0,1,.263.191,0.635,0.635,0,0,1,.056.433,1.232,1.232,0,0,1-.319.614q-0.253.272-.634,0.7,0.935-.08,2.124-0.121a1.791,1.791,0,0,0-.246-0.383A0.488,0.488,0,0,1,94.052,42a0.462,0.462,0,0,1,.162-0.272,0.379,0.379,0,0,1,.212-0.111,3.028,3.028,0,0,1,1.09,1.088q1.98-.1,1.875.443-0.07.363-.81,0.363a0.793,0.793,0,0,1-.138-0.01,1.181,1.181,0,0,0-.178-0.01c-0.08,0-.183,0-0.308-0.01s-0.308-.01-0.549-0.01A7.348,7.348,0,0,1,93.2,45.583q0.755,0.443,1.288.735a0.66,0.66,0,0,1,.46.675,0.4,0.4,0,0,1-.378.4,0.676,0.676,0,0,1-.315-0.08,3.458,3.458,0,0,1-.391-0.252l-0.57-.413q-0.334-.242-0.828-0.584a7.884,7.884,0,0,1-3.457,1.43q-0.66,0-.555-0.544a0.563,0.563,0,0,1,.188-0.352,1.09,1.09,0,0,1,.453-0.171,12.2,12.2,0,0,0,2.7-.806,9.206,9.206,0,0,1-1.077-.745,0.448,0.448,0,0,1-.1-0.413A2.509,2.509,0,0,1,91.048,43.67ZM93.9,37.164l0.2-1.047a5.6,5.6,0,0,0,.089-0.564l0.112-.685a0.886,0.886,0,0,1,.739-0.927,0.323,0.323,0,0,1,.309.262,1.264,1.264,0,0,1,.016.645l-0.5,2.3,1.644-.02q1.44,0,1.343.5a0.5,0.5,0,0,1-.374.282,1.143,1.143,0,0,1-.382.06q-0.21,0-.526-0.02L95.8,37.9q-0.454-.03-1.094-0.03l-0.385,1.893a2.666,2.666,0,0,1-.347.916,0.662,0.662,0,0,1-.486.393,0.252,0.252,0,0,1-.285-0.181,1.289,1.289,0,0,1,.049-0.564q0.059-.2.147-0.6T93.609,38.7q-0.4.4-.824,0.8t-0.9.755a10.2,10.2,0,0,1-1.208.866,1.248,1.248,0,0,1-.523.121,0.547,0.547,0,0,1-.425-0.181,0.666,0.666,0,0,1-.113-0.191,0.259,0.259,0,0,1,.019-0.2,0.646,0.646,0,0,1,.225-0.231,2.657,2.657,0,0,1,.541-0.262,5.418,5.418,0,0,0,.814-0.383q0.426-.242.843-0.534a9.131,9.131,0,0,0,.815-0.645,7.241,7.241,0,0,0,.708-0.715,13.942,13.942,0,0,0-2.156.181,5.04,5.04,0,0,1-.639.1q-0.44,0-.382-0.3a0.941,0.941,0,0,1,.429-0.514,1.287,1.287,0,0,1,.743-0.272,3.706,3.706,0,0,1,.668.06q0.156,0.02.564,0.03T93.9,37.164Zm0.579,6.324q-0.7,0-1.376.03t-1.324.071a3.587,3.587,0,0,0-.162.322,0.476,0.476,0,0,0-.016.342,1.1,1.1,0,0,0,.28.413,4.175,4.175,0,0,0,.687.534A6,6,0,0,0,94.484,43.488Zm-1.9-8.58a0.68,0.68,0,0,1,.186.02,0.223,0.223,0,0,1,.118.111,1.052,1.052,0,0,1,.1.282c0.028,0.128.06,0.312,0.093,0.554a2.943,2.943,0,0,1,.122.715,0.41,0.41,0,0,1-.076.292,0.162,0.162,0,0,1-.19,0,1.4,1.4,0,0,1-.223-0.141,2.568,2.568,0,0,0-.865-0.806,0.278,0.278,0,0,1-.17-0.362,0.71,0.71,0,0,1,.364-0.484A1.1,1.1,0,0,1,92.58,34.909Zm3.065,3.605a0.51,0.51,0,0,1,.471.564c0.008,0.027.024,0.1,0.047,0.221a4.654,4.654,0,0,0,.12.463,2.376,2.376,0,0,1,.132.765,0.185,0.185,0,0,1-.185.181,0.511,0.511,0,0,1-.343-0.242,4.367,4.367,0,0,0-.805-0.906,0.494,0.494,0,0,1-.191-0.463,0.636,0.636,0,0,1,.3-0.423A0.861,0.861,0,0,1,95.645,38.514Zm1.616-3.706a0.567,0.567,0,0,1,.405.232,0.528,0.528,0,0,1,.163.453,0.925,0.925,0,0,1-.633.584c-0.045.027-.123,0.067-0.234,0.121s-0.263.135-.457,0.242a2.4,2.4,0,0,1-.695.282c-0.093,0-.134-0.033-0.12-0.1q0.031-.061.218-0.352t0.429-.614a6.44,6.44,0,0,1,.493-0.584A0.679,0.679,0,0,1,97.26,34.808Zm3.194,9.466a6.108,6.108,0,0,1-2.062,1.873,4.379,4.379,0,0,1-2,.7,0.968,0.968,0,0,1-.527-0.121,0.293,0.293,0,0,1-.148-0.322,0.848,0.848,0,0,1,.749-0.564,5.984,5.984,0,0,0,2.188-.866,6.928,6.928,0,0,0,1.365-1.369A7.183,7.183,0,0,0,98.4,41.636a0.415,0.415,0,0,1-.326-0.383,0.582,0.582,0,0,1,.29-0.363,0.8,0.8,0,0,1,.5-0.181,0.366,0.366,0,0,1,.247.121,2.543,2.543,0,0,1,.306.382q0.179,0.262.44,0.675t0.671,0.977a10.7,10.7,0,0,0,.784-1.47,5.83,5.83,0,0,0,.424-1.108q0.084-.382.13-0.624A0.654,0.654,0,0,1,102.473,39q0.559,0,.467.483a8.349,8.349,0,0,1-.547,1.279q-0.5,1.037-1.416,2.669,0.258,0.322.538,0.634c0.186,0.208.382,0.406,0.586,0.594a8.6,8.6,0,0,0,.928.785q0.141,0.1.444,0.292t0.769,0.474a0.3,0.3,0,0,1,.2.282,1.194,1.194,0,0,1-.681.423,2.661,2.661,0,0,1-1.1.3,1.2,1.2,0,0,1-.637-0.121,2.022,2.022,0,0,1-.5-0.765Q101.206,45.664,100.454,44.274Zm-0.709-5.76a17,17,0,0,1-1.8,2.175,2.9,2.9,0,0,1-1.179.926,0.586,0.586,0,0,0-.1-0.04,0.115,0.115,0,0,1-.083-0.091,0.4,0.4,0,0,1,.065-0.232,2.485,2.485,0,0,1,.383-0.483,16.329,16.329,0,0,0,2.124-2.92,9.191,9.191,0,0,0,1.179-2.377,0.573,0.573,0,0,0,0-.252,0.531,0.531,0,0,1-.005-0.232,0.456,0.456,0,0,1,.514-0.383,0.841,0.841,0,0,1,.586.282,0.667,0.667,0,0,1,.219.624,2.023,2.023,0,0,1-.344.745l-0.948,1.39q1.088-.04,1.8-0.071t1.056-.03q2,0,1.923.4a0.77,0.77,0,0,1-.244.383,0.815,0.815,0,0,1-.589.2,3.709,3.709,0,0,1-.709-0.061,9.152,9.152,0,0,0-1.328-.06Q101.266,38.413,99.745,38.514Zm12.725-.624a7,7,0,0,0-1.4.151,4,4,0,0,1-.775.131c-0.321,0-.462-0.094-0.426-0.282a0.758,0.758,0,0,1,.106-0.242,0.936,0.936,0,0,1,.261-0.262,1.709,1.709,0,0,1,.461-0.212,2.386,2.386,0,0,1,.708-0.091h1.2l0.326-1.793q0.273-1.409.872-1.41a0.358,0.358,0,0,1,.3.242,0.923,0.923,0,0,1,.053.6,5.71,5.71,0,0,1-.255.856,11.72,11.72,0,0,0-.4,1.521,8.76,8.76,0,0,1,1.761.1c0.213,0.067.31,0.155,0.289,0.262a0.324,0.324,0,0,1-.123.221,0.806,0.806,0,0,1-.317.091,6.511,6.511,0,0,1-.658.04l-1.116.03-0.506,2.618q1.583-.423,1.682-0.423c0.173,0,.247.067,0.221,0.2a0.628,0.628,0,0,1-.31.363,13.283,13.283,0,0,1-1.752.685l-0.385,1.994q-0.5,2.578-1.6,3.323a3.83,3.83,0,0,1-2.141.725,1.848,1.848,0,0,1-.865-0.181,0.414,0.414,0,0,1-.322-0.4,0.336,0.336,0,0,1,.33-0.262,5.738,5.738,0,0,0,1.7-.413,4.578,4.578,0,0,0,1.127-.654,1.907,1.907,0,0,0,.326-0.393,2.836,2.836,0,0,0,.257-0.6q0.124-.393.272-1.047t0.388-1.7q-0.882.423-1.562,0.786a2.5,2.5,0,0,1-1.04.362q-0.42,0-.323-0.5a0.791,0.791,0,0,1,.461-0.624,2.155,2.155,0,0,1,.351-0.161l0.617-.242q0.357-.141.8-0.292c0.292-.1.588-0.2,0.886-0.292q0.175-.907.309-1.6C112.344,38.645,112.415,38.239,112.47,37.889Zm7.431,2.437c0.047-.309.095-0.614,0.147-0.916a1.663,1.663,0,0,1,.292-0.735,0.878,0.878,0,0,1,.329-0.252,0.39,0.39,0,0,1,.312-0.01,0.414,0.414,0,0,1,.211.252,0.951,0.951,0,0,1,.011.514l-0.294,1.108q0.684-.019,1.367.02t1.383,0.141a5.5,5.5,0,0,1,1.6.322,0.291,0.291,0,0,1,.158.322,1.033,1.033,0,0,1-.486.443,1.607,1.607,0,0,1-.77.262,0.848,0.848,0,0,1-.513-0.141,4.45,4.45,0,0,0-2.893-.665q-0.165.645-.283,1.208t-0.236,1.068l2.128-.04a0.993,0.993,0,0,1,.93.363,1.546,1.546,0,0,1,.148.322,0.638,0.638,0,0,1,.01.312,1.927,1.927,0,0,1-.124.383q-0.091.212-.229,0.514l-0.578,1.229a3.413,3.413,0,0,1-.36.624,1.273,1.273,0,0,1-.285.282,0.288,0.288,0,0,1-.211.06,0.613,0.613,0,0,1-.159-0.06,6.14,6.14,0,0,0-1.9-.2,7.1,7.1,0,0,0-2.455.282,0.817,0.817,0,0,1-.376.08,0.41,0.41,0,0,1-.341-0.2,4.614,4.614,0,0,1-.113-1.49c0.019-.443.034-0.8,0.047-1.067a4.518,4.518,0,0,1,.048-0.564,1.023,1.023,0,0,1,.373-0.584,0.981,0.981,0,0,1,.595-0.282q0.159,0,.648.01l1.345,0.03,0.407-2.216a20.349,20.349,0,0,0-3.538.5,13.377,13.377,0,0,1-.784,2.095,11.859,11.859,0,0,1-1.1,1.853q-1.251,1.712-1.971,1.712A0.507,0.507,0,0,1,112,47.033a0.4,0.4,0,0,1-.11-0.362,1.952,1.952,0,0,1,.657-0.7,7.764,7.764,0,0,0,2.506-3.343,24.377,24.377,0,0,0,1.22-4.351,7.057,7.057,0,0,0,.153-2.759,0.6,0.6,0,0,1-.01-0.161,0.812,0.812,0,0,1,.6-0.6,15.032,15.032,0,0,1,3.2-.181q0.24,0,.8.02t1.449,0.06a19.929,19.929,0,0,1,2.058.121,0.605,0.605,0,0,1,.429.262,0.463,0.463,0,0,1,.118.423,5.5,5.5,0,0,1-.335.907,6.923,6.923,0,0,1-.5,1.037,1.716,1.716,0,0,1-.439.514,0.824,0.824,0,0,1-.454.07l-0.924-.03q-0.587-.02-1.445-0.03t-2.01.05a16.357,16.357,0,0,0-1.636.08,0.471,0.471,0,0,0-.23.363q-0.079.3-.208,0.816t-0.416,1.48q0.872-.161,1.73-0.252T119.9,40.326Zm-1.935,5.982q1.56,0,2.4-.01t0.986-.03a1.148,1.148,0,0,0,.56-0.725,5.5,5.5,0,0,0,.334-1.007,0.96,0.96,0,0,0,.014-0.383A0.332,0.332,0,0,0,122,43.942a2.9,2.9,0,0,0-.683-0.091q-0.456-.02-1.256-0.02-0.82,0-1.328.04a4.333,4.333,0,0,0-.794.121,0.961,0.961,0,0,0-.409.2,0.525,0.525,0,0,0-.154.282c-0.029.148-.063,0.43-0.1,0.846a3.689,3.689,0,0,0-.023.745,0.286,0.286,0,0,0,.185.181A1.568,1.568,0,0,0,117.966,46.308Zm4.922-9.124a0.573,0.573,0,0,0,.334-0.071,1.771,1.771,0,0,0,.3-0.514,3.215,3.215,0,0,0,.253-0.685,0.517,0.517,0,0,0-.014-0.342,0.3,0.3,0,0,0-.2-0.121,2.641,2.641,0,0,0-.352-0.04l-0.789-.061q-0.988-.06-2.689-0.06a4.3,4.3,0,0,0-1.9.2,5.306,5.306,0,0,0-.455,1.631c-0.024.121,0.058,0.181,0.245,0.181l1.732-.06q0.907-.04,1.572-0.06c0.443-.013.8-0.02,1.064-0.02Zm13.96,3.444a7.887,7.887,0,0,0-1.237-.121q-0.7,0-.627-0.383a1.189,1.189,0,0,1,.577-0.6,1.951,1.951,0,0,1,.946-0.342,1.57,1.57,0,0,1,.826.282,5.533,5.533,0,0,0,.592.3,7.509,7.509,0,0,0,.888.322q0.53,0.161,1,.282a5.746,5.746,0,0,0,.879.161q1.209,0.161,1.038,1.047A3.305,3.305,0,0,1,141.1,42.7a15.974,15.974,0,0,1-1.33,1.551q-0.792.786-1.743,1.571a16.466,16.466,0,0,1-1.4,1.027,1.094,1.094,0,0,1-.687.242,0.668,0.668,0,0,1-.465-0.181,0.423,0.423,0,0,1-.078-0.423,0.878,0.878,0,0,1,.473-0.483,22.632,22.632,0,0,0,2.223-1.41,7.419,7.419,0,0,0,1.292-1.148,4.2,4.2,0,0,0,.924-1.47,0.492,0.492,0,0,0-.34-0.624,5.3,5.3,0,0,0-.537-0.171c-0.221-.061-0.463-0.124-0.723-0.191s-0.525-.128-0.795-0.181a31.01,31.01,0,0,1-3.07,2.739,37.9,37.9,0,0,1-3.443,2.4q-0.909.564-1.462,0.886a6.164,6.164,0,0,1-.768.4,1.344,1.344,0,0,1-.515.181,0.533,0.533,0,0,1-.356-0.071,0.547,0.547,0,0,1-.2-0.262,0.774,0.774,0,0,1-.052-0.352,1.135,1.135,0,0,1,.756-0.7Q134.39,43.508,136.848,40.629Zm-1.17-5.237a0.493,0.493,0,0,1,.377.221,0.613,0.613,0,0,1,.119.524,1.359,1.359,0,0,1-.392.634,7.643,7.643,0,0,1-1.231.936q-0.85.564-1.452,0.886-0.291.161-.648,0.352l-0.8.433a3.4,3.4,0,0,1-1.134.483c-0.173,0-.25-0.047-0.232-0.141a0.7,0.7,0,0,1,.326-0.342q0.734-.483,1.3-0.886t0.971-.725a24.278,24.278,0,0,0,2.145-1.994A1.018,1.018,0,0,1,135.678,35.392Zm5.463-.423a0.93,0.93,0,0,1,.658.322q0.717,0.745,1.573,1.49t1.853,1.49a0.585,0.585,0,0,1,.323.6,0.309,0.309,0,0,1-.308.3,0.844,0.844,0,0,1-.512-0.2q-0.891-.664-1.943-1.329T140.5,36.3a0.53,0.53,0,0,1-.4-0.352,0.58,0.58,0,0,1,.122-0.423,1.357,1.357,0,0,1,.422-0.373A1.21,1.21,0,0,1,141.141,34.969Zm11.635,2.84a15.134,15.134,0,0,0-1.793.121c-0.474.067-.77,0.1-0.89,0.1a0.433,0.433,0,0,1-.331-0.1,0.288,0.288,0,0,1-.073-0.242,0.629,0.629,0,0,1,.126-0.292,0.888,0.888,0,0,1,.289-0.252,1.44,1.44,0,0,1,.713-0.221,4.256,4.256,0,0,1,.486.02,5.45,5.45,0,0,0,.639.06q0.4,0.02.986,0.02,0.112-.584.187-0.967c0.049-.255.079-0.45,0.092-0.584l0.124-.745a2.322,2.322,0,0,1,.3-0.816,0.537,0.537,0,0,1,.4-0.312,0.336,0.336,0,0,1,.323.141,0.87,0.87,0,0,1,.148.423,2.129,2.129,0,0,1-.02.574,2.214,2.214,0,0,1-.185.594l-0.407,1.692,1.468-.04a1.281,1.281,0,0,1,.681.151,0.346,0.346,0,0,1,.2.373c-0.046.242-.31,0.362-0.79,0.362-0.147,0-.357-0.013-0.632-0.04s-0.639-.04-1.093-0.04q-0.073.282-.177,0.816t-0.251,1.3q2.667,0.484,2.485,1.43a1.033,1.033,0,0,1-.335.544,0.835,0.835,0,0,1-.561.262,1.077,1.077,0,0,1-.836-0.644c-0.156-.3-0.3-0.544-0.436-0.745a4.66,4.66,0,0,0-.383-0.5q-0.242,1.249-.406,2.155t-0.281,1.561q-0.117.655-.176,1.068c-0.041.275-.076,0.493-0.107,0.654q-0.33,1.712-.791,1.712a0.43,0.43,0,0,1-.406-0.332,2.46,2.46,0,0,1,.038-1.178q0.166-.865.519-2.376t0.651-3.061a13.316,13.316,0,0,1-.986,1.118,9.976,9.976,0,0,1-.98.876,5.822,5.822,0,0,1-.881.574,1.611,1.611,0,0,1-.711.212,0.6,0.6,0,0,1-.5-0.221,1.1,1.1,0,0,1-.115-0.232,0.308,0.308,0,0,1,.014-0.232,0.791,0.791,0,0,1,.221-0.262,2.29,2.29,0,0,1,.538-0.3,9.7,9.7,0,0,0,3.665-2.92Zm5.767,1.631a9.593,9.593,0,0,1,2.363-.322,17.99,17.99,0,0,1,2.862.3q0.914,0.141,1.414.242T165.8,39.8a0.264,0.264,0,0,1,.2.3,1.559,1.559,0,0,1-.581.624,1.583,1.583,0,0,1-.962.423,1.465,1.465,0,0,1-.862-0.3,5.133,5.133,0,0,0-2.966-.906,9.176,9.176,0,0,0-2.179.3,6.274,6.274,0,0,1-1.485,3.444,2.978,2.978,0,0,1-1.81,1.088,1.275,1.275,0,0,1-.642-0.2,0.468,0.468,0,0,1-.282-0.4,1.447,1.447,0,0,1,.741-0.524A4.5,4.5,0,0,0,156.889,42a6.048,6.048,0,0,0,.785-1.893,3.207,3.207,0,0,0-.242-2.477,0.376,0.376,0,0,1-.077-0.322,0.437,0.437,0,0,1,.506-0.342,0.764,0.764,0,0,1,.493.141,1.6,1.6,0,0,1,.2,1.007A9.2,9.2,0,0,1,158.543,39.44Zm5.046-4.894a0.624,0.624,0,0,1,.431.463,0.859,0.859,0,0,1-.225,1.269,4.265,4.265,0,0,1-1.391.262q-1.072.06-1.892,0.06a5.072,5.072,0,0,1-1.039-.06c-0.132-.04-0.192-0.094-0.179-0.161a1.361,1.361,0,0,1,.938-0.4c0.306-.067.6-0.144,0.9-0.232s0.579-.184.867-0.292a5.689,5.689,0,0,0,.706-0.342q0.272-.161.444-0.282t0.279-.2A0.32,0.32,0,0,1,163.589,34.546Zm-1.483,6.646a0.832,0.832,0,0,1-.059.2,12.27,12.27,0,0,0-.36,1.551l-0.566,3.142a5,5,0,0,1-.4,1.309,0.675,0.675,0,0,1-.48.463,0.452,0.452,0,0,1-.305-0.282,5.371,5.371,0,0,1,.2-1.954q0.163-.846.287-1.541t0.21-1.239l0.306-1.793q0.151-.785.551-0.785a0.643,0.643,0,0,1,.47.262A0.745,0.745,0,0,1,162.106,41.192Z"/>
</svg>
