<?xml version="1.0" encoding="iso-8859-1"?>
<!-- Generator: Adobe Illustrator 16.0.0, SVG Export Plug-In . SVG Version: 6.00 Build 0)  -->
<!DOCTYPE svg PUBLIC "-//W3C//DTD SVG 1.1//EN" "http://www.w3.org/Graphics/SVG/1.1/DTD/svg11.dtd">
<svg version="1.1" id="&#x56FE;&#x5C42;_1" xmlns="http://www.w3.org/2000/svg" xmlns:xlink="http://www.w3.org/1999/xlink" x="0px"
	 y="0px" width="18px" height="18px" viewBox="0 0 18 18" style="enable-background:new 0 0 18 18;" xml:space="preserve">
<g>
	<path style="fill:#6375F2;" d="M9.409,11.915h4.24c0.16,0,0.308-0.085,0.387-0.224c0.08-0.139,0.079-0.309-0.001-0.446L9.795,3.956
		c-0.101-0.174-0.308-0.26-0.502-0.207s-0.33,0.229-0.33,0.432v7.288C8.962,11.716,9.163,11.915,9.409,11.915z M9.855,5.835
		l3.018,5.188H9.855V5.835z"/>
	<path style="fill:#6375F2;" d="M17.554,16.283h-2.972c1.158-0.826,1.851-1.895,1.857-3.073c0.001-0.159-0.062-0.311-0.173-0.424
		c-0.112-0.112-0.264-0.175-0.422-0.175H8.368V0.589c0-0.236-0.141-0.451-0.358-0.546c-0.216-0.094-0.471-0.05-0.644,0.111
		c-0.215,0.202-5.283,5-5.321,10.664c-0.001,0.158,0.061,0.311,0.173,0.423s0.264,0.176,0.422,0.176h4.537v1.194H3.636
		c-0.166,0-0.324,0.069-0.437,0.19l-1.906,2.063c-0.218,0.236-0.209,0.603,0.019,0.828c0.214,0.211,0.458,0.405,0.717,0.59H0.446
		C0.2,16.283,0,16.483,0,16.729s0.2,0.446,0.446,0.446H3.7c1.324,0.53,2.906,0.83,4.595,0.83c1.73,0,3.317-0.306,4.623-0.83h4.636
		c0.246,0,0.446-0.2,0.446-0.446S17.8,16.283,17.554,16.283z M3.261,10.227c0.267-3.438,2.557-6.56,3.917-8.133v8.133H3.261z
		 M3.896,13.801h11.25c-0.069,0.204-0.175,0.403-0.31,0.595H3.347L3.896,13.801z M2.583,15.222l0.213-0.23h11.501
		c-1.221,1.081-3.482,1.825-6.002,1.825C6.012,16.816,3.891,16.215,2.583,15.222z"/>
</g>
</svg>
