<?xml version="1.0" encoding="utf-8"?>
<!-- Generator: Adobe Illustrator 22.1.0, SVG Export Plug-In . SVG Version: 6.00 Build 0)  -->
<svg version="1.1" id="图层_1" xmlns="http://www.w3.org/2000/svg" xmlns:xlink="http://www.w3.org/1999/xlink" x="0px" y="0px"
	 viewBox="0 0 409 149.1" style="enable-background:new 0 0 409 149.1;" xml:space="preserve">
<style type="text/css">
	.st0{fill:#FFFFFF;}
	.st1{opacity:0.32;fill:#FFFFFF;enable-background:new    ;}
	.st2{opacity:0.56;fill:#FFFFFF;enable-background:new    ;}
	.st3{opacity:0.8;fill:#FFFFFF;enable-background:new    ;}
</style>
<g>
	<path class="st0" d="M199.3,76.4c5.6-3.1,10.4-7.2,14.3-12.4l3.7,1.4c-0.7,0.9-1.4,1.9-2.1,2.7h32.7c-0.3,6.6-0.7,11.8-1,15.4
		c-0.5,5.7-3.3,8.5-8.5,8.5c-2.9,0-6,0-9.1,0c-0.2-1.5-0.5-3-0.8-4.5c3.1,0.3,6,0.4,8.9,0.4c3.3,0,5.1-1.7,5.5-5
		c0.4-3.2,0.7-6.9,0.8-11.2h-8.1c-2.1,9.2-8.4,16.3-18.7,21.3c-0.9-1.2-1.9-2.4-3-3.6c9.8-4,15.7-9.9,17.6-17.7h-8
		c-2.6,7.5-9.4,13.4-20.4,17.6c-0.9-1.2-1.9-2.3-3-3.5c10.4-3.9,16.7-8.6,18.9-14.1h-7.1c-3,3-6.3,5.7-10,8
		C201.2,78.7,200.3,77.6,199.3,76.4z M206.1,43.2h38.8v21.9h-4.1V63h-34.7V43.2z M240.8,46.9h-30.6v4.3h30.6V46.9z M210.2,59.4h30.6
		V55h-30.6V59.4z"/>
	<path class="st0" d="M256.8,54.6c1.9,3.6,3.8,7.3,5.7,11.1c1.4-4.9,2.4-10.2,2.8-16.1h-13.1v-4h17.2v3.8c-0.6,8-2.1,15.1-4.3,21.4
		c2.1,4.1,4.2,8.3,6.4,12.5l-3.9,2.2c-1.4-3-2.9-6.2-4.5-9.6c-2.5,5.5-5.8,10.3-9.7,14.4c-0.7-1.1-1.6-2.4-2.6-3.8
		c4.2-4.3,7.5-9.5,9.9-15.6c-2.2-4.5-4.7-9.3-7.4-14.6L256.8,54.6z M284.2,50.7h4v9.5c0,4.2-0.3,8-0.9,11.2h3.2V84
		c0,2.2,0.9,3.3,2.7,3.3h2.5c1.8,0,2.8-0.9,3.1-2.8c0.2-1.7,0.4-4.1,0.5-7c1.2,0.5,2.5,1,4.2,1.6c-0.3,3.1-0.6,5.6-0.8,7.3
		c-0.5,3.2-2.5,4.9-6,4.9h-4.1c-4,0-6-2.1-6-6.2V74.5c-0.6,2-1.3,3.8-2.2,5.4c-2.5,4.5-7.2,8.7-14,12.7c-0.7-1.1-1.7-2.2-2.9-3.5
		c6.6-3.5,11-7.3,13.4-11.4c2.3-3.6,3.4-9.4,3.4-17.2v-9.8H284.2z M273.3,43.1H299v31.6h-4V47h-17.7v28.5h-4V43.1z"/>
	<path class="st0" d="M303.6,49.8h25.3c-1.8-3.4-3.2-5.8-4.2-7.4l4.1-2c1,1.5,2.5,4,4.4,7.4l-3.8,2h25v4h-32
		c-0.1,3.2-0.3,5.9-0.4,8.2h25.5c-0.4,7.6-0.9,14.3-1.4,19.9c-0.4,6.4-3.5,9.5-9.3,9.5c-2.7,0-6.2-0.1-10.7-0.4
		c-0.2-1.3-0.4-3-0.8-4.9c4.5,0.6,8.1,0.9,10.9,0.9c3.2,0,5-1.9,5.4-5.7c0.4-4.2,0.8-9.3,1.1-15.3h-21c-1,11.6-6.4,20.6-16.1,27
		c-0.9-1.1-2-2.3-3.2-3.6c9.3-6.1,14.3-14.3,14.9-24.6c0.2-2.8,0.4-6.4,0.6-11h-14.4v-4H303.6z"/>
	<path class="st0" d="M354.9,65.1h8.9c0-1.3,0.1-7.5,0.1-18.7h10.9c0.9-2.1,1.7-4.2,2.3-6.4l4.5,1.2c-0.8,1.8-1.6,3.6-2.3,5.2h19.4
		v18.7h8.4v4h-8.4v16.5c0,4.4-1.9,6.5-5.7,6.5c-2.5,0-5.4-0.1-8.7-0.2c-0.2-1.2-0.4-2.7-0.8-4.5c3,0.2,5.6,0.3,7.6,0.3
		c2.2,0,3.3-1.1,3.3-3.3V69.1H368c-0.4,10.5-3.2,18.5-8.3,24c-1-0.9-2.2-2-3.6-3.1c4.9-5.1,7.4-12,7.5-20.9h-8.8L354.9,65.1
		L354.9,65.1z M368.2,50.4c0,7.4,0,12.3-0.1,14.7h26.1V50.4H368.2z M374.7,74.2l2.8-2.7c3.1,2.6,6.1,5.2,8.9,7.9l-3,3.1
		C380.8,79.9,378,77.2,374.7,74.2z M374.7,55.2l2.8-2.7c3.1,2.6,6,5.2,8.5,7.5l-3,3.1C379.9,59.9,377.1,57.3,374.7,55.2z"/>
</g>
<g>
	<path class="st0" d="M211.5,128l-2.4,0.1c-0.1-0.5-0.2-1-0.2-1.4h-0.1c-1.2,1.1-2.9,1.7-5,1.7c-1.1,0-2.1-0.3-3-1
		c-0.8-0.7-1.2-1.6-1.2-2.9c0-1.5,0.6-2.8,1.9-3.7c1.3-0.9,3.7-1.4,7.2-1.5c0-0.2,0-0.5,0-0.8c0-1.2-0.3-2-1-2.5
		c-0.7-0.4-1.6-0.6-3-0.6c-1.6,0-3.1,0.2-4.6,0.6l0.3-2.1c1.5-0.4,3.2-0.6,5.2-0.6c1.8,0,3.2,0.4,4.1,1.1c1,0.7,1.5,2,1.5,3.8
		c0,0.5,0,1.3-0.1,2.6s-0.1,2.1-0.1,2.5C211.1,125,211.3,126.6,211.5,128z M208.9,125.1c-0.1-1.5-0.1-2.9-0.1-4.1
		c-1.9,0-3.3,0.1-4.3,0.4c-1.6,0.5-2.5,1.5-2.5,2.9s1,2,2.9,2C206.6,126.3,207.9,125.9,208.9,125.1z"/>
	<path class="st0" d="M225,113.8l-0.7,2.4c-0.8-0.3-1.5-0.5-2.2-0.5c-1.9,0-3.1,0.9-3.7,2.7c0,4.6,0,7.8,0.1,9.6H216
		c0.2-3.2,0.2-5.6,0.2-7.4c0-2.4-0.2-4.6-0.7-6.8l2.6-0.4c0.2,1.1,0.3,1.8,0.3,2.2h0.1c1.1-1.6,2.3-2.4,3.8-2.4
		C223.1,113.3,224,113.4,225,113.8z"/>
	<path class="st0" d="M240.3,128h-3.5c0-0.3-1-1.7-2.9-4c-2-2.4-3.2-3.6-3.7-3.6H230c0,2.1,0.1,4.7,0.2,7.6h-2.6
		c0.1-3.7,0.2-7.4,0.2-11.2c0-3.9-0.1-7.2-0.4-9.9l2.9-0.1c-0.1,2.2-0.2,6.4-0.2,12.6h0.1c0.3,0,1.4-0.8,3.1-2.5
		c1.7-1.7,2.6-2.7,2.6-3.1h3.3c0,0.3-0.8,1.1-2.4,2.5c-1.5,1.2-2.8,2.3-4,3.1v0.1c1.2,0.9,2.8,2.5,4.8,4.8
		C239.4,126.4,240.3,127.7,240.3,128z"/>
	<path class="st0" d="M247,125.8c0,0.6-0.2,1.1-0.6,1.6c-0.4,0.4-0.9,0.7-1.6,0.7c-0.6,0-1-0.2-1.4-0.6c-0.3-0.4-0.5-0.9-0.5-1.4
		c0-0.6,0.2-1.1,0.6-1.5s1-0.7,1.7-0.7c0.6,0,1,0.2,1.4,0.6C246.8,124.8,247,125.3,247,125.8z"/>
	<path class="st0" d="M262.7,128l-2.4,0.1c-0.1-0.5-0.2-1-0.2-1.4H260c-1.2,1.1-2.9,1.7-5,1.7c-1.1,0-2.1-0.3-3-1
		c-0.8-0.7-1.2-1.6-1.2-2.9c0-1.5,0.6-2.8,1.9-3.7c1.3-0.9,3.7-1.4,7.2-1.5c0-0.2,0-0.5,0-0.8c0-1.2-0.3-2-1-2.5
		c-0.7-0.4-1.6-0.6-3-0.6c-1.6,0-3.1,0.2-4.6,0.6l0.3-2.1c1.5-0.4,3.2-0.6,5.2-0.6c1.8,0,3.2,0.4,4.1,1.1c1,0.7,1.5,2,1.5,3.8
		c0,0.5,0,1.3-0.1,2.6s-0.1,2.1-0.1,2.5C262.3,125,262.4,126.6,262.7,128z M260,125.1c-0.1-1.5-0.1-2.9-0.1-4.1
		c-1.9,0-3.3,0.1-4.3,0.4c-1.6,0.5-2.5,1.5-2.5,2.9s1,2,2.9,2C257.7,126.3,259,125.9,260,125.1z"/>
	<path class="st0" d="M279.8,128h-2.7c0.2-2.6,0.3-5.5,0.3-8.6c0-1.5-0.3-2.6-0.9-3.2s-1.5-0.8-2.7-0.8c-1.4,0-2.7,0.5-3.9,1.5
		c0,3.4,0,7.1,0.1,11.1h-2.7c0.2-3.4,0.3-5.9,0.3-7.4c0-2.3-0.2-4.6-0.7-6.8l2.6-0.4l0.3,1.8h0.1c1.5-1.3,3.1-2,4.8-2
		c1.7,0,2.9,0.4,3.9,1.1c0.9,0.7,1.4,2,1.4,3.9c0,0.2,0,0.6,0,1.1c0,0.6,0,0.9,0,1.1C279.7,122.2,279.8,124.7,279.8,128z"/>
	<path class="st0" d="M295.6,128l-2.4,0.1c-0.1-0.5-0.2-1-0.2-1.4h-0.1c-1.2,1.1-2.9,1.7-5,1.7c-1.1,0-2.1-0.3-3-1
		c-0.8-0.7-1.2-1.6-1.2-2.9c0-1.5,0.6-2.8,1.9-3.7c1.3-0.9,3.7-1.4,7.2-1.5c0-0.2,0-0.5,0-0.8c0-1.2-0.3-2-1-2.5
		c-0.7-0.4-1.6-0.6-3-0.6c-1.6,0-3.1,0.2-4.6,0.6l0.3-2.1c1.5-0.4,3.2-0.6,5.2-0.6c1.8,0,3.2,0.4,4.1,1.1c1,0.7,1.5,2,1.5,3.8
		c0,0.5,0,1.3-0.1,2.6s-0.1,2.1-0.1,2.5C295.2,125,295.3,126.6,295.6,128z M292.9,125.1c-0.1-1.5-0.1-2.9-0.1-4.1
		c-1.9,0-3.3,0.1-4.3,0.4c-1.6,0.5-2.5,1.5-2.5,2.9s1,2,2.9,2C290.6,126.3,292,125.9,292.9,125.1z"/>
	<path class="st0" d="M302.9,128H300c0.2-3.3,0.3-7,0.3-11.2c0-4-0.1-7.3-0.4-9.9l3-0.1c-0.2,2.7-0.3,6.1-0.3,10.1
		S302.7,124.7,302.9,128z"/>
	<path class="st0" d="M319.3,113.8c0,0.6-0.8,2.7-2.3,6.1c-1.7,3.9-2.8,6.7-3.2,8.3c-0.7,2.6-1.3,4.3-1.9,5c-0.8,1-2.2,1.5-4.3,1.5
		l-0.1-2.1c1.2,0,2.3-0.4,3.1-1.3c0.8-0.8,1.2-1.9,1.2-3.2c0-1.1-0.9-3.7-2.8-7.9c-1.8-4.2-2.8-6.3-2.8-6.4h3.1
		c0,0.3,0.6,2.1,1.9,5.5s1.9,5.4,1.9,6.2h0.2c0-0.6,0.5-2.5,1.6-5.7s1.6-5.1,1.6-6L319.3,113.8L319.3,113.8z"/>
	<path class="st0" d="M332.1,123.9c0,2.9-1.9,4.4-5.6,4.4c-1.6,0-3.2-0.2-4.6-0.5l0.5-2.2c1.3,0.5,2.7,0.8,4.2,0.8
		c2.2,0,3.3-0.6,3.3-1.9c0-0.6-0.2-1.1-0.7-1.4c-0.5-0.4-1.3-0.8-2.4-1.2c-1.4-0.6-2.4-1.1-3.1-1.6c-0.9-0.8-1.4-1.7-1.4-2.8
		c0-1.1,0.4-2.1,1.3-2.9s2.2-1.2,3.9-1.2c1.7,0,3.1,0.1,4.1,0.4l-0.5,2.2c-1.1-0.4-2.3-0.6-3.7-0.6c-1.9,0-2.9,0.6-2.9,1.7
		c0,0.6,0.2,1,0.6,1.4s1.3,0.8,2.5,1.3c1.3,0.5,2.3,1,3,1.6C331.6,121.9,332.1,122.8,332.1,123.9z"/>
	<path class="st0" d="M347.7,113.8c0,0.6-0.8,2.7-2.3,6.1c-1.7,3.9-2.8,6.7-3.2,8.3c-0.7,2.6-1.3,4.3-1.9,5c-0.8,1-2.2,1.5-4.3,1.5
		l-0.1-2.1c1.2,0,2.3-0.4,3.1-1.3c0.8-0.8,1.2-1.9,1.2-3.2c0-1.1-0.9-3.7-2.8-7.9c-1.8-4.2-2.8-6.3-2.8-6.4h3.1
		c0,0.3,0.6,2.1,1.9,5.5s1.9,5.4,1.9,6.2h0.2c0-0.6,0.5-2.5,1.6-5.7s1.6-5.1,1.6-6L347.7,113.8L347.7,113.8z"/>
	<path class="st0" d="M360.4,123.9c0,2.9-1.9,4.4-5.6,4.4c-1.6,0-3.2-0.2-4.6-0.5l0.5-2.2c1.3,0.5,2.7,0.8,4.2,0.8
		c2.2,0,3.3-0.6,3.3-1.9c0-0.6-0.2-1.1-0.7-1.4c-0.5-0.4-1.3-0.8-2.4-1.2c-1.4-0.6-2.4-1.1-3.1-1.6c-0.9-0.8-1.4-1.7-1.4-2.8
		c0-1.1,0.4-2.1,1.3-2.9s2.2-1.2,3.9-1.2c1.7,0,3.1,0.1,4.1,0.4l-0.5,2.2c-1.1-0.4-2.3-0.6-3.7-0.6c-1.9,0-2.9,0.6-2.9,1.7
		c0,0.6,0.2,1,0.6,1.4s1.3,0.8,2.5,1.3c1.3,0.5,2.3,1,3,1.6C359.9,121.9,360.4,122.8,360.4,123.9z"/>
	<path class="st0" d="M368.3,125.8c0,0.6-0.2,1.1-0.6,1.6c-0.4,0.4-0.9,0.7-1.6,0.7c-0.6,0-1-0.2-1.4-0.6c-0.3-0.4-0.5-0.9-0.5-1.4
		c0-0.6,0.2-1.1,0.6-1.5s1-0.7,1.7-0.7c0.6,0,1,0.2,1.4,0.6C368.1,124.8,368.3,125.3,368.3,125.8z"/>
	<path class="st0" d="M383.6,125.7l-0.1,2c-0.8,0.5-1.9,0.7-3.3,0.7c-2.6,0-4.6-0.7-5.9-2.1c-1.4-1.4-2.1-3.2-2.1-5.2
		c0-2.1,0.7-4,2.2-5.5c1.4-1.5,3.3-2.3,5.7-2.3c1.2,0,2.2,0.1,2.9,0.4l-0.4,2.4c-1-0.4-2.1-0.6-3.2-0.6c-1.4,0-2.5,0.5-3.4,1.5
		c-0.8,1-1.3,2.2-1.3,3.7c0,1.6,0.5,3,1.5,4c1,1.1,2.4,1.6,4.2,1.6C381.3,126.3,382.3,126.1,383.6,125.7z"/>
	<path class="st0" d="M399.9,128h-2.7c0.2-2.6,0.3-5.5,0.3-8.6c0-1.5-0.3-2.6-0.9-3.2s-1.5-0.8-2.7-0.8c-1.4,0-2.7,0.5-3.9,1.5
		c0,3.4,0,7.1,0.1,11.1h-2.7c0.2-3.4,0.3-5.9,0.3-7.4c0-2.3-0.2-4.6-0.7-6.8l2.6-0.4l0.3,1.8h0.1c1.5-1.3,3.1-2,4.8-2
		c1.7,0,2.9,0.4,3.9,1.1c0.9,0.7,1.4,2,1.4,3.9c0,0.2,0,0.6,0,1.1c0,0.6,0,0.9,0,1.1C399.9,122.2,399.9,124.7,399.9,128z"/>
</g>
<g>
	<g>
		<path class="st0" d="M149.5,54.3L149.5,54.3c2.3,0,4.1-1.8,4.1-4.1V34.1c0-2.3-1.8-4.1-4.1-4.1l0,0c-2.3,0-4.1,1.8-4.1,4.1v16.2
			C145.4,52.5,147.2,54.3,149.5,54.3z"/>
		<path class="st0" d="M128.5,54.3L128.5,54.3c2.3,0,4.1-1.8,4.1-4.1V18.6c0-2.3-1.8-4.1-4.1-4.1l0,0c-2.3,0-4.1,1.8-4.1,4.1v31.6
			C124.4,52.5,126.2,54.3,128.5,54.3z"/>
		<path class="st0" d="M107.5,54.3L107.5,54.3c2.3,0,4.1-1.8,4.1-4.1V7.5c0-2.3-1.8-4.1-4.1-4.1l0,0c-2.3,0-4.1,1.8-4.1,4.1v42.8
			C103.4,52.5,105.3,54.3,107.5,54.3z"/>
		<path class="st0" d="M86.5,54.3L86.5,54.3c2.3,0,4.1-1.8,4.1-4.1V34.1c0-2.3-1.8-4.1-4.1-4.1l0,0c-2.3,0-4.1,1.8-4.1,4.1v16.2
			C82.4,52.5,84.3,54.3,86.5,54.3z"/>
		<path class="st0" d="M65.5,54.3L65.5,54.3c2.3,0,4.1-1.8,4.1-4.1V23.6c0-2.3-1.8-4.1-4.1-4.1l0,0c-2.3,0-4.1,1.8-4.1,4.1v26.6
			C61.4,52.5,63.3,54.3,65.5,54.3z"/>
	</g>
	<g>
		<path class="st0" d="M9.6,44.7c-2.4-6.4-3.2-13.5-2-20.7s4.3-13.5,8.6-18.7c2.5,6.4,3.3,13.4,2.1,20.7C17.1,33.2,14,39.5,9.6,44.7
			z"/>
		<path class="st0" d="M9.7,44.7c2.8-6.2,7.2-11.8,13.1-16.1c5.9-4.2,12.6-6.5,19.3-7.1C39.4,27.8,35,33.4,29,37.6
			C23.1,41.8,16.4,44.2,9.7,44.7z"/>
	</g>
	<path class="st0" d="M94.6,87.6l5.5-2.8l-5.4-2.7c1-1.6,2.7-2.7,4.8-2.7c3.1,0,5.6,2.5,5.6,5.6s-2.5,5.6-5.6,5.6
		C97.4,90.6,95.6,89.3,94.6,87.6z"/>
	<path class="st1" d="M157.6,58.4h15.9c0,46-37.3,83.3-83.3,83.3c-2.7,0-5.3-0.1-7.9-0.4C124.6,137.3,157.6,101.7,157.6,58.4z"/>
	<path class="st2" d="M141.8,58.4h15.9c0,43.3-33.1,78.9-75.3,82.9c-2.7-0.3-5.3-0.6-7.9-1.1C112.8,132.8,141.8,99,141.8,58.4z"/>
	<path class="st3" d="M125.9,58.4h15.9c0,40.6-29,74.4-67.4,81.8c-2.7-0.5-5.3-1.2-7.9-1.9C100.8,128,125.9,96.1,125.9,58.4z"/>
	<path class="st0" d="M72.4,58.4H43.9c-14.5,0-27.3-7.4-34.8-18.7C7.8,45.7,7,52,7,58.4l0,0c0,21.5,8.1,41.1,21.5,55.8l-16.9,21.4
		c9.6,3.9,20.1,6,31.1,6c8.3,0,16.3-1.2,23.8-3.5C100.9,127.9,126,96,126,58.3H72.4V58.4z M96.5,95c-5.7,0-10.3-4.6-10.3-10.3
		s4.6-10.3,10.3-10.3c5.7,0,10.3,4.6,10.3,10.3S102.2,95,96.5,95z"/>
</g>
</svg>
