<?xml version="1.0" encoding="iso-8859-1"?>
<!-- Generator: Adobe Illustrator 16.0.0, SVG Export Plug-In . SVG Version: 6.00 Build 0)  -->
<!DOCTYPE svg PUBLIC "-//W3C//DTD SVG 1.1//EN" "http://www.w3.org/Graphics/SVG/1.1/DTD/svg11.dtd">
<svg version="1.1" id="&#x56FE;&#x5C42;_1" xmlns="http://www.w3.org/2000/svg" xmlns:xlink="http://www.w3.org/1999/xlink" x="0px"
	 y="0px" width="120px" height="43px" viewBox="0 0 120 43" style="enable-background:new 0 0 120 43;" xml:space="preserve">
<g>
	<path style="fill:#0096DF;" d="M56.415,22.658c1.722-0.937,3.18-2.207,4.374-3.81l1.146,0.436c-0.216,0.291-0.431,0.57-0.646,0.839
		h10.023c-0.097,2.034-0.198,3.605-0.307,4.713c-0.14,1.732-1.012,2.604-2.614,2.615c-0.894,0.01-1.824,0.01-2.793,0
		c-0.064-0.463-0.146-0.921-0.242-1.372c0.937,0.086,1.84,0.129,2.712,0.129c1.012,0,1.571-0.506,1.679-1.517
		c0.118-0.969,0.199-2.115,0.242-3.439h-2.486c-0.656,2.83-2.566,5.004-5.729,6.521c-0.28-0.354-0.582-0.721-0.904-1.098
		c3.013-1.237,4.805-3.045,5.375-5.423h-2.453c-0.786,2.292-2.863,4.089-6.231,5.392c-0.28-0.356-0.581-0.716-0.904-1.083
		c3.175-1.183,5.107-2.619,5.795-4.309h-2.179c-0.915,0.925-1.932,1.738-3.051,2.437C56.996,23.368,56.727,23.023,56.415,22.658
		 M58.497,12.504h11.881v6.715h-1.26v-0.646H58.497V12.504z M69.118,13.635h-9.362v1.323h9.362V13.635z M59.756,17.444h9.362v-1.356
		h-9.362V17.444z"/>
	<path style="fill:#0096DF;" d="M74.026,15.991c0.581,1.114,1.168,2.244,1.76,3.39c0.436-1.49,0.726-3.131,0.871-4.923h-4.02v-1.227
		h5.278v1.178c-0.193,2.438-0.632,4.622-1.314,6.554c0.646,1.254,1.299,2.529,1.961,3.825l-1.195,0.662
		c-0.414-0.904-0.877-1.883-1.388-2.938c-0.774,1.694-1.765,3.164-2.97,4.406c-0.216-0.334-0.484-0.727-0.808-1.178
		c1.28-1.312,2.29-2.9,3.027-4.762c-0.679-1.372-1.43-2.857-2.252-4.456L74.026,15.991z M82.404,14.78h1.227v2.922
		c0,1.297-0.097,2.443-0.291,3.438h0.969v3.842c0,0.678,0.28,1.017,0.84,1.017h0.774c0.549,0,0.861-0.29,0.937-0.871
		c0.064-0.527,0.118-1.243,0.161-2.147c0.355,0.15,0.78,0.317,1.275,0.501c-0.086,0.958-0.172,1.7-0.259,2.228
		c-0.161,0.99-0.774,1.485-1.84,1.485h-1.243c-1.227,0-1.84-0.636-1.84-1.905v-3.204c-0.183,0.618-0.409,1.165-0.678,1.638
		c-0.765,1.367-2.195,2.658-4.294,3.875c-0.227-0.323-0.522-0.679-0.888-1.065c2.012-1.076,3.379-2.239,4.1-3.487
		c0.7-1.108,1.05-2.862,1.05-5.262V14.78z M79.079,12.472h7.877v9.685h-1.227v-8.491h-5.424v8.717h-1.227V12.472z"/>
	<path style="fill:#0096DF;" d="M88.361,14.522h7.748c-0.544-1.033-0.969-1.786-1.275-2.26l1.259-0.597
		c0.302,0.463,0.754,1.216,1.356,2.26l-1.179,0.597h7.651v1.227h-9.79c-0.037,0.979-0.078,1.813-0.121,2.502h7.797
		c-0.13,2.335-0.27,4.363-0.42,6.086c-0.118,1.947-1.065,2.921-2.841,2.921c-0.818,0-1.91-0.043-3.277-0.129
		c-0.054-0.408-0.135-0.904-0.242-1.485c1.367,0.184,2.476,0.274,3.325,0.274c0.99,0,1.545-0.586,1.663-1.76
		c0.129-1.28,0.242-2.846,0.339-4.696h-6.433c-0.301,3.551-1.945,6.306-4.932,8.265c-0.29-0.345-0.618-0.711-0.984-1.098
		c2.841-1.872,4.363-4.38,4.568-7.522c0.075-0.85,0.138-1.969,0.186-3.357h-4.398V14.522z"/>
	<path style="fill:#0096DF;" d="M104.052,19.204h2.728c0.011-0.388,0.017-2.292,0.017-5.714h3.333
		c0.274-0.646,0.509-1.297,0.702-1.953l1.372,0.371c-0.236,0.56-0.476,1.087-0.718,1.582h5.932v5.714H120v1.227h-2.583v5.037
		c0,1.334-0.587,2.002-1.76,2.002c-0.774,0-1.662-0.017-2.663-0.049c-0.054-0.366-0.135-0.823-0.242-1.372
		c0.926,0.064,1.706,0.097,2.341,0.097c0.667,0,1.001-0.333,1.001-1.001V20.43h-8.039c-0.129,3.228-0.974,5.677-2.534,7.345
		c-0.312-0.291-0.678-0.609-1.098-0.953c1.496-1.55,2.266-3.681,2.309-6.392h-2.68V19.204z M108.119,14.7
		c0,2.271-0.005,3.772-0.016,4.504h7.99V14.7H108.119z M110.104,21.996l0.855-0.839c0.958,0.796,1.862,1.603,2.712,2.421
		l-0.92,0.952C111.999,23.734,111.116,22.89,110.104,21.996 M110.121,16.152l0.855-0.839c0.958,0.807,1.824,1.577,2.599,2.308
		l-0.92,0.952C111.708,17.605,110.863,16.798,110.121,16.152"/>
	<path style="fill:#8DC3E9;" d="M60.166,38.459l-0.719,0.027c-0.036-0.149-0.055-0.291-0.055-0.425h-0.046
		c-0.375,0.341-0.886,0.512-1.533,0.512c-0.352,0-0.653-0.103-0.906-0.309c-0.253-0.206-0.38-0.5-0.38-0.881
		c0-0.471,0.198-0.848,0.595-1.134c0.396-0.285,1.134-0.436,2.211-0.45c0.009-0.073,0.014-0.157,0.014-0.252
		c0-0.376-0.1-0.626-0.3-0.751c-0.2-0.125-0.502-0.188-0.909-0.188c-0.479,0-0.95,0.06-1.415,0.179l0.078-0.632
		c0.458-0.131,0.985-0.197,1.58-0.197c0.543,0,0.963,0.112,1.259,0.337c0.296,0.224,0.444,0.606,0.444,1.146
		c0,0.144-0.007,0.403-0.021,0.78s-0.021,0.628-0.021,0.753C60.042,37.531,60.084,38.025,60.166,38.459 M59.356,37.571
		c-0.016-0.464-0.023-0.881-0.023-1.25c-0.574,0-1.01,0.043-1.309,0.128c-0.5,0.153-0.751,0.444-0.751,0.875
		c0,0.415,0.293,0.622,0.879,0.622C58.656,37.946,59.057,37.821,59.356,37.571"/>
	<path style="fill:#8DC3E9;" d="M64.281,34.11l-0.206,0.728c-0.238-0.095-0.459-0.142-0.664-0.142c-0.573,0-0.945,0.273-1.116,0.819
		c0,1.404,0.009,2.385,0.027,2.943h-0.811c0.049-0.968,0.073-1.718,0.073-2.252c0-0.724-0.071-1.416-0.215-2.078l0.801-0.114
		c0.058,0.336,0.087,0.56,0.087,0.673h0.037c0.329-0.485,0.714-0.729,1.153-0.729C63.68,33.959,63.958,34.01,64.281,34.11"/>
	<path style="fill:#8DC3E9;" d="M68.95,38.459h-1.076c0-0.106-0.296-0.515-0.888-1.223c-0.607-0.729-0.989-1.094-1.145-1.094H65.81
		c0,0.653,0.017,1.425,0.051,2.316h-0.806c0.039-1.117,0.06-2.255,0.06-3.415c0-1.181-0.045-2.189-0.133-3.025l0.879-0.046
		c-0.034,0.659-0.051,1.939-0.051,3.841h0.032c0.101,0,0.417-0.257,0.95-0.771c0.532-0.515,0.799-0.824,0.799-0.932h1.011
		c0,0.098-0.239,0.351-0.718,0.76c-0.449,0.382-0.859,0.696-1.231,0.943v0.036c0.378,0.287,0.865,0.778,1.46,1.475
		C68.671,37.98,68.95,38.358,68.95,38.459"/>
	<path style="fill:#8DC3E9;" d="M70.987,37.786c0,0.18-0.061,0.339-0.182,0.477c-0.12,0.137-0.287,0.205-0.501,0.205
		c-0.18,0-0.319-0.059-0.419-0.178c-0.099-0.119-0.148-0.262-0.148-0.427c0-0.176,0.061-0.331,0.183-0.464s0.292-0.199,0.509-0.199
		c0.18,0,0.317,0.057,0.414,0.169C70.938,37.482,70.987,37.621,70.987,37.786"/>
	<path style="fill:#8DC3E9;" d="M75.779,38.459l-0.719,0.027c-0.036-0.149-0.055-0.291-0.055-0.425H74.96
		c-0.375,0.341-0.887,0.512-1.533,0.512c-0.352,0-0.653-0.103-0.906-0.309c-0.254-0.206-0.38-0.5-0.38-0.881
		c0-0.471,0.198-0.848,0.595-1.134c0.396-0.285,1.134-0.436,2.211-0.45c0.009-0.073,0.014-0.157,0.014-0.252
		c0-0.376-0.1-0.626-0.3-0.751s-0.503-0.188-0.908-0.188c-0.479,0-0.951,0.06-1.415,0.179l0.078-0.632
		c0.458-0.131,0.984-0.197,1.579-0.197c0.543,0,0.963,0.112,1.259,0.337c0.296,0.224,0.444,0.606,0.444,1.146
		c0,0.144-0.007,0.403-0.021,0.78s-0.021,0.628-0.021,0.753C75.655,37.531,75.697,38.025,75.779,38.459 M74.969,37.571
		c-0.015-0.464-0.022-0.881-0.022-1.25c-0.574,0-1.011,0.043-1.31,0.128c-0.5,0.153-0.75,0.444-0.75,0.875
		c0,0.415,0.293,0.622,0.879,0.622C74.269,37.946,74.67,37.821,74.969,37.571"/>
	<path style="fill:#8DC3E9;" d="M81.007,38.459h-0.833c0.066-0.803,0.101-1.679,0.101-2.627c0-0.471-0.096-0.791-0.286-0.964
		c-0.191-0.173-0.463-0.259-0.817-0.259c-0.434,0-0.833,0.157-1.199,0.472c0,1.04,0.006,2.166,0.019,3.378h-0.833
		c0.052-1.038,0.078-1.788,0.078-2.252c0-0.714-0.067-1.407-0.202-2.078l0.806-0.114l0.087,0.559h0.037
		c0.451-0.409,0.935-0.613,1.451-0.613c0.506,0,0.898,0.111,1.176,0.336c0.278,0.224,0.417,0.623,0.417,1.197
		c0,0.058-0.003,0.172-0.01,0.343c-0.006,0.172-0.009,0.285-0.009,0.344C80.988,36.689,80.994,37.449,81.007,38.459"/>
	<path style="fill:#8DC3E9;" d="M85.831,38.459l-0.719,0.027c-0.036-0.149-0.055-0.291-0.055-0.425h-0.046
		c-0.375,0.341-0.887,0.512-1.533,0.512c-0.352,0-0.653-0.103-0.906-0.309c-0.254-0.206-0.38-0.5-0.38-0.881
		c0-0.471,0.198-0.848,0.595-1.134c0.396-0.285,1.134-0.436,2.211-0.45c0.009-0.073,0.014-0.157,0.014-0.252
		c0-0.376-0.1-0.626-0.3-0.751s-0.503-0.188-0.908-0.188c-0.479,0-0.951,0.06-1.415,0.179l0.078-0.632
		c0.458-0.131,0.984-0.197,1.579-0.197c0.543,0,0.963,0.112,1.259,0.337c0.296,0.224,0.444,0.606,0.444,1.146
		c0,0.144-0.007,0.403-0.021,0.78c-0.014,0.377-0.021,0.628-0.021,0.753C85.707,37.531,85.749,38.025,85.831,38.459 M85.021,37.571
		c-0.015-0.464-0.022-0.881-0.022-1.25c-0.574,0-1.011,0.043-1.31,0.128c-0.5,0.153-0.75,0.444-0.75,0.875
		c0,0.415,0.293,0.622,0.879,0.622C84.32,37.946,84.722,37.821,85.021,37.571"/>
	<path style="fill:#8DC3E9;" d="M88.065,38.459h-0.879c0.055-1.007,0.082-2.145,0.082-3.415c0-1.232-0.045-2.241-0.133-3.025
		l0.93-0.046c-0.059,0.83-0.088,1.854-0.088,3.071C87.978,36.298,88.007,37.437,88.065,38.459"/>
	<path style="fill:#8DC3E9;" d="M93.067,34.11c0,0.195-0.23,0.818-0.69,1.868c-0.528,1.199-0.856,2.044-0.984,2.536
		c-0.211,0.796-0.406,1.303-0.586,1.52c-0.244,0.299-0.679,0.448-1.305,0.448l-0.037-0.641c0.382,0,0.699-0.13,0.953-0.39
		c0.253-0.26,0.38-0.584,0.38-0.975c0-0.339-0.281-1.145-0.843-2.417s-0.842-1.923-0.842-1.95h0.947
		c0,0.083,0.192,0.638,0.577,1.666c0.384,1.028,0.576,1.662,0.576,1.899h0.046c0-0.198,0.162-0.773,0.487-1.726
		s0.487-1.565,0.487-1.84H93.067z"/>
	<path style="fill:#8DC3E9;" d="M96.968,37.219c0,0.891-0.569,1.337-1.708,1.337c-0.503,0-0.973-0.051-1.409-0.151l0.142-0.673
		c0.396,0.152,0.827,0.229,1.291,0.229c0.665,0,0.998-0.188,0.998-0.567c0-0.184-0.074-0.329-0.222-0.438
		c-0.148-0.107-0.394-0.229-0.735-0.363c-0.434-0.171-0.748-0.336-0.943-0.495c-0.286-0.234-0.43-0.519-0.43-0.851
		c0-0.349,0.131-0.646,0.394-0.896c0.263-0.248,0.662-0.373,1.199-0.373c0.525,0,0.946,0.044,1.264,0.133l-0.142,0.659
		c-0.33-0.131-0.712-0.197-1.145-0.197c-0.586,0-0.879,0.17-0.879,0.509c0,0.171,0.065,0.309,0.196,0.414s0.388,0.232,0.77,0.383
		c0.411,0.161,0.717,0.32,0.915,0.476C96.819,36.595,96.968,36.883,96.968,37.219"/>
	<path style="fill:#8DC3E9;" d="M101.728,34.11c0,0.195-0.23,0.818-0.69,1.868c-0.528,1.199-0.856,2.044-0.984,2.536
		c-0.211,0.796-0.406,1.303-0.586,1.52c-0.244,0.299-0.679,0.448-1.305,0.448l-0.036-0.641c0.381,0,0.698-0.13,0.952-0.39
		c0.253-0.26,0.38-0.584,0.38-0.975c0-0.339-0.281-1.145-0.843-2.417s-0.842-1.923-0.842-1.95h0.947
		c0,0.083,0.192,0.638,0.577,1.666c0.384,1.028,0.576,1.662,0.576,1.899h0.046c0-0.198,0.162-0.773,0.487-1.726
		s0.487-1.565,0.487-1.84H101.728z"/>
	<path style="fill:#8DC3E9;" d="M105.628,37.219c0,0.891-0.569,1.337-1.707,1.337c-0.504,0-0.974-0.051-1.41-0.151l0.143-0.673
		c0.396,0.152,0.826,0.229,1.29,0.229c0.665,0,0.998-0.188,0.998-0.567c0-0.184-0.074-0.329-0.222-0.438
		c-0.148-0.107-0.394-0.229-0.735-0.363c-0.433-0.171-0.748-0.336-0.942-0.495c-0.287-0.234-0.431-0.519-0.431-0.851
		c0-0.349,0.132-0.646,0.394-0.896c0.263-0.248,0.662-0.373,1.199-0.373c0.525,0,0.946,0.044,1.264,0.133l-0.142,0.659
		c-0.33-0.131-0.712-0.197-1.145-0.197c-0.586,0-0.879,0.17-0.879,0.509c0,0.171,0.065,0.309,0.197,0.414
		c0.131,0.105,0.387,0.232,0.769,0.383c0.412,0.161,0.717,0.32,0.916,0.476C105.48,36.595,105.628,36.883,105.628,37.219"/>
	<path style="fill:#8DC3E9;" d="M108.031,37.786c0,0.18-0.061,0.339-0.181,0.477c-0.121,0.137-0.288,0.205-0.502,0.205
		c-0.18,0-0.319-0.059-0.419-0.178c-0.099-0.119-0.148-0.262-0.148-0.427c0-0.176,0.062-0.331,0.184-0.464s0.291-0.199,0.508-0.199
		c0.18,0,0.318,0.057,0.414,0.169C107.983,37.482,108.031,37.621,108.031,37.786"/>
	<path style="fill:#8DC3E9;" d="M112.714,37.759l-0.046,0.613c-0.247,0.141-0.578,0.211-0.993,0.211
		c-0.79,0-1.395-0.219-1.812-0.655c-0.419-0.436-0.627-0.963-0.627-1.579c0-0.652,0.22-1.215,0.658-1.685
		c0.439-0.47,1.021-0.705,1.744-0.705c0.363,0,0.659,0.037,0.889,0.11l-0.124,0.719c-0.32-0.119-0.646-0.179-0.975-0.179
		c-0.434,0-0.778,0.151-1.035,0.453c-0.256,0.302-0.384,0.681-0.384,1.136c0,0.494,0.152,0.906,0.457,1.235
		c0.306,0.33,0.737,0.494,1.296,0.494C111.99,37.928,112.308,37.871,112.714,37.759"/>
	<path style="fill:#8DC3E9;" d="M117.685,38.459h-0.833c0.067-0.803,0.101-1.679,0.101-2.627c0-0.471-0.096-0.791-0.286-0.964
		s-0.463-0.259-0.816-0.259c-0.434,0-0.834,0.157-1.2,0.472c0,1.04,0.006,2.166,0.019,3.378h-0.833
		c0.052-1.038,0.078-1.788,0.078-2.252c0-0.714-0.067-1.407-0.201-2.078l0.806-0.114l0.087,0.559h0.036
		c0.452-0.409,0.936-0.613,1.451-0.613c0.507,0,0.898,0.111,1.177,0.336c0.277,0.224,0.416,0.623,0.416,1.197
		c0,0.058-0.003,0.172-0.009,0.343c-0.007,0.172-0.01,0.285-0.01,0.344C117.666,36.689,117.673,37.449,117.685,38.459"/>
	<path style="fill:#0096DF;" d="M43.629,15.93L43.629,15.93c0.689,0,1.253-0.564,1.253-1.254V9.732c0-0.689-0.564-1.254-1.253-1.254
		s-1.254,0.564-1.254,1.254v4.944C42.375,15.366,42.94,15.93,43.629,15.93"/>
	<path style="fill:#0096DF;" d="M37.205,15.93L37.205,15.93c0.69,0,1.254-0.564,1.254-1.254v-9.68c0-0.689-0.564-1.253-1.254-1.253
		c-0.689,0-1.253,0.564-1.253,1.253v9.68C35.951,15.366,36.516,15.93,37.205,15.93"/>
	<path style="fill:#0096DF;" d="M30.78,15.93L30.78,15.93c0.689,0,1.254-0.564,1.254-1.254V1.583c0-0.689-0.564-1.253-1.254-1.253
		s-1.253,0.564-1.253,1.253v13.093C29.527,15.366,30.091,15.93,30.78,15.93"/>
	<path style="fill:#0096DF;" d="M24.356,15.93L24.356,15.93c0.689,0,1.253-0.564,1.253-1.254V9.732c0-0.689-0.564-1.254-1.253-1.254
		c-0.69,0-1.254,0.564-1.254,1.254v4.944C23.102,15.366,23.666,15.93,24.356,15.93"/>
	<path style="fill:#0096DF;" d="M17.931,15.93L17.931,15.93c0.689,0,1.253-0.564,1.253-1.254V6.528c0-0.689-0.564-1.254-1.253-1.254
		s-1.254,0.564-1.254,1.254v8.148C16.677,15.366,17.242,15.93,17.931,15.93"/>
	<path style="fill:#0096DF;" d="M0.823,12.978C0.071,11.031-0.184,8.863,0.19,6.655c0.371-2.189,1.313-4.138,2.647-5.722
		C3.589,2.88,3.843,5.049,3.47,7.256C3.099,9.445,2.157,11.395,0.823,12.978"/>
	<path style="fill:#0096DF;" d="M0.84,12.994c0.845-1.909,2.198-3.622,4.023-4.918c1.81-1.286,3.854-1.998,5.917-2.175
		c-0.845,1.909-2.199,3.623-4.024,4.919C4.947,12.105,2.903,12.817,0.84,12.994"/>
	<path style="fill:#0096DF;" d="M26.835,26.1l1.691-0.845l-1.639-0.819c0.299-0.496,0.841-0.829,1.462-0.829
		c0.943,0,1.707,0.764,1.707,1.707c0,0.942-0.764,1.707-1.707,1.707C27.691,27.021,27.12,26.646,26.835,26.1"/>
	<g style="opacity:0.32;">
		<g>
			<defs>
				<rect id="SVGID_1_" x="23.062" y="17.18" width="27.917" height="25.49"/>
			</defs>
			<clipPath id="SVGID_2_">
				<use xlink:href="#SVGID_1_"  style="overflow:visible;"/>
			</clipPath>
			<path style="clip-path:url(#SVGID_2_);fill:#0096DF;" d="M46.124,17.18h4.855c0,14.078-11.412,25.49-25.489,25.49
				c-0.819,0-1.628-0.039-2.428-0.114C36,41.333,46.124,30.439,46.124,17.18"/>
		</g>
	</g>
	<g style="opacity:0.56;">
		<g>
			<defs>
				<rect id="SVGID_3_" x="20.634" y="17.18" width="25.49" height="25.375"/>
			</defs>
			<clipPath id="SVGID_4_">
				<use xlink:href="#SVGID_3_"  style="overflow:visible;"/>
			</clipPath>
			<path style="clip-path:url(#SVGID_4_);fill:#0096DF;" d="M41.268,17.18h4.855c0,13.259-10.123,24.153-23.061,25.375
				c-0.821-0.078-1.632-0.194-2.428-0.348C32.389,39.94,41.268,29.598,41.268,17.18"/>
		</g>
	</g>
	<g style="opacity:0.8;">
		<g>
			<defs>
				<rect id="SVGID_5_" x="18.209" y="17.18" width="23.059" height="25.028"/>
			</defs>
			<clipPath id="SVGID_6_">
				<use xlink:href="#SVGID_5_"  style="overflow:visible;"/>
			</clipPath>
			<path style="clip-path:url(#SVGID_6_);fill:#0096DF;" d="M36.413,17.18h4.855c0,12.417-8.879,22.76-20.634,25.028
				c-0.823-0.159-1.632-0.358-2.425-0.595C28.737,38.479,36.413,28.727,36.413,17.18"/>
		</g>
	</g>
	<path style="fill:#0096DF;" d="M20.042,17.18h-8.726c-4.444,0-8.356-2.276-10.638-5.724C0.245,13.295,0.011,15.211,0,17.18h0
		c0,6.575,2.489,12.568,6.577,17.088l-5.172,6.563c2.941,1.186,6.154,1.838,9.519,1.838c2.532,0,4.978-0.369,7.286-1.057
		c10.528-3.135,18.204-12.887,18.204-24.433H20.042z M27.417,28.391c-1.735,0-3.142-1.407-3.142-3.143
		c0-1.734,1.406-3.141,3.142-3.141c1.735,0,3.142,1.406,3.142,3.141C30.559,26.983,29.152,28.391,27.417,28.391"/>
</g>
</svg>
