<svg xmlns="http://www.w3.org/2000/svg" xmlns:xlink="http://www.w3.org/1999/xlink" width="70.69" height="67.31" viewBox="0 0 70.69 67.31">
  <metadata><?xpacket begin="﻿" id="W5M0MpCehiHzreSzNTczkc9d"?>
<x:xmpmeta xmlns:x="adobe:ns:meta/" x:xmptk="Adobe XMP Core 5.6-c140 79.160451, 2017/05/06-01:08:21        ">
   <rdf:RDF xmlns:rdf="http://www.w3.org/1999/02/22-rdf-syntax-ns#">
      <rdf:Description rdf:about=""/>
   </rdf:RDF>
</x:xmpmeta>
                                                                                                    
                                                                                                    
                                                                                                    
                                                                                                    
                                                                                                    
                                                                                                    
                                                                                                    
                                                                                                    
                                                                                                    
                                                                                                    
                                                                                                    
                                                                                                    
                                                                                                    
                                                                                                    
                                                                                                    
                                                                                                    
                                                                                                    
                                                                                                    
                                                                                                    
                                                                                                    
                           
<?xpacket end="w"?></metadata>
<defs>
    <style>
      .cls-1 {
        fill-rule: evenodd;
        fill: url(#linear-gradient);
        filter: url(#filter);
      }
    </style>
    <linearGradient id="linear-gradient" x1="1211.235" y1="4118.78" x2="1211.235" y2="4053.69" gradientUnits="userSpaceOnUse">
      <stop offset="0" stop-color="#2486ed"/>
      <stop offset="1" stop-color="#38b8f2"/>
    </linearGradient>
    <filter id="filter" x="1177.31" y="4053.69" width="70.69" height="67.31" filterUnits="userSpaceOnUse">
      <feOffset result="offset" dx="2.427" dy="1.763" in="SourceAlpha"/>
      <feGaussianBlur result="blur"/>
      <feFlood result="flood" flood-color="#cee3fa"/>
      <feComposite result="composite" operator="in" in2="blur"/>
      <feBlend result="blend" in="SourceGraphic"/>
    </filter>
  </defs>
  <path id="形状_1395" data-name="形状 1395" class="cls-1" d="M1205.9,4083.35l-25.46-12.67a2.129,2.129,0,0,0-3.14,2.07v28.07a2.127,2.127,0,0,0,1.02,1.78l25.46,15.83a2.155,2.155,0,0,0,1.1.34,2.119,2.119,0,0,0,2.12-2.11v-31.41A2.1,2.1,0,0,0,1205.9,4083.35Zm-10.18,9.19-0.24.13-4.52-2.59v2.39l4.1,2.36-0.01,1.9-0.23.13-3.87-2.22-0.01,4.5-0.23.14-1.99-1.14,0.04-11.23,0.23-.14,6.73,3.87v1.9Zm48.49-22.16a2.167,2.167,0,0,0-2.04,0l-29.7,12.97a2.114,2.114,0,0,0-1.27,1.94v31.41a2.126,2.126,0,0,0,2.13,2.1,2.152,2.152,0,0,0,1.05-.29l29.7-16.88a2.117,2.117,0,0,0,1.06-1.82v-27.65A2.117,2.117,0,0,0,1244.21,4070.38Zm-12.97,27.14-0.23-.14-0.02-7.53-1.69,8.79-1.91,1.09-0.23-.13-1.74-6.81,0.02,8.06-1.84,1.06-0.23-.14-0.03-11.22,2.97-1.71,0.23,0.13,1.65,6.09,1.66-8.25,2.97-1.71,0.23,0.13,0.04,11.23Zm-15.64-32.4c0.01,0.01.01,0.02,0.02,0.03C1215.61,4065.14,1215.61,4065.13,1215.6,4065.12Zm-2.43-1.22-2.6,1.09,0.87,0.51a8.592,8.592,0,0,0,1.57.76,2.775,2.775,0,0,0,.92.05,3.422,3.422,0,0,0,1.01-.26,1.36,1.36,0,0,0,.71-0.51,0.235,0.235,0,0,0,.02-0.08,0.7,0.7,0,0,0-.14-0.17c-0.1-.08-0.48-0.31-1.12-0.68Zm2.51,1.38v0Zm2.69,0.36c0-.01.01-0.01,0.01-0.02h0v-0.01C1218.38,4065.62,1218.37,4065.63,1218.37,4065.64Zm-6.96,2.3c0.02-.04.03-0.09,0.05-0.14a0.02,0.02,0,0,1,.01-0.02C1211.45,4067.84,1211.43,4067.89,1211.41,4067.94Zm6.87-2.13h0a0.052,0.052,0,0,0,.02-0.04h0A0.076,0.076,0,0,1,1218.28,4065.81Zm-6.77,1.81v-0.04a0.44,0.44,0,0,1-.02.1C1211.5,4067.66,1211.5,4067.64,1211.51,4067.62Zm6.91-2.19v0Zm-5.65,1.99c-0.19-.03-0.38-0.08-0.58-0.13h0c0.2,0.05.39,0.1,0.58,0.13h0Zm-3.27-1.05a0.037,0.037,0,0,1,.01.03A0.037,0.037,0,0,0,1209.5,4066.37Zm31.23-1.39a2.106,2.106,0,0,0-1.44-1.9l-26.77-9.29a2.149,2.149,0,0,0-1.28,0l-28.59,9.88a2.115,2.115,0,0,0-1.32,2.69,2.156,2.156,0,0,0,1.06,1.2l25.46,12.66a2.143,2.143,0,0,0,.93.21,2.029,2.029,0,0,0,.85,0l29.7-13.09A2.1,2.1,0,0,0,1240.73,4064.98Zm-22.27.72v0.04a0.127,0.127,0,0,0-.01.06c-0.01.03-.02,0.07-0.03,0.1h0a0.01,0.01,0,0,0-.01.01,0.418,0.418,0,0,1-.04.1c-0.01.02-.02,0.03-0.03,0.05a0.076,0.076,0,0,0-.02.04,0.053,0.053,0,0,0-.02.03,1.132,1.132,0,0,1-.1.13h0a1.92,1.92,0,0,1-.14.15c-0.02.03-.06,0.05-0.08,0.08a0.423,0.423,0,0,1-.07.05,0.078,0.078,0,0,1-.04.04,1.213,1.213,0,0,1-.14.1c-0.05.04-.1,0.07-0.15,0.11a0.053,0.053,0,0,0-.03.02c-0.07.04-.15,0.08-0.22,0.12a0.539,0.539,0,0,1-.13.07c-0.13.07-.28,0.14-0.44,0.21a6.373,6.373,0,0,1-.61.23h-0.02c-0.02.01-.05,0.02-0.07,0.03-0.13.04-.27,0.08-0.4,0.11l-0.15.03a0.188,0.188,0,0,1-.08.02l-0.11.03c-0.09.01-.18,0.03-0.28,0.05l-0.22.03h-0.03l-0.24.03c-0.08.01-.16,0.01-0.24,0.02-0.06,0-.11.01-0.17,0.01h-0.5a0.708,0.708,0,0,0-.14-0.01h-0.04a0.127,0.127,0,0,0-.06-0.01l-0.28-.03a2.7,2.7,0,0,1-.28-0.04h-0.03c-0.01,0-.01-0.01-0.02-0.01-0.15-.02-0.3-0.06-0.45-0.09-0.04-.01-0.07-0.03-0.11-0.04s-0.08-.02-0.13-0.03c-0.18-.06-0.37-0.12-0.56-0.2l0.01,0.09a0.34,0.34,0,0,1,.01.1,0.083,0.083,0,0,1,0,.05,0.285,0.285,0,0,1,0,.13v0.1c-0.01.03-.01,0.06-0.02,0.1a0.127,0.127,0,0,1-.01.06,0.227,0.227,0,0,0-.01.04,0.188,0.188,0,0,0-.02.08,0.257,0.257,0,0,0-.02.05,0.355,0.355,0,0,1-.04.09,0.355,0.355,0,0,1-.04.09c-0.02.04-.05,0.09-0.08,0.14,0,0.01-.01.01-0.01,0.02-0.03.04-.05,0.08-0.08,0.12s-0.07.1-.11,0.16h0c-0.07.1-.16,0.21-0.25,0.33a0.053,0.053,0,0,0-.02.03c-0.06.07-.12,0.15-0.19,0.23-0.04.05-.09,0.11-0.14,0.17l-1.25,1.48-1.9-1.09-0.03-.28,1.31-1.7a7.809,7.809,0,0,0,.82-1.18,0.419,0.419,0,0,0,.04-0.15c0-.01-0.01-0.03-0.01-0.04a2.257,2.257,0,0,0-.67-0.51l-0.33-.18-4.71,1.98-1.59-.91-0.03-.29,11.29-4.76,3.34,1.93a4.418,4.418,0,0,1,1.53,1.18,0.63,0.63,0,0,1,.1.3,0.032,0.032,0,0,1,0-.03l0.03,0.29v0.03A0.205,0.205,0,0,1,1218.46,4065.7Zm-6.95,1.36h0Zm0.02,0.34v0Zm-0.02-.34h0c0.18,0.07.37,0.13,0.56,0.19h0C1211.88,4067.19,1211.69,4067.13,1211.51,4067.06Zm0,0a0.97,0.97,0,0,1,.01.17v-0.05Z" transform="translate(-1177.31 -4053.69)"/>
</svg>
