<svg xmlns="http://www.w3.org/2000/svg" xmlns:xlink="http://www.w3.org/1999/xlink" width="60" height="61" viewBox="0 0 60 61">
  <metadata><?xpacket begin="﻿" id="W5M0MpCehiHzreSzNTczkc9d"?>
<x:xmpmeta xmlns:x="adobe:ns:meta/" x:xmptk="Adobe XMP Core 5.6-c140 79.160451, 2017/05/06-01:08:21        ">
   <rdf:RDF xmlns:rdf="http://www.w3.org/1999/02/22-rdf-syntax-ns#">
      <rdf:Description rdf:about=""/>
   </rdf:RDF>
</x:xmpmeta>
                                                                                                    
                                                                                                    
                                                                                                    
                                                                                                    
                                                                                                    
                                                                                                    
                                                                                                    
                                                                                                    
                                                                                                    
                                                                                                    
                                                                                                    
                                                                                                    
                                                                                                    
                                                                                                    
                                                                                                    
                                                                                                    
                                                                                                    
                                                                                                    
                                                                                                    
                                                                                                    
                           
<?xpacket end="w"?></metadata>
<defs>
    <style>
      .cls-1 {
        fill-rule: evenodd;
        fill: url(#linear-gradient);
        filter: url(#filter);
      }
    </style>
    <linearGradient id="linear-gradient" x1="1206" y1="3879" x2="1206" y2="3820" gradientUnits="userSpaceOnUse">
      <stop offset="0" stop-color="#2486ed"/>
      <stop offset="1" stop-color="#38b8f2"/>
    </linearGradient>
    <filter id="filter" x="1177" y="3820" width="60" height="61" filterUnits="userSpaceOnUse">
      <feOffset result="offset" dx="2.427" dy="1.763" in="SourceAlpha"/>
      <feGaussianBlur result="blur"/>
      <feFlood result="flood" flood-color="#cee3fa"/>
      <feComposite result="composite" operator="in" in2="blur"/>
      <feBlend result="blend" in="SourceGraphic"/>
    </filter>
  </defs>
  <path id="形状_1383" data-name="形状 1383" class="cls-1" d="M1235,3876.66a2.332,2.332,0,0,1-2.32,2.34h-51.04a2.332,2.332,0,0,1-2.32-2.34h0v-29.92a4.663,4.663,0,0,1-.09-8.01l-0.81-2.77,53.39-15.96,2.64,8.98-45.94,13.73H1235v33.95Zm-55.68-33.95a2.32,2.32,0,1,0,2.32-2.34A2.332,2.332,0,0,0,1179.32,3842.71Zm46.68-13.65,5.56-1.66-5.76-3.16-5.56,1.66Zm-13.35,3.99,5.57-1.66-5.77-3.16-5.56,1.66Zm-13.34,3.99,5.56-1.66-5.77-3.16-5.56,1.66Zm-7.79,2.33-5.76-3.16-4.45,1.33,0.15,0.51c0.06,0,.12-0.02.18-0.02a4.638,4.638,0,0,1,4.32,3Zm-5.24,5.68-4.64,4.68h5.8l4.64-4.68h-5.8Zm13.92,0-4.64,4.68h5.8l4.64-4.68h-5.8Zm13.92,0-4.64,4.68h5.8l4.64-4.68h-5.8Zm18.56,0h-4.64l-4.64,4.68h6.96l2.32-2.34v-2.34h0Z" transform="translate(-1177 -3820)"/>
</svg>
