<svg xmlns="http://www.w3.org/2000/svg" xmlns:xlink="http://www.w3.org/1999/xlink" width="65.994" height="64.053" viewBox="0 0 68 66">
  <metadata><?xpacket begin="﻿" id="W5M0MpCehiHzreSzNTczkc9d"?>
<x:xmpmeta xmlns:x="adobe:ns:meta/" x:xmptk="Adobe XMP Core 5.6-c140 79.160451, 2017/05/06-01:08:21        ">
   <rdf:RDF xmlns:rdf="http://www.w3.org/1999/02/22-rdf-syntax-ns#">
      <rdf:Description rdf:about=""/>
   </rdf:RDF>
</x:xmpmeta>
                                                                                                    
                                                                                                    
                                                                                                    
                                                                                                    
                                                                                                    
                                                                                                    
                                                                                                    
                                                                                                    
                                                                                                    
                                                                                                    
                                                                                                    
                                                                                                    
                                                                                                    
                                                                                                    
                                                                                                    
                                                                                                    
                                                                                                    
                                                                                                    
                                                                                                    
                                                                                                    
                           
<?xpacket end="w"?></metadata>
<defs>
    <style>
      .cls-1 {
        fill-rule: evenodd;
        fill: url(#linear-gradient);
        filter: url(#filter);
      }
    </style>
    <linearGradient id="linear-gradient" x1="2571" y1="4828" x2="2571" y2="4764" gradientUnits="userSpaceOnUse">
      <stop offset="0" stop-color="#2486ed"/>
      <stop offset="1" stop-color="#38b8f2"/>
    </linearGradient>
    <filter id="filter" x="2538" y="4764" width="68" height="66" filterUnits="userSpaceOnUse">
      <feOffset result="offset" dx="2.427" dy="1.763" in="SourceAlpha"/>
      <feGaussianBlur result="blur"/>
      <feFlood result="flood" flood-color="#cee3fa"/>
      <feComposite result="composite" operator="in" in2="blur"/>
      <feBlend result="blend" in="SourceGraphic"/>
    </filter>
  </defs>
  <path id="形状_1396" data-name="形状 1396" class="cls-1" d="M2588.29,4811.43c-2.98-1.6-6.14-3.02-7.89-4.98-0.52-.53-0.87-3.73-1.4-6.75a18.648,18.648,0,0,0,5.61-8.54c1.57-.53,2.63-2.67,2.63-4.98a6.042,6.042,0,0,0-1.41-4.09c-0.35-9.95-6.65-18.09-14.36-18.09s-14.02,8-14.37,18.14a6.037,6.037,0,0,0-1.4,4.09,5.642,5.642,0,0,0,2.63,4.98,17.881,17.881,0,0,0,5.08,8c-0.53,3.2-.88,6.57-1.58,7.28-1.93,1.96-4.91,3.38-7.89,4.98-1.4.89-15.94,5.34-15.94,12.27,0,1.07.88,4.27,2.8,4.27h60.41c1.93,0,2.8-3.2,2.8-4.27,0.22-6.98-14.32-11.42-15.72-12.31h0Z" transform="translate(-2538 -4764)"/>
</svg>
