<?xml version="1.0" encoding="UTF-8"?>
<svg width="39px" height="25px" viewBox="0 0 39 25" version="1.1" xmlns="http://www.w3.org/2000/svg" xmlns:xlink="http://www.w3.org/1999/xlink">
    <!-- Generator: Sketch 50.2 (55047) - http://www.bohemiancoding.com/sketch -->
    <title>CRM</title>
    <desc>Created with Sketch.</desc>
    <defs></defs>
    <g id="Page-2" stroke="none" stroke-width="1" fill="none" fill-rule="evenodd">
        <g id="首页" transform="translate(-566.000000, -2062.000000)" fill="#6AA0F2" fill-rule="nonzero">
            <g id="Group-7" transform="translate(566.000000, 2062.000000)">
                <g id="CRM">
                    <path d="M19,24.9970755 C19.1445097,23.5465003 19.2516288,21.8785338 19.3233784,19.9931761 C19.395128,18.109768 19.4315081,16.4544746 19.4315081,15.0272958 C19.9107872,15.0368889 20.39015,15.0420883 20.8695315,15.0428934 C21.2838601,15.0428934 21.6911148,15.0350946 22.0872534,15.0204718 C22.4864237,15.0058491 22.9068156,15 23.3504504,15 C23.9052465,15 24.3983986,15.03217 24.8349595,15.0955352 C25.2715203,15.1589004 25.6575533,15.3041529 25.9971007,15.5342172 C26.336648,15.761357 26.5872663,16.0401638 26.7509766,16.3667382 C26.9167081,16.6933125 26.9995738,17.0725288 26.9995738,17.5063365 C27.008352,18.0192814 26.8814018,18.5259144 26.6307203,18.9783584 C26.515329,19.1874949 26.3689425,19.379283 26.1961805,19.5476701 C26.0304491,19.7104699 25.8647176,19.8401248 25.7010073,19.9337103 C25.5352759,20.0292455 25.3493333,20.1111328 25.1381267,20.1793722 C24.9269202,20.2476116 24.6469958,20.3294989 24.2933006,20.4269838 L24.7803894,21.3920842 C24.9360152,21.6972119 25.2341297,22.2489764 25.6747328,23.0405537 L26.3972815,24.3332034 C26.4346721,24.4014428 26.5488651,24.6227335 26.7408711,25 C26.3559058,24.9914143 25.9708673,24.9862149 25.5858037,24.9844024 C25.3543861,24.9844024 24.950163,24.9883018 24.3741452,25 L23.5808575,23.0561513 C23.4170746,22.7044014 23.2499889,22.3540913 23.0796209,22.0052642 L22.2155942,20.2310392 C22.1286863,20.0653149 22.0124721,19.8157536 21.8578568,19.4843049 C22.1792141,19.5437707 22.4692442,19.5720413 22.7319891,19.5720413 C23.1422755,19.5720413 23.5171924,19.5047768 23.8547186,19.3682979 C24.194266,19.2318191 24.4549898,19.0222266 24.6358796,18.7375707 C24.8167694,18.4529148 24.9087302,18.1429128 24.9087302,17.8056151 C24.9087302,17.6008969 24.8693184,17.4117762 24.7904949,17.2363034 C24.7116714,17.0608306 24.5813095,16.9126535 24.3933458,16.7898226 C24.2074032,16.6689413 23.9871017,16.5909534 23.7283989,16.5568337 C23.4696962,16.522714 23.2130145,16.5051667 22.9563329,16.5051667 C22.8118232,16.5051667 22.6167856,16.5090661 22.3702095,16.5129655 C22.1216124,16.5178397 21.8154134,16.5207643 21.4546444,16.5207643 L21.3263035,19.5213492 L21.1898783,24.9990252 L20.0812966,24.9853773 C19.904449,24.9834276 19.54368,24.987327 19,24.9970755 Z" id="Shape"></path>
                    <path d="M7.97994146,20.9908711 C4.6033329,20.652128 1.99998609,17.8591309 2.08224797,14.5314237 C2.1466265,11.4120539 4.56559455,8.80633029 7.77380284,8.40045442 C8.24027614,8.33979795 8.60609959,7.9851909 8.66707017,7.53353349 C9.09955684,4.37528598 11.8890497,2.01304325 15.1928574,2.00726255 L15.35351,2.0091289 C17.9054513,2.07707568 20.1889076,3.55535061 21.2202343,5.80715706 C21.3983071,6.19349211 21.802842,6.43425163 22.2412495,6.40438999 C22.4096444,6.39412505 22.5780393,6.38665963 22.7493376,6.38665963 L22.8722466,6.38852599 C24.4946745,6.42628646 26.0449694,7.04271361 27.2234165,8.11863513 C27.4431042,8.31646854 27.739247,8.41725159 28.0402287,8.38645677 C28.2689002,8.36447879 28.498523,8.35295671 28.7283252,8.35192924 L28.8434918,8.35286242 C30.5901905,8.38755337 32.249818,9.09494082 33.4520932,10.3171988 C34.0303351,10.9009907 34.4872938,11.5861481 34.7982848,12.3356595 L37,12.3356595 C36.6129698,11.0600491 35.9136164,9.89283131 34.960873,8.93236499 C33.3783594,7.32220879 31.1929787,6.39025699 28.892849,6.34466669 L28.7283252,6.34280034 C28.5859678,6.3427968 28.4436412,6.34684233 28.3015312,6.35493163 C26.7950409,5.12320607 24.8962113,4.42660565 22.9216037,4.38126344 L22.8122438,4.37939709 C21.3412077,1.76836938 18.505592,0.0737209397 15.4038349,0.00279952935 L15.1947929,0 C11.1146033,0 7.60637571,2.76406865 6.73730305,6.54156692 C2.86246116,7.37677585 0.0812145112,10.6570361 0.00247388614,14.4847649 C-0.106886036,18.9285511 3.42263286,22.6425934 7.98187703,23 L7.97994146,20.9908711 Z" id="Shape"></path>
                    <path d="M17.892042,23.0602882 C17.7899157,23.6194851 17.7029854,24.1812186 17.6313422,24.7448991 C17.1099427,24.8393809 16.6311855,24.9055182 16.197009,24.9423661 C15.7628324,24.9811036 15.389712,25 15.0795859,25 C14.3924627,25 13.7373213,24.9007941 13.1131925,24.7033271 C12.4890637,24.5058601 11.925991,24.1940701 11.4249435,23.7660674 C10.923896,23.3380647 10.5614362,22.8212492 10.3365947,22.2118414 C10.1071123,21.5702929 9.9933333,20.8948447 10.0003017,20.2154405 C10.0003017,19.4321862 10.1350128,18.7075106 10.405404,18.0423586 C10.6575298,17.4023739 11.0551451,16.826413 11.5683769,16.3577477 C12.0842019,15.8949967 12.6964378,15.5462863 13.3632317,15.3354544 C14.0600148,15.1107084 14.7895296,14.9974391 15.5234538,15.0000439 C16.2648491,15.0000439 17.0750535,15.087912 17.953098,15.2617586 C17.9656969,15.680313 17.9802341,15.9788756 17.9938021,16.153667 L18.0412902,16.9104664 C17.6170537,16.790697 17.1864386,16.6935516 16.7513594,16.6194624 C16.4269282,16.5692711 16.0990698,16.5430565 15.7705856,16.5410424 C15.282137,16.5410424 14.8111329,16.6185175 14.3604809,16.7715781 C13.9107869,16.9253653 13.5026046,17.1763368 13.1664954,17.5057019 C12.820511,17.8401675 12.5549655,18.2436049 12.369859,18.7179036 C12.1847525,19.1922024 12.0917147,19.6863423 12.0917147,20.2003234 C12.0917147,20.8154001 12.2051045,21.3633947 12.4347917,21.8490312 C12.6635097,22.3365574 13.0317844,22.7296018 13.5367085,23.0319436 C14.0416325,23.3342855 14.6676996,23.4845116 15.4129714,23.4845116 C16.1059094,23.4845116 16.9316202,23.3446785 17.892042,23.0602882 Z M28.0409188,24.8299327 L28.2192413,23.2322451 L28.6737698,17.6115215 L28.8327095,15.1691664 C29.4859126,15.1786146 29.9646698,15.1833387 30.2641353,15.1833387 C30.5064213,15.1833387 30.9473819,15.1786146 31.5870169,15.1691664 C31.6606719,15.5499281 31.7159131,15.8229806 31.7517714,15.9835997 C31.7895681,16.143274 31.8593464,16.4002645 31.9659523,16.7545714 C32.071589,17.1069886 32.2063,17.5387705 32.3710545,18.0414138 C32.6133405,18.8067165 32.8313979,19.5625711 33.0242576,20.3061431 L33.5466263,22.3308885 L34.4644057,19.7335832 L35.8008554,16.3568029 C35.8525603,16.227489 35.8994331,16.0963879 35.9413813,15.9637585 C35.9888693,15.815422 36.0702775,15.5499281 36.1836673,15.1672767 C36.6688239,15.1769053 37.1540648,15.1819445 37.6393217,15.1823938 C37.9232809,15.1823938 38.3778095,15.1776697 39,15.1672767 C38.9308953,16.6688372 38.8824338,18.1712331 38.8546284,19.6740597 C38.8245849,21.3180434 38.8071403,22.5453623 38.8071403,23.3569611 C38.8071403,23.7500055 38.8110169,24.2394213 38.8207083,24.8299327 C38.3681181,24.8204845 38.0599302,24.8148156 37.8951758,24.8148156 C37.6567663,24.8148156 37.3427636,24.8204845 36.948322,24.8299327 C36.9744889,24.3480754 36.9938718,23.9512518 37.0035632,23.6413514 L37.1169531,19.4293518 C37.1324594,18.8341163 37.1373051,18.2492738 37.1373051,17.6757691 L37.1314902,17.1022645 L34.607839,23.9890445 L34.3141884,24.8308775 C33.8693512,24.8214294 33.5631017,24.8157604 33.3983472,24.8157604 C33.1899812,24.8157604 32.8662871,24.8214294 32.4272649,24.8308775 L31.2439399,20.4705414 C31.1533939,20.1437186 31.0574361,19.8183437 30.9561041,19.4945442 L30.5306499,18.0499171 C30.490915,17.9129185 30.4608715,17.8004851 30.4376121,17.7154515 C30.4182292,17.6266386 30.3736486,17.4310612 30.302901,17.1296642 L30.2137398,18.0366897 C30.1914495,18.3239144 30.1565603,18.8057717 30.1119797,19.4794271 L29.8435267,23.8681078 C29.8338353,24.085416 29.8280204,24.4066542 29.8241439,24.8318224 L28.9383462,24.8167053 C28.7871597,24.8167053 28.4876942,24.8204845 28.0409188,24.8299327 Z" id="Shape"></path>
                </g>
            </g>
        </g>
    </g>
</svg>