<?xml version="1.0" encoding="UTF-8"?>
<svg width="43px" height="42px" viewBox="0 0 43 42" version="1.1" xmlns="http://www.w3.org/2000/svg" xmlns:xlink="http://www.w3.org/1999/xlink">
    <!-- Generator: Sketch 50.2 (55047) - http://www.bohemiancoding.com/sketch -->
    <title>Fill 1</title>
    <desc>Created with Sketch.</desc>
    <defs></defs>
    <g id="Page-2" stroke="none" stroke-width="1" fill="none" fill-rule="evenodd">
        <g id="首页" transform="translate(-1533.000000, -1903.000000)" fill="#00C1DE">
            <g id="Group-12" transform="translate(1533.000000, 1903.000000)">
                <path d="M13.0944962,6.40139339 C12.9282525,6.49301458 12.9282525,6.64320236 13.0944962,6.73482356 L21.202352,11.2433407 C21.3914487,11.3349619 21.6128083,11.3349619 21.802129,11.2433407 L29.9097607,6.73482356 C30.0746602,6.64320236 30.0746602,6.49146168 29.9097607,6.40139339 L21.8005606,1.89021408 C21.611688,1.79903657 21.3910006,1.79903657 21.202352,1.89021408 L13.0915836,6.40139339 L13.0944962,6.40139339 Z M11.9758236,17.2816879 C11.9758236,17.4678143 12.1115968,17.6967563 12.2764963,17.7883775 L20.3854723,22.2982258 C20.5501477,22.391178 20.686145,22.3126456 20.686145,22.1265192 L20.686145,13.1168057 C20.6740464,12.9098261 20.5622463,12.7212594 20.3854723,12.610116 L12.2764963,8.09871489 C12.1115968,8.00731554 11.9758236,8.08451694 11.9758236,8.27064329 L11.9758236,17.2816879 Z M22.6172163,12.610116 C22.4408904,12.7214813 22.3295384,12.9100479 22.3178879,13.1168057 L22.3178879,22.1265192 C22.3178879,22.3126456 22.4525409,22.391178 22.6172163,22.2982258 L30.7264163,17.7897086 C30.9036384,17.6783434 31.0154385,17.4891112 31.027089,17.2816879 L31.027089,8.27197435 C31.027089,8.085848 30.8926601,8.00731554 30.7279847,8.1002678 L22.6187846,12.6085631 L22.6172163,12.610116 Z M2.74772695,23.7566223 C2.58439583,23.8484653 2.58439583,23.9999842 2.74772695,24.0916054 L10.8584953,28.6027847 C11.0231708,28.692853 11.2920286,28.692853 11.4582723,28.6027847 L19.5674724,24.0916054 C19.7334921,23.9999842 19.7334921,23.8484653 19.5674724,23.7566223 L11.4582723,19.2483269 C11.2691757,19.1564839 11.047592,19.1564839 10.8584953,19.2483269 L2.74929529,23.7566223 L2.74772695,23.7566223 Z M23.4325276,23.7566223 C23.2678522,23.8484653 23.2678522,23.9999842 23.4325276,24.0916054 L31.5415036,28.6027847 C31.7064031,28.692853 31.9768292,28.692853 32.1415047,28.6027847 L40.2507047,24.0916054 C40.4169485,23.9999842 40.4169485,23.8484653 40.2507047,23.7566223 L32.1415047,19.2483269 C31.9521839,19.1564839 31.7308243,19.1564839 31.5415036,19.2483269 L23.4325276,23.7566223 Z M12.274928,29.96956 C12.0981539,30.0807033 11.9861299,30.26927 11.9742553,30.4762496 L11.9742553,39.4830792 C11.9742553,39.6692055 12.1086842,39.7466288 12.274928,39.6547857 L20.384128,35.1464904 C20.5611261,35.0351252 20.6731502,34.845893 20.6845766,34.6384697 L20.6845766,25.6316401 C20.6845766,25.4455138 20.5488034,25.3667595 20.384128,25.4597117 L12.274928,29.9682289 L12.274928,29.96956 Z M22.3167677,34.6384697 C22.3167677,34.8259271 22.4509725,35.0548692 22.615872,35.1464904 L30.725072,39.6547857 C30.8910917,39.7466288 31.0257447,39.6692055 31.0257447,39.4830792 L31.0257447,30.4762496 C31.0140942,30.2697137 30.9027422,30.0809252 30.7264163,29.96956 L22.6172163,25.4583807 C22.4509725,25.3667595 22.3167677,25.4441827 22.3167677,25.6316401 L22.3167677,34.6384697 Z M1.63331128,34.6384697 C1.63331128,34.8259271 1.76774019,35.0548692 1.93398394,35.1464904 L10.043184,39.6547857 C10.2078594,39.7466288 10.3422883,39.6692055 10.3422883,39.4830792 L10.3422883,30.4762496 C10.3308619,30.2697137 10.2195099,30.0809252 10.043184,29.96956 L1.93263965,25.4568277 C1.7663959,25.3652066 1.63196699,25.4426298 1.63196699,25.630309 L1.63196699,34.6369168 L1.63331128,34.6384697 Z M32.9583844,29.96956 C32.7816103,30.0807033 32.6695862,30.2694918 32.6574876,30.4762496 L32.6574876,39.4830792 C32.6574876,39.6692055 32.7932608,39.7466288 32.9583844,39.6547857 L41.0673603,35.1464904 C41.2443584,35.0351252 41.3563825,34.845893 41.368033,34.6384697 L41.368033,25.6316401 C41.368033,25.4455138 41.2320358,25.3667595 41.0673603,25.4597117 L32.9583844,29.9682289 L32.9583844,29.96956 Z M21.8005606,36.5119346 C21.6112399,36.4207571 21.3901044,36.4207571 21.2007836,36.5119346 L11.4582723,41.9304522 C11.2691757,42.0231826 11.047368,42.0231826 10.8584953,41.9304522 L0.299328376,36.0582655 C0.123002454,35.9462347 0.0116505057,35.7572244 0,35.5502448 L0,23.8083117 C0,23.6221854 0.135997249,23.3932433 0.299328376,23.3016221 L10.0418397,17.8828827 C10.2188378,17.7712956 10.3308619,17.5822853 10.3422883,17.3746402 L10.3422883,6.44997702 C10.3422883,6.26385067 10.4767172,6.0349086 10.642961,5.94350924 L21.2007836,0.0695478098 C21.3896563,-0.0231826033 21.611688,-0.0231826033 21.8005606,0.0695478098 L32.3583833,5.94350924 C32.5342611,6.05487447 32.6456131,6.2434411 32.6574876,6.44997702 L32.6574876,17.3746402 C32.6574876,17.5607665 32.7932608,17.7897086 32.9583844,17.8815516 L42.7006716,23.3016221 C42.8767735,23.4129873 42.9881254,23.601554 43,23.8083117 L43,35.5502448 C43,35.7374804 42.8642268,35.9653132 42.7006716,36.0582655 L32.1415047,41.9304522 C31.9521839,42.0227389 31.7308243,42.0227389 31.5415036,41.9304522 L21.7992164,36.5119346 L21.8005606,36.5119346 Z" id="Fill-1"></path>
            </g>
        </g>
    </g>
</svg>