<?xml version="1.0" encoding="UTF-8"?>
<svg width="45px" height="42px" viewBox="0 0 45 42" version="1.1" xmlns="http://www.w3.org/2000/svg" xmlns:xlink="http://www.w3.org/1999/xlink">
    <!-- Generator: Sketch 50.2 (55047) - http://www.bohemiancoding.com/sketch -->
    <title>个推logo-下拉框</title>
    <desc>Created with Sketch.</desc>
    <defs></defs>
    <g id="Page-2" stroke="none" stroke-width="1" fill="none" fill-rule="evenodd">
        <g id="首页" transform="translate(-1469.000000, -1725.000000)" fill="#0098E1" fill-rule="nonzero">
            <g id="Group-16" transform="translate(1469.000000, 1725.000000)">
                <g id="个推logo-下拉框">
                    <path d="M34.2700067,24.1023274 C34.0319081,24.1346323 33.7874635,24.1677696 33.5338962,24.2062976 C33.1536049,24.2632176 32.6259645,24.2912019 32.1157362,24.318235 C31.636723,24.3435636 31.1414478,24.3698039 30.7800759,24.419708 C29.8219701,24.5495221 28.9548122,25.4254797 28.9241921,26.2943025 C28.9007511,26.9592677 29.3877763,27.4447128 30.2603682,27.6260166 C31.8384107,27.9528706 33.5650318,27.2509629 34.8926802,26.6027249 C35.9574008,26.0829533 37.0548833,25.345213 37.9038358,24.5786162 C38.7725802,23.7941429 39.0730295,23.2506281 38.9854133,23.0600492 C38.9456311,22.9735593 38.6911516,22.7441749 37.090144,23.4336363 L37.0902233,23.4336363 C36.122519,23.8509836 35.2640473,23.9674793 34.2700067,24.1023274 Z M2.97311445,22.3022917 C-2.83997298,18.9886438 0.854540955,24.5515039 5.67200114,27.6093686 C5.88101033,27.7420444 6.09157064,27.8722638 6.30363856,28 C6.15728111,26.4868633 6.19880857,24.9899782 6.07799428,23.518937 C5.02231688,23.2329497 4.0241909,22.9013788 2.97311445,22.3022917 Z M10.702691,14.8602787 C11.6030074,14.8602787 12.3353499,13.7699594 12.3353499,12.4301195 C12.3353499,11.0900815 11.6030075,10 10.702691,10 C9.80185901,10 9.06927851,11.0900815 9.06927856,12.4301195 C9.06927856,13.7699593 9.80185901,14.8602786 10.702691,14.8602787 Z M10.3309669,10.4096576 C10.7909418,10.4096576 11.1636971,10.9371586 11.1636971,11.5874577 C11.1636971,12.2377569 10.7909418,12.7656146 10.3309669,12.7656146 C9.87099207,12.7656146 9.49811772,12.2377569 9.49811777,11.5874577 C9.49811781,10.9371586 9.87095242,10.4096576 10.3309669,10.4096576 Z M9.55709702,13.4367237 C9.55709702,13.2135623 9.68572497,13.0320605 9.84386241,13.0320605 C10.0014842,13.0320605 10.1298742,13.213602 10.1298742,13.4367237 C10.1298742,13.6610345 10.0014842,13.8421003 9.84386241,13.8421003 C9.68572497,13.8421003 9.55709702,13.6610344 9.55709702,13.4367237 Z" id="Shape"></path>
                    <path d="M43.7105902,30.2262804 C42.6250655,29.6128554 41.35379,29.7952196 40.3139983,30.7287819 C40.8681542,29.291926 39.7029937,27.6136999 38.1651405,26.8489186 C37.7533843,26.64414 37.3157444,26.5386816 36.8845754,26.5162276 C35.7041705,26.4547663 34.5736274,27.0228873 34.1558369,27.9307088 C34.0836248,28.0876093 34.0315796,28.2540538 34.005418,28.4296858 C33.8669089,29.3637629 34.9766499,29.8669377 36.4312943,31.5920122 C37.630834,33.0113643 36.9166521,34.4664367 36.0162827,35.4723903 C34.8264692,36.8011345 33.2457413,37.625991 32.3422754,35.6161828 C31.3818814,33.4825411 31.9146397,31.562628 32.9983779,28.3234354 C32.4175841,28.4825932 31.812177,28.5865864 31.2040306,28.5865863 C30.8636529,28.5865863 30.5319295,28.5537172 30.2176736,28.488771 C29.0028101,28.2366292 28.2988308,27.481669 28.3345201,26.4692604 C28.3774742,25.2513604 29.4792358,24.1161877 30.789297,23.9390112 C31.1836652,23.8846782 31.7000675,23.8573532 32.1995978,23.8309392 C32.700994,23.8044855 33.2195004,23.7771209 33.5735742,23.7242135 C33.7590613,23.6963729 33.944751,23.6698921 34.1306281,23.6447732 C35.0561269,17.9436041 34.6488169,12.0270433 34.2131223,10.3935271 C33.8586515,9.06106036 32.6741179,7.96481575 31.6224563,7.4808476 C30.6760363,7.04455952 29.7541104,6.87625374 28.7802188,6.85494825 C29.0353631,5.47060376 29.5365608,4.17361987 30.4478077,3.84528505 C30.9949766,3.64814953 31.6896267,3.79962471 32.5676456,4.49189595 C32.6962699,4.5933942 32.8070692,4.71053503 32.9121521,4.82949748 C33.2500287,5.21200693 33.526809,5.61411908 34.1303502,5.5825172 C36.2367303,5.47234622 35.4484307,2.51040269 34.4750155,1.51720078 C33.3503874,0.369593191 31.5234871,0.0413375714 30.2355778,1.09611959 C29.577014,1.63509399 28.5521094,3.08097898 28.5521094,3.98365218 C28.5512757,3.36840555 28.5326172,2.83549016 28.4151484,2.35686823 C28.329915,2.00960398 28.192041,1.69097149 27.9707994,1.39071404 C27.7890582,1.14403723 27.5517386,0.909478397 27.2396264,0.681651837 C26.3034884,-0.00186748402 25.0907686,-0.192112389 24.0066731,0.205564394 C23.7826129,0.287895586 23.5642297,0.409590582 23.3582722,0.559125272 C22.9974892,0.821048603 22.6772388,1.17215419 22.4431745,1.57121703 C22.1630199,2.04880936 22.0054553,2.59273393 22.0492828,3.1281838 C22.1079973,3.84326542 22.4006571,4.40592144 23.0851839,4.61648179 C23.8647895,4.85618879 24.231686,4.18550026 24.7126373,3.74568765 C25.0443607,3.44230169 25.4303127,3.24873028 26.0434214,3.53960223 C26.1598665,3.59474953 26.2690761,3.66396346 26.3685945,3.74568765 C26.9264821,4.20177642 27.0299373,4.96097394 27.0299372,5.68029294 C27.0294212,6.11337331 27.0293814,6.52550461 27.0139386,6.94357607 C26.3053939,7.01671979 25.5540143,7.12423745 24.7362184,7.2308047 C23.229251,7.42790063 18.0208046,8.18270241 16.8141588,8.23715427 C14.0311917,8.3632846 10.8079646,8.57946835 8.41075093,10.103764 C8.14099742,10.2748814 7.91515077,10.4835013 7.72404061,10.7178226 C6.87099223,11.7748222 6.6149348,12.0868413 6.60508948,13.4188724 C6.59341801,14.876321 6.80255145,16.4012107 6.78647343,17.8131177 C6.7742859,18.7903602 6,18.8704738 6,19.950363 C6,21.4628971 6.41485272,21.2455649 6.69318117,22.8246688 C6.77337281,23.2802032 6.82660892,23.7386284 6.86452133,24.1994694 C6.98707162,25.6888366 6.94491144,27.2043804 7.09338508,28.7363587 C7.13562461,29.17233 7.19346583,29.6096081 7.27500719,30.0480347 C7.27254586,30.1238317 7.26873476,30.1989158 7.26873476,30.27598 C7.26873476,30.6489059 7.29858829,31.0379101 7.35754108,31.4327355 C7.45337406,32.0608922 7.89907279,34.2749246 9.61033037,36.3915377 C11.5666885,38.8156156 14.44136,40.2718762 18.1534781,40.722896 C21.0991311,41.829041 23.4356055,42 24.580877,42 C25.0547222,41.9996832 25.3641745,41.9720414 25.4848986,41.9589334 C25.8067767,41.9742195 26.1345699,41.9819814 26.4682782,41.9819814 C27.7037851,41.9819814 28.8384967,41.8765626 29.7657819,41.7476206 C30.0422842,41.7646888 30.3214066,41.7749851 30.5981868,41.7749851 C32.407699,41.7749851 33.7825488,41.40198 34.6174151,41.0890501 C35.0667662,40.9201899 35.4606976,40.7312123 35.7557393,40.5433039 C35.896432,40.4550324 36.007152,40.3719884 36.0940527,40.289776 C36.1443114,40.242294 36.1838912,40.1971088 36.2228357,40.1413501 C36.2632491,40.0786216 36.305052,39.9983892 36.3077515,39.8877827 C36.3085454,39.8759419 36.307553,39.8638635 36.3070766,39.8518642 C38.0535074,38.8567219 39.103184,37.360266 40.0367417,35.5443459 C41.3110343,33.0681922 44.751017,33.6038005 44.9591183,32.5980449 C45.1793277,31.5271452 44.4737207,30.6571827 43.7105902,30.2262804 Z M34.4795015,3.67020748 C34.8865732,5.25873655 33.3096564,5.02599937 33.2637646,4.1009118 C33.2163245,3.17550742 32.1703795,1.99479306 30.447768,2.31374237 C30.447768,2.31374237 33.8014455,1.02158986 34.4795015,3.67020748 Z M24.4174766,1.8285466 C23.8481557,2.43527894 24.1003226,3.23277093 23.783129,3.5178215 C23.0460409,4.17809484 21.8106135,3.35795085 22.8300396,1.65160777 C23.7914261,0.0422484218 26.0580703,0.329397818 26.7414062,1.74467093 C25.8962182,0.969553654 24.8652793,1.35245911 24.4174766,1.8285466 Z M29.2915794,38.567632 C28.9857606,38.409969 28.6904386,38.2328219 28.4074468,38.0372907 C28.4037152,38.0347166 28.3997055,38.0324989 28.3960136,38.0299248 C26.194396,36.4990157 25.0068056,33.9916957 24.8592054,30.5713665 C24.848689,30.3297674 24.8432888,30.0879736 24.8430083,29.846147 C24.8430083,29.1653601 24.8836996,28.4303194 24.9639706,27.6608651 C24.9663526,27.656509 24.9688933,27.6525093 24.9713149,27.6481927 C25.0208987,27.5594064 25.0761595,27.4798474 25.1303484,27.4207225 C25.2240376,27.3173234 25.3028001,27.280613 25.3479377,27.280613 C25.3681047,27.2802961 25.4183634,27.2790685 25.5242005,27.3610829 C25.6049082,27.4237718 25.7359937,27.5567532 25.9026097,27.8353487 C25.9685494,27.9437376 26.0598567,28.1875631 26.1199608,28.7340618 C26.1658129,29.1387876 26.187806,29.6186372 26.2131736,30.1742838 C26.256088,31.1126774 26.3063864,32.1882105 26.4881277,33.2873857 C26.6108764,34.0295546 26.792975,34.782416 27.0754718,35.5114768 C27.5679357,36.7803438 28.3125666,37.8067712 29.2915794,38.567632 Z M31.6490942,14.0580778 C32.4106765,14.3453857 31.8569176,15.639043 31.8569176,15.639043 C31.9253186,13.8422109 29.7071467,14.2735092 29.7071467,14.2735092 C29.7071467,14.2735093 30.8860828,13.7704928 31.6490942,14.0580778 Z M28.4151087,3.90932044 C28.4151087,5.45951539 28.0586927,6.24330534 28.0586926,6.24330538 C28.0586926,6.24330543 28.4161805,2.94015656 27.3753567,1.39075364 C27.3753567,1.39075364 28.4151087,2.12306186 28.4151087,3.90932044 Z M26.0788724,7.51482558 C26.3905082,7.51482558 26.6881701,7.59652319 26.9617347,7.7435234 C27.5939385,8.0832238 28.0957316,8.77565343 28.3341231,9.64149739 C28.4318616,9.99656311 28.4856138,10.3804982 28.4856138,10.7811847 C28.4856138,12.5822938 27.4061233,14.0475043 26.0789121,14.0475043 C24.751304,14.0475043 23.6716547,12.5822938 23.6716547,10.7811847 C23.671615,8.98059042 24.7512643,7.51482558 26.0788724,7.51482558 Z M10.8919276,9.55738414 C12.156891,9.55738414 13.1858052,10.9544406 13.1858052,12.6706049 C13.1858052,14.3872839 12.156891,15.7838256 10.8919276,15.7838256 C9.62652752,15.7838256 8.59753391,14.3872839 8.59753391,12.6706049 C8.59749422,10.9544407 9.62652752,9.55738414 10.8919276,9.55738414 Z M7.2649634,20.9472083 C7.17564106,20.9472083 7.09005039,20.9292292 7.0140668,20.886539 C6.81755761,20.7761701 6.74209012,20.5288596 6.81211888,20.225038 C6.8617424,20.0158637 6.95027078,19.8278761 7.03590118,19.6460662 C7.06464315,19.5850405 7.09334538,19.5241733 7.12041998,19.4626724 C7.13852266,19.4219622 7.16047609,19.3453732 7.18373959,19.2642696 C7.27004484,18.9630617 7.34285248,18.7444227 7.49418443,18.6733382 L7.56738905,18.6389642 L7.62967653,18.6913173 C7.6949414,18.7461651 7.89355463,18.9131641 7.528246,19.8913174 C7.49894827,19.971629 7.48346571,20.043941 7.47850339,20.0925715 C7.50244178,20.0800179 7.52447464,20.0666722 7.54658688,20.0534058 C7.56504685,20.0422778 7.58350681,20.031229 7.60208582,20.0208534 C7.66532603,19.9844598 7.72908236,19.9463237 7.79275929,19.9082668 C7.87080719,19.8616164 7.9487757,19.8150056 8.02785573,19.7702957 C8.52952981,19.4795426 9.07141877,19.2137383 9.63728585,18.9807239 C10.4909694,18.6315588 11.3918549,18.3512208 12.3918287,18.1236319 C13.6582212,17.8357301 14.9914269,17.6514254 16.4676674,17.5601838 C17.9821777,17.4664078 19.5484552,17.4767438 21.2559414,17.5913501 C21.7181152,17.6223579 22.1600425,17.6527322 22.5825571,17.6818392 C27.8052156,18.0413403 29.966777,18.1900434 30.2929029,16.717071 C30.3418912,16.49962 30.0106442,16.2014218 29.6705444,16.0591342 C29.6191344,16.037789 29.5591098,16.018424 29.497259,15.9982669 C29.2789155,15.9270637 29.0315124,15.8463165 28.958665,15.6400726 C28.9177355,15.5240011 28.9419121,15.3929602 29.0305993,15.2503954 C29.198962,14.9796805 29.4685171,14.8811919 29.7694739,14.9796805 C30.3027085,15.1544413 30.9168097,15.971338 30.8796913,16.7236448 C30.8556338,17.2213942 30.5661896,18.8496434 27.8544819,18.900452 C26.0097171,18.9337171 24.2134643,18.7194342 22.4769185,18.5118043 C20.4846726,18.2736022 18.6030277,18.0484289 16.7165394,18.1845387 C12.4230319,18.4931917 9.19190471,19.6757277 8.00673597,20.6438619 C7.83214051,20.7866248 7.53189828,20.9472083 7.2649634,20.9472083 Z M23.5054754,19.7167547 C23.5054754,19.7167547 17.6561709,18.4720842 13.5148687,19.4675037 C13.5148687,19.4675037 16.2142302,17.6325751 23.5054754,19.7167547 Z M10.201565,35.9197272 C8.60658523,33.9494015 8.19510689,31.9008235 8.1069755,31.3201489 C8.05358057,30.9643308 8.02650596,30.612948 8.02650596,30.2759008 C8.02650596,29.3767125 8.22337244,28.5572022 8.58117799,27.9679736 C8.91175012,27.4202869 9.29599508,27.2260819 9.5273995,27.2254879 L9.57384716,27.2260027 C9.93077932,27.2320617 10.1321715,27.2969287 10.258771,27.3754978 C10.2285602,27.725851 10.2119264,28.1137858 10.2119264,28.5156603 C10.2119264,30.0953187 10.4495635,32.4745283 11.5813771,34.8383727 C12.493418,36.7458114 13.8163416,38.2733147 15.5265671,39.4053194 C13.3130399,38.7219585 11.5257987,37.5549066 10.201565,35.9197272 Z M19.2674669,40.3178533 C19.0018818,40.2308096 18.7284362,40.133311 18.4509414,40.0297139 C18.367296,39.998508 18.2850004,39.9692426 18.200283,39.9363735 C15.4815089,38.879453 13.4848564,37.0554147 12.2656658,34.5153048 C11.1377824,32.1579947 10.9693403,29.7444903 10.9693403,28.5156603 C10.9693403,27.9308672 11.004434,27.4940642 11.0340097,27.2303984 C11.0390117,27.1848173 11.0442123,27.1421666 11.0494525,27.1014961 C11.0830377,26.8403647 11.1192431,26.6803753 11.1360753,26.6296063 L11.1954648,26.4761115 C11.5064257,25.7310517 12.0301327,25.3209401 12.6809949,25.3169007 C13.3607579,25.3171779 14.0880007,25.8232436 14.221746,26.6566145 C14.2357994,26.7441334 14.2454065,26.8341077 14.2455653,26.9286758 C14.2455653,26.9523177 14.2456844,26.9750093 14.243898,27.0045915 C14.2347672,27.2685741 14.2305592,27.4872132 14.2305592,27.692467 C14.2300828,29.3287157 14.4788753,30.889207 14.9652257,32.3519621 C15.7565027,34.731845 17.1778001,36.8525766 19.1866004,38.6165793 C20.2402073,39.5434885 21.347209,40.2350074 22.3155031,40.7363605 C22.6147549,40.8913054 22.9185586,41.0373405 23.2265118,41.1742722 C22.213358,41.0728927 20.852522,40.8374627 19.2674669,40.3178533 Z M26.4777663,41.2284864 L26.458552,41.2284864 C26.146559,41.2284864 25.8403222,41.221279 25.5395639,41.2073789 C25.5179677,41.201914 25.4842634,41.1931621 25.4351957,41.1797372 C24.9055736,41.0360239 22.1394785,40.2097416 19.6884729,38.0529728 C16.5709241,35.3072923 14.9901962,31.8215417 14.9901962,27.6925462 C14.9901962,27.4549381 14.9936897,27.2387543 15.0006767,27.0369458 C15.0028602,27.001463 15.0044482,26.9650694 15.0044481,26.9285173 C15.0043687,26.837355 14.9965084,26.7456779 14.9851148,26.6540404 C15.0512133,25.9929354 15.1664193,25.5148679 15.3376801,25.1752071 C15.6245438,24.6126699 16.0554746,24.3431827 16.9266256,24.1811735 C17.0797042,24.1535318 17.226709,24.1394733 17.362082,24.1394733 C17.9306883,24.1434334 18.6898886,24.3370444 19.519872,25.8105316 C19.6124894,25.9763424 19.7035188,26.1560138 19.7933175,26.3468923 C19.7178501,26.654476 19.6778734,26.9879589 19.6778734,27.3444504 C19.6778734,27.5650299 19.6929589,27.7972522 19.7228919,28.0371572 L19.719835,28.0375928 L19.7506016,28.2344511 L19.7508001,28.2356788 L19.7809712,28.4299234 L19.7814873,28.4298442 C20.5088889,32.9657435 21.6619016,36.2197074 23.3042818,38.3733874 C24.3435177,39.7376143 25.597286,40.6783445 27.0959961,41.2189425 C26.893016,41.2249223 26.6869394,41.2284864 26.4777663,41.2284864 Z M32.4493034,40.8774205 C31.906819,40.9642662 31.2910108,41.0214902 30.6073176,41.0214902 C30.318072,41.0191141 30.0186237,41.0109166 29.7240187,40.9908783 C29.7142131,40.9902051 29.7042487,40.9900863 29.6944431,40.9893735 C28.3465488,40.8892613 27.1900823,40.5540754 26.1794296,39.9653221 C25.3268973,39.4686816 24.577701,38.7922904 23.9085773,37.9179718 C23.0434605,36.7854919 22.3195127,35.3176282 21.7251418,33.4887586 C21.2435951,32.0069948 20.846845,30.2888901 20.5308423,28.3150003 L20.5309218,28.3150003 L20.5254036,28.2800719 L20.4961853,28.095094 C20.4562086,27.8357447 20.4360018,27.5833257 20.4360018,27.3444107 C20.4360018,26.9526346 20.4926124,26.5999449 20.5988464,26.2932721 C20.6877718,26.0365365 20.8108779,25.8115216 20.9699511,25.6278901 C21.2682084,25.2864868 21.6584875,25.1055483 22.0976359,25.1046374 C22.7905393,25.1061423 23.7184993,25.6074162 24.0533192,27.0147295 C24.100402,27.2152312 24.1501049,27.4401272 24.2015547,27.6772997 C24.1246183,28.4306758 24.0840858,29.1602911 24.0840858,29.8461866 C24.0815054,33.8497645 25.4228493,36.8934056 27.9628994,38.6478643 C29.8607415,39.9625105 31.9732351,40.3032801 33.3282355,40.3695727 C33.6259767,40.4128966 33.8845748,40.4465577 34.1071264,40.4706354 C33.6756002,40.6178732 33.1183874,40.7702592 32.4493034,40.8774205 Z" id="Shape"></path>
                    <path d="M26.0004644,13 C27.1030833,13 28.0000001,11.8782996 28,10.499961 C28,9.1213886 27.1030832,8 26.0004644,8 C24.8971954,8 24,9.12142758 24,10.499961 C23.9999536,11.8782996 24.8971954,13 26.0004644,13 Z M25.5426263,8.41177479 C26.1089803,8.41177479 26.568072,8.95678004 26.568072,9.62944168 C26.568072,10.3013237 26.1089803,10.8471475 25.5426263,10.8471475 C24.9772009,10.8471475 24.5181092,10.3013237 24.5181092,9.62944168 C24.5180628,8.95678004 24.9771546,8.41177479 25.5426263,8.41177479 Z M24.5910568,11.5408579 C24.5910568,11.3096341 24.7491178,11.1219499 24.9436757,11.1219499 C25.1378157,11.1219499 25.2958766,11.3096341 25.2958766,11.5408579 C25.2958766,11.7717308 25.1378157,11.959415 24.9436757,11.959415 C24.7491178,11.959415 24.5910568,11.7717308 24.5910568,11.5408579 Z" id="Shape"></path>
                </g>
            </g>
        </g>
    </g>
</svg>