<?xml version="1.0" encoding="UTF-8"?>
<svg width="481px" height="488px" viewBox="0 0 481 488" version="1.1" xmlns="http://www.w3.org/2000/svg" xmlns:xlink="http://www.w3.org/1999/xlink">
    <!-- Generator: Sketch 50.2 (55047) - http://www.bohemiancoding.com/sketch -->
    <title>流通线</title>
    <desc>Created with Sketch.</desc>
    <defs>
        <polygon id="path-1" points="0.000181049074 0.838067046 12.1598405 0.838067046 12.1598405 13 0.000181049074 13"></polygon>
        <polygon id="path-3" points="0.000181049074 0.375375 12.1598405 0.375375 12.1598405 14 0.000181049074 14"></polygon>
    </defs>
    <g id="Page-2" stroke="none" stroke-width="1" fill="none" fill-rule="evenodd">
        <g id="新首页移动端-copy-2" transform="translate(-135.000000, -2836.000000)">
            <g id="Group-23" transform="translate(135.000000, 2835.000000)">
                <g id="流通线">
                    <g id="Group-56" opacity="0.6">
                        <g id="Group-3" transform="translate(0.000000, 476.000000)">
                            <mask id="mask-2" fill="white">
                                <use xlink:href="#path-1"></use>
                            </mask>
                            <g id="Clip-2"></g>
                            <path d="M5.6867525,12.987845 C9.0365275,13.20592 11.9322775,10.664095 12.1467775,7.31432 C12.3648525,3.964545 9.8266025,1.068795 6.4732525,0.85072 C3.1234775,0.63622 0.2313025,3.17447 0.0132275,6.524245 C-0.2048475,9.877595 2.3369775,12.766195 5.6867525,12.987845" id="Fill-1" fill="#FEFEFE" mask="url(#mask-2)"></path>
                        </g>
                        <path d="M5.98901679,463.913526 C9.25501534,464.470674 12.3552451,462.277345 12.9125105,459.012035 C13.4733029,455.750251 11.2795112,452.650674 8.01351265,452.086474 C4.7475141,451.529326 1.64728438,453.722655 1.08649197,456.987965 C0.529226564,460.253276 2.72301824,463.352852 5.98901679,463.913526" id="Fill-4" fill="#FEFEFE"></path>
                        <path d="M10.3759594,439.773426 C13.5640869,440.672864 16.8756484,438.814026 17.7749543,435.621903 C18.6707334,432.433308 16.812168,429.121261 13.6240406,428.22535 C10.4359131,427.32944 7.12435158,429.184751 6.22504572,432.373346 C5.32926656,435.565468 7.18783199,438.877515 10.3759594,439.773426" id="Fill-6" fill="#FEFEFE"></path>
                        <path d="M14.7807567,417.573923 C17.8598381,418.797682 21.3480529,417.295315 22.571926,414.220047 C23.7993262,411.141253 22.2968191,407.653363 19.2212647,406.426077 C16.1421833,405.202318 12.6539685,406.704685 11.4265684,409.779953 C10.2026952,412.858747 11.7016753,416.346637 14.7807567,417.573923" id="Fill-8" fill="#FEFEFE"></path>
                        <path d="M24.2116971,394.311 C27.1463296,395.852234 30.7722937,394.720115 32.310154,391.7893 C33.8515414,388.854959 32.7228367,385.229355 29.7917314,383.688121 C26.857099,382.150413 23.2311348,383.275479 21.6897473,386.20982 C20.1483599,389.140634 21.2770647,392.769765 24.2116971,394.311" id="Fill-10" fill="#FEFEFE"></path>
                        <path d="M34.6699706,372.990588 C37.4250055,374.828475 41.1501231,374.087676 42.9915165,371.329081 C44.8293823,368.574014 44.0850643,364.848853 41.3300294,363.010965 C38.5714669,361.169551 34.8463493,361.913877 33.0084835,364.672472 C31.1706177,367.427539 31.9149357,371.1527 34.6699706,372.990588" id="Fill-12" fill="#FEFEFE"></path>
                        <path d="M46.1673457,352.61434 C48.7177452,354.734326 52.4992504,354.381583 54.6157645,351.83125 C56.7322786,349.284445 56.3830538,345.499512 53.8326543,343.383054 C51.2857823,341.266595 47.5007496,341.619338 45.3842355,344.166143 C43.2677214,346.712948 43.6169462,350.494354 46.1673457,352.61434" id="Fill-14" fill="#FEFEFE"></path>
                        <path d="M61.7054811,333.187292 C64.0194067,335.561265 67.8183364,335.610649 70.1886992,333.293115 C72.5625893,330.979109 72.6084445,327.183574 70.2945189,324.8096 C67.9805933,322.439155 64.1816636,322.38977 61.8113008,324.707304 C59.4374107,327.017784 59.3915555,330.816846 61.7054811,333.187292" id="Fill-16" fill="#FEFEFE"></path>
                        <path d="M79.2906028,316.71808 C81.3436883,319.318007 85.1147337,319.7625 87.7181309,317.709368 C90.3180003,315.656237 90.7624828,311.885108 88.7093972,309.28518 C86.6563117,306.681725 82.8852663,306.237233 80.2818691,308.290364 C77.6819997,310.343495 77.2375172,314.118153 79.2906028,316.71808" id="Fill-18" fill="#FEFEFE"></path>
                        <path d="M96.929081,301.205405 C98.6999341,304.005731 102.40391,304.841596 105.204821,303.071113 C108.005732,301.30063 108.841772,297.597429 107.070919,294.797104 C105.303594,291.996778 101.59609,291.157386 98.7951792,292.927869 C95.9942681,294.698352 95.1582279,298.40508 96.929081,301.205405" id="Fill-20" fill="#FEFEFE"></path>
                        <path d="M117.621313,287.658052 C119.088464,290.628298 122.685803,291.845323 125.655371,290.377838 C128.628467,288.910353 129.845214,285.315721 128.378064,282.341948 C126.910913,279.371702 123.313574,278.154677 120.344006,279.622162 C117.374437,281.089647 116.154163,284.687807 117.621313,287.658052" id="Fill-22" fill="#FEFEFE"></path>
                        <path d="M139.374427,276.079809 C140.524231,279.186668 143.973642,280.7736 147.080933,279.627482 C150.188224,278.477839 151.775377,275.028908 150.625573,271.918522 C149.479296,268.811663 146.026358,267.224731 142.919067,268.374375 C139.811776,269.524019 138.224623,272.97295 139.374427,276.079809" id="Fill-24" fill="#FEFEFE"></path>
                        <path d="M185.06394,259.866911 C185.540129,263.147518 188.58774,265.415723 191.864627,264.935979 C195.141515,264.459761 197.413114,261.411971 196.936925,258.138418 C196.457208,254.857811 193.413124,252.589606 190.13271,253.062295 C186.855822,253.54204 184.584223,256.586303 185.06394,259.866911" id="Fill-28" fill="#FEFEFE"></path>
                        <path d="M211.005,256.238239 C211.139084,259.547113 213.930163,262.125776 217.239938,261.995256 C220.553241,261.864735 223.129079,259.070889 222.994994,255.758488 C222.864438,252.449614 220.073359,249.87095 216.760056,250.004998 C213.450281,250.139046 210.870915,252.929365 211.005,256.238239" id="Fill-30" fill="#FEFEFE"></path>
                        <path d="M233.012872,254.613575 C232.797716,257.918511 235.305514,260.771972 238.610445,260.987128 C241.915377,261.202284 244.768834,258.694483 244.987517,255.389547 C245.199145,252.081085 242.694875,249.231151 239.386416,249.012468 C236.081485,248.800839 233.228027,251.30864 233.012872,254.613575" id="Fill-32" fill="#FEFEFE"></path>
                        <path d="M233.012872,274.613575 C232.797716,277.918511 235.305514,280.771972 238.610445,280.987128 C241.915377,281.202284 244.768834,278.694483 244.987517,275.389547 C245.199145,272.081085 242.694875,269.231151 239.386416,269.012468 C236.081485,268.800839 233.228027,271.30864 233.012872,274.613575" id="Fill-34" fill="#FEFEFE"></path>
                        <path d="M233.012872,295.613757 C232.797716,298.9188 235.305514,301.772353 238.610445,301.987516 C241.915377,302.199152 244.768834,299.694797 244.987517,296.389754 C245.199145,293.081184 242.694875,290.231158 239.386416,290.012468 C236.081485,289.800832 233.228027,292.308714 233.012872,295.613757" id="Fill-36" fill="#FEFEFE"></path>
                        <path d="M233.012872,339.613757 C232.797716,342.9188 235.305514,345.772353 238.610445,345.987516 C241.915377,346.199152 244.768834,343.694797 244.987517,340.389754 C245.199145,337.081184 242.694875,334.231158 239.386416,334.012468 C236.081485,333.800832 233.228027,336.308714 233.012872,339.613757" id="Fill-40" fill="#FEFEFE"></path>
                        <path d="M233.012872,360.03881 C232.797716,363.343848 235.305514,366.200925 238.610445,366.416087 C241.915377,366.627723 244.768834,364.123371 244.987517,360.818333 C245.199145,357.509768 242.694875,354.659745 239.386416,354.441055 C236.081485,354.22942 233.228027,356.733771 233.012872,360.03881" id="Fill-42" fill="#FEFEFE"></path>
                        <path d="M233.012872,380.467381 C232.797716,383.772419 235.305514,386.629496 238.610445,386.844659 C241.915377,387.056294 244.768834,384.551943 244.987517,381.246905 C245.199145,377.938339 242.694875,375.084789 239.386416,374.869627 C236.081485,374.657992 233.228027,377.162343 233.012872,380.467381" id="Fill-44" fill="#FEFEFE"></path>
                        <path d="M233.012872,400.895953 C232.797716,404.200991 235.305514,407.058068 238.610445,407.27323 C241.915377,407.484866 244.768834,404.980514 244.987517,401.675476 C245.199145,398.36691 242.694875,395.513361 239.386416,395.298198 C236.081485,395.086563 233.228027,397.590914 233.012872,400.895953" id="Fill-46" fill="#FEFEFE"></path>
                        <path d="M233.012872,421.324524 C232.797716,424.629562 235.305514,427.486639 238.610445,427.701802 C241.915377,427.913437 244.768834,425.409086 244.987517,422.104047 C245.199145,418.795482 242.694875,415.941932 239.386416,415.72677 C236.081485,415.515134 233.228027,418.019486 233.012872,421.324524" id="Fill-48" fill="#FEFEFE"></path>
                        <path d="M233.012872,441.753095 C232.797716,445.058134 235.305514,447.915211 238.610445,448.130373 C241.915377,448.342008 244.768834,445.837657 244.987517,442.532619 C245.199145,439.224053 242.694875,436.370504 239.386416,436.155341 C236.081485,435.943706 233.228027,438.448057 233.012872,441.753095" id="Fill-50" fill="#FEFEFE"></path>
                        <path d="M233.012872,462.181667 C232.797716,465.486705 235.305514,468.343782 238.610445,468.558945 C241.915377,468.77058 244.768834,466.266229 244.987517,462.96119 C245.199145,459.652625 242.694875,456.799075 239.386416,456.583913 C236.081485,456.372277 233.228027,458.876629 233.012872,462.181667" id="Fill-52" fill="#FEFEFE"></path>
                        <path d="M233.012872,482.610238 C232.797716,485.915277 235.305514,488.772353 238.610445,488.987516 C241.915377,489.199151 244.768834,486.6948 244.987517,483.389762 C245.199145,480.081196 242.694875,477.227647 239.386416,477.012484 C236.081485,476.800849 233.228027,479.3052 233.012872,482.610238" id="Fill-54" fill="#FEFEFE"></path>
                        <path d="M258.086499,254.986487 C257.529187,258.256013 259.723161,261.356243 262.989432,261.913508 C266.252174,262.470773 269.352662,260.276982 269.913501,257.010983 C270.470813,253.744985 268.276839,250.648282 265.010568,250.08749 C261.747826,249.526697 258.647338,251.720489 258.086499,254.986487" id="Fill-56" fill="#FEFEFE"></path>
                        <path d="M283.225333,257.375507 C282.329422,260.563305 284.184733,263.878051 287.376856,264.773738 C290.565451,265.672951 293.877498,263.811051 294.773408,260.623253 C295.672846,257.435455 293.814008,254.124235 290.625413,253.225022 C287.436818,252.329336 284.121244,254.187709 283.225333,257.375507" id="Fill-58" fill="#FEFEFE"></path>
                        <path d="M329.689753,271.208685 C328.148353,274.143699 329.277067,277.770134 332.211724,279.311721 C335.142853,280.849781 338.772374,279.724458 340.310247,276.789444 C341.851647,273.857958 340.722933,270.231523 337.788276,268.689936 C334.857147,267.148348 331.231153,268.277199 329.689753,271.208685" id="Fill-62" fill="#FEFEFE"></path>
                        <path d="M352.009323,281.670848 C350.171598,284.425883 350.912332,288.151 353.670684,289.988866 C356.425508,291.830259 360.150341,291.085941 361.991594,288.330906 C363.829319,285.572344 363.085058,281.847227 360.330233,280.005834 C357.571882,278.171496 353.847049,278.915814 352.009323,281.670848" id="Fill-64" fill="#FEFEFE"></path>
                        <path d="M372.383222,294.167234 C370.266506,296.717501 370.619292,300.49881 373.166407,302.618742 C375.713522,304.731619 379.498916,304.382413 381.615632,301.832145 C383.732348,299.285405 383.38309,295.504096 380.832447,293.384164 C378.281804,291.267759 374.499938,291.616966 372.383222,294.167234" id="Fill-66" fill="#FEFEFE"></path>
                        <path d="M391.810393,308.704263 C389.439516,311.018358 389.390123,314.817566 391.70455,317.188103 C394.018977,319.562168 397.818731,319.608026 400.189607,317.297458 C402.560484,314.979835 402.609877,311.180627 400.29545,308.81009 C397.981023,306.436026 394.181269,306.393695 391.810393,308.704263" id="Fill-68" fill="#FEFEFE"></path>
                        <path d="M411.28192,324.290603 C408.681993,326.343688 408.2375,330.114734 410.290632,332.718131 C412.343763,335.318 416.114892,335.762483 418.71482,333.709397 C421.318275,331.656312 421.762767,327.885266 419.709636,325.281869 C417.656505,322.682 413.881847,322.237517 411.28192,324.290603" id="Fill-70" fill="#FEFEFE"></path>
                        <path d="M425.795179,342.928929 C422.994268,344.699492 422.158228,348.406388 423.929081,351.206841 C425.696406,354.007294 429.40391,354.83967 432.204821,353.072634 C435.005732,351.302071 435.841772,347.595174 434.070919,344.794722 C432.300066,341.994269 428.59609,341.158366 425.795179,342.928929" id="Fill-72" fill="#FEFEFE"></path>
                        <path d="M440.341948,362.621425 C437.371702,364.088641 436.154677,367.686142 437.622162,370.655844 C439.089647,373.625546 442.687807,374.845875 445.658052,373.378659 C448.628298,371.911443 449.845323,368.310415 448.377838,365.340713 C446.910353,362.374538 443.312193,361.154209 440.341948,362.621425" id="Fill-74" fill="#FEFEFE"></path>
                        <path d="M451.919067,383.374403 C448.811776,384.520721 447.224623,387.973786 448.374427,391.081191 C449.520704,394.185069 452.970115,395.775807 456.080933,394.625961 C459.188224,393.476115 460.775377,390.030105 459.625573,386.9227 C458.475769,383.811767 455.026358,382.224557 451.919067,383.374403" id="Fill-76" fill="#FEFEFE"></path>
                        <path d="M461.518596,406.186052 C458.308887,407.004272 456.368953,410.270099 457.187253,413.479497 C458.005552,416.692422 461.271695,418.628641 464.481404,417.813948 C467.691113,416.992201 469.631047,413.729901 468.812747,410.520503 C467.994448,407.307578 464.731832,405.371359 461.518596,406.186052" id="Fill-78" fill="#FEFEFE"></path>
                        <path d="M467.135754,428.063954 C463.855145,428.540249 461.586938,431.585008 462.063156,434.866151 C462.539373,438.143766 465.587165,440.415869 468.864246,439.936046 C472.144855,439.459751 474.413062,436.414992 473.936844,433.133849 C473.457099,429.856234 470.412835,427.584131 467.135754,428.063954" id="Fill-80" fill="#FEFEFE"></path>
                        <path d="M473.761761,452.004752 C470.452887,452.135308 467.874224,454.929913 468.004744,458.243215 C468.138792,461.552988 470.929111,464.132353 474.241512,463.99474 C477.550386,463.864184 480.12905,461.073106 479.995002,457.763333 C479.860954,454.450032 477.070635,451.874195 473.761761,452.004752" id="Fill-82" fill="#FEFEFE"></path>
                        <path d="M475.388087,477.012888 C472.082291,476.797733 469.224559,479.302 469.012875,482.610454 C468.797663,485.915381 471.306117,488.772361 474.611913,488.987516 C477.917709,489.199145 480.771913,486.694878 480.987125,483.389951 C481.202337,480.081497 478.693883,477.228043 475.388087,477.012888" id="Fill-84" fill="#FEFEFE"></path>
                        <g id="Group-88">
                            <mask id="mask-4" fill="white">
                                <use xlink:href="#path-3"></use>
                            </mask>
                            <g id="Clip-87"></g>
                            <path d="M5.68657145,1.01304645 C9.03634645,0.794971451 11.9320965,3.33679645 12.1465965,6.68657145 C12.3646715,10.0363465 9.82642145,12.9320965 6.47307145,13.1501715 C3.12329645,13.3682465 0.231121451,10.8264215 0.0130464509,7.47664645 C-0.205028549,4.12329645 2.33679645,1.23112145 5.68657145,1.01304645" id="Fill-86" fill="#FEFEFE" mask="url(#mask-4)"></path>
                        </g>
                        <path d="M5.98901679,24.0874895 C9.25501534,23.5266971 12.3552451,25.7204888 12.9125105,28.9864873 C13.4733029,32.2524859 11.2795112,35.3527156 8.01351265,35.913508 C4.7475141,36.4707734 1.64728438,34.2769818 1.08649197,31.0109832 C0.529226564,27.7449847 2.72301824,24.6447549 5.98901679,24.0874895" id="Fill-89" fill="#FEFEFE"></path>
                        <path d="M10.3759594,49.225333 C13.5640869,48.3294225 16.8756484,50.1847333 17.7749543,53.3768556 C18.6707334,56.5654506 16.812168,59.8774979 13.6240406,60.7734084 C10.4359131,61.6728462 7.12435158,59.8140081 6.22504572,56.6254131 C5.32926656,53.4332909 7.18783199,50.1212436 10.3759594,49.225333" id="Fill-91" fill="#FEFEFE"></path>
                        <path d="M14.7807567,71.4279769 C17.8598381,70.2007212 21.3480529,71.7030514 22.571926,74.7817705 C23.7993262,77.8604896 22.2968191,81.348294 19.2212647,82.5720231 C16.1421833,83.7992788 12.6539685,82.2969486 11.4265684,79.2182295 C10.2026952,76.1395104 11.7016753,72.6552326 14.7807567,71.4279769" id="Fill-93" fill="#FEFEFE"></path>
                        <path d="M24.2116971,93.689753 C27.1463296,92.1483529 30.7722937,93.2770669 32.310154,96.2117235 C33.8515414,99.1428529 32.7228367,102.768847 29.7917314,104.310247 C26.857099,105.851647 23.2311348,104.722933 21.6897473,101.788276 C20.1483599,98.8571471 21.2770647,95.2311532 24.2116971,93.689753" id="Fill-95" fill="#FEFEFE"></path>
                        <path d="M34.6699706,115.009116 C37.4250055,113.171769 41.1501231,113.91235 42.9915165,116.670134 C44.8293823,119.427918 44.0850643,123.151984 41.3300294,124.989332 C38.5714669,126.830205 34.8463493,126.086097 33.0084835,123.328313 C31.1706177,120.570529 31.9149357,116.846463 34.6699706,115.009116" id="Fill-97" fill="#FEFEFE"></path>
                        <path d="M46.1673457,135.383187 C48.7177452,133.266524 52.4992504,133.619301 54.6157645,136.166353 C56.7322786,138.713404 56.3830538,142.498704 53.8326543,144.615367 C51.2857823,146.73203 47.5007496,146.382781 45.3842355,143.83573 C43.2677214,141.28515 43.6169462,137.503379 46.1673457,135.383187" id="Fill-99" fill="#FEFEFE"></path>
                        <path d="M61.7054811,154.809803 C64.0194067,152.439092 67.8183364,152.389702 70.1886992,154.707496 C72.5625893,157.018234 72.6084445,160.817722 70.2945189,163.188433 C67.9805933,165.562672 64.1816636,165.608534 61.8113008,163.294268 C59.4374107,160.980002 59.3915555,157.184042 61.7054811,154.809803" id="Fill-101" fill="#FEFEFE"></path>
                        <path d="M79.2906028,172.28192 C81.3436883,169.681993 85.1147337,169.2375 87.7181309,171.290632 C90.3180003,173.343763 90.7624828,177.114892 88.7093972,179.71482 C86.6563117,182.318275 82.8852663,182.762767 80.2818691,180.709636 C77.6819997,178.656505 77.2375172,174.881847 79.2906028,172.28192" id="Fill-103" fill="#FEFEFE"></path>
                        <path d="M96.929081,186.796077 C98.6999341,183.991602 102.40391,183.159078 105.204821,184.929954 C108.005732,186.697303 108.841772,190.401327 107.070919,193.202275 C105.303594,196.003222 101.59609,196.842801 98.7951792,195.071925 C95.9942681,193.301049 95.1582279,189.597025 96.929081,186.796077" id="Fill-105" fill="#FEFEFE"></path>
                        <path d="M117.621313,201.341774 C119.088464,198.371683 122.685803,197.154721 125.655371,198.62213 C128.628467,200.089538 129.845214,203.687511 128.378064,206.657602 C126.910913,209.63122 123.313574,210.844654 120.344006,209.377246 C117.374437,207.909837 116.154163,204.315392 117.621313,201.341774" id="Fill-107" fill="#FEFEFE"></path>
                        <path d="M139.374427,212.918522 C140.524231,209.811663 143.973642,208.224731 147.080933,209.374375 C150.188224,210.520492 151.775377,213.97295 150.625573,217.079809 C149.479296,220.186668 146.026358,221.7736 142.919067,220.627482 C139.811776,219.474312 138.224623,216.025381 139.374427,212.918522" id="Fill-109" fill="#FEFEFE"></path>
                        <path d="M185.06394,228.135754 C185.540129,224.855145 188.58774,222.586938 191.864627,223.063156 C195.141515,223.539373 197.413114,226.587165 196.936925,229.864246 C196.457208,233.144855 193.413124,235.413062 190.13271,234.936844 C186.855822,234.457099 184.584223,231.412835 185.06394,228.135754" id="Fill-113" fill="#FEFEFE"></path>
                        <path d="M211.005,233.76019 C211.139084,230.452218 213.930163,227.874258 217.239938,228.004743 C220.553241,228.138754 223.129079,230.928312 222.994994,234.23981 C222.864438,237.547782 220.073359,240.125742 216.760056,239.995257 C213.450281,239.857719 210.870915,237.068161 211.005,233.76019" id="Fill-115" fill="#FEFEFE"></path>
                        <path d="M233.012872,234.389754 C232.797716,231.084712 235.305514,228.227631 238.610445,228.012468 C241.915377,227.800833 244.768834,230.308714 244.987517,233.61023 C245.199145,236.9188 242.694875,239.772353 239.386416,239.987516 C236.081485,240.199152 233.228027,237.694797 233.012872,234.389754" id="Fill-117" fill="#FEFEFE"></path>
                        <path d="M233.012872,214.389754 C232.797716,211.084712 235.305514,208.227631 238.610445,208.012468 C241.915377,207.800833 244.768834,210.308714 244.987517,213.61023 C245.199145,216.9188 242.694875,219.772353 239.386416,219.987516 C236.081485,220.199152 233.228027,217.694797 233.012872,214.389754" id="Fill-119" fill="#FEFEFE"></path>
                        <path d="M233.012872,193.389754 C232.797716,190.084712 235.305514,187.227631 238.610445,187.012468 C241.915377,186.800833 244.768834,189.308714 244.987517,192.61023 C245.199145,195.9188 242.694875,198.772353 239.386416,198.987516 C236.081485,199.199152 233.228027,196.694797 233.012872,193.389754" id="Fill-121" fill="#FEFEFE"></path>
                        <path d="M233.012872,129.10404 C232.797716,125.798997 235.305514,122.945444 238.610445,122.726754 C241.915377,122.515118 244.768834,125.023 244.987517,128.328043 C245.199145,131.633085 242.694875,134.486639 239.386416,134.701802 C236.081485,134.913437 233.228027,132.409083 233.012872,129.10404" id="Fill-127" fill="#FEFEFE"></path>
                        <path d="M233.012872,149.389754 C232.797716,146.084711 235.305514,143.231158 238.610445,143.012468 C241.915377,142.800832 244.768834,145.308714 244.987517,148.613757 C245.199145,151.9188 242.694875,154.772353 239.386416,154.987516 C236.081485,155.199152 233.228027,152.694797 233.012872,149.389754" id="Fill-127-Copy" fill="#FEFEFE"></path>
                        <path d="M233.012872,108.818326 C232.797716,105.513283 235.305514,102.659729 238.610445,102.441039 C241.915377,102.229404 244.768834,104.737286 244.987517,108.042328 C245.199145,111.347371 242.694875,114.200925 239.386416,114.416087 C236.081485,114.627723 233.228027,112.123368 233.012872,108.818326" id="Fill-129" fill="#FEFEFE"></path>
                        <path d="M233.012872,88.5326114 C232.797716,85.2275686 235.305514,82.3740152 238.610445,82.1553251 C241.915377,81.9436895 244.768834,84.4515714 244.987517,87.7566141 C245.199145,91.0616569 242.694875,93.9152103 239.386416,94.1303732 C236.081485,94.3420088 233.228027,91.8376541 233.012872,88.5326114" id="Fill-131" fill="#FEFEFE"></path>
                        <path d="M233.012872,68.2452299 C232.797716,64.9394338 235.305514,62.0817019 238.610445,61.870018 C241.915377,61.6548061 244.768834,64.1632597 244.987517,67.4690558 C245.199145,70.7748519 242.694875,73.6290558 239.386416,73.8442677 C236.081485,74.0594796 233.228027,71.551026 233.012872,68.2452299" id="Fill-133" fill="#FEFEFE"></path>
                        <path d="M233.012872,47.9595156 C232.797716,44.6537195 235.305514,41.7959876 238.610445,41.5843037 C241.915377,41.3690918 244.768834,43.8775454 244.987517,47.1833415 C245.199145,50.4891376 242.694875,53.3433415 239.386416,53.5585534 C236.081485,53.7737653 233.228027,51.2653117 233.012872,47.9595156" id="Fill-135" fill="#FEFEFE"></path>
                        <path d="M233.012872,27.6738013 C232.797716,24.3680052 235.305514,21.5102733 238.610445,21.2985895 C241.915377,21.0833775 244.768834,23.5918311 244.987517,26.8976272 C245.199145,30.2034233 242.694875,33.0576272 239.386416,33.2728391 C236.081485,33.488051 233.228027,30.9795974 233.012872,27.6738013" id="Fill-137" fill="#FEFEFE"></path>
                        <path d="M233.012872,7.38808705 C232.797716,4.08229096 235.305514,1.22808708 238.610445,1.01287517 C241.915377,0.797663253 244.768834,3.30611685 244.987517,6.61191295 C245.199145,9.91770904 242.694875,12.7719129 239.386416,12.9871248 C236.081485,13.2023367 233.228027,10.6938831 233.012872,7.38808705" id="Fill-139" fill="#FEFEFE"></path>
                        <path d="M258.086499,235.010983 C257.529187,231.744985 259.723161,228.644755 262.989432,228.08749 C266.252174,227.526697 269.352662,229.720489 269.913501,232.986487 C270.470813,236.252486 268.276839,239.352716 265.010568,239.913508 C261.747826,240.470773 258.647338,238.276982 258.086499,235.010983" id="Fill-141" fill="#FEFEFE"></path>
                        <path d="M283.225333,230.623253 C282.329422,227.435455 284.184733,224.124235 287.376856,223.225022 C290.565451,222.329336 293.877498,224.187709 294.773408,227.375507 C295.672846,230.563305 293.814008,233.878051 290.625413,234.773738 C287.436818,235.672951 284.121244,233.811051 283.225333,230.623253" id="Fill-143" fill="#FEFEFE"></path>
                        <path d="M329.689753,217.79026 C328.148353,214.855372 329.277067,211.23262 332.211724,209.687571 C335.142853,208.149577 338.772374,209.27838 340.310247,212.20974 C341.851647,215.144628 340.722933,218.770908 337.788276,220.312429 C334.857147,221.850423 331.231153,220.72162 329.689753,217.79026" id="Fill-147" fill="#FEFEFE"></path>
                        <path d="M352.009323,207.330029 C350.171598,204.574994 350.912332,200.846349 353.670684,199.008483 C356.425508,197.170618 360.150341,197.914936 361.991594,200.669971 C363.829319,203.428533 363.085058,207.150123 360.330233,208.991517 C357.571882,210.829382 353.847049,210.085064 352.009323,207.330029" id="Fill-149" fill="#FEFEFE"></path>
                        <path d="M372.383222,193.832654 C370.266506,191.282255 370.619292,187.50075 373.166407,185.384236 C375.713522,183.267721 379.498916,183.616946 381.615632,186.167346 C383.732348,188.717745 383.38309,192.49925 380.832447,194.615764 C378.281804,196.732279 374.499938,196.383054 372.383222,193.832654" id="Fill-151" fill="#FEFEFE"></path>
                        <path d="M391.810393,180.293974 C389.439516,177.983406 389.390123,174.184197 391.70455,171.810133 C394.018977,169.439596 397.818731,169.39021 400.189607,171.704305 C402.560484,174.018401 402.609877,177.817609 400.29545,180.191674 C397.981023,182.56221 394.181269,182.608069 391.810393,180.293974" id="Fill-153" fill="#FEFEFE"></path>
                        <path d="M411.28192,163.709397 C408.681993,161.656312 408.2375,157.885266 410.290632,155.281869 C412.343763,152.682 416.114892,152.237517 418.71482,154.290603 C421.318275,156.343688 421.762767,160.114734 419.709636,162.718131 C417.656505,165.318 413.881847,165.762483 411.28192,163.709397" id="Fill-155" fill="#FEFEFE"></path>
                        <path d="M425.795179,145.070124 C422.994268,143.302926 422.158228,139.595689 423.929081,136.794979 C425.696406,133.994268 429.40391,133.158288 432.204821,134.929014 C435.005732,136.69974 435.841772,140.40345 434.070919,143.20416 C432.300066,146.008398 428.59609,146.84085 425.795179,145.070124" id="Fill-157" fill="#FEFEFE"></path>
                        <path d="M440.341948,125.378687 C437.371702,123.911536 436.154677,120.31067 437.622162,117.344629 C439.089647,114.371533 442.687807,113.154786 445.658052,114.621936 C448.628298,116.089087 449.845323,119.686426 448.377838,122.655994 C446.910353,125.625563 443.312193,126.845837 440.341948,125.378687" id="Fill-159" fill="#FEFEFE"></path>
                        <path d="M451.919067,104.62747 C448.811776,103.477788 447.224623,100.025215 448.374427,96.9182513 C449.520704,93.8148147 452.970115,92.2243034 456.080933,93.3739856 C459.188224,94.5236678 460.775377,97.9727144 459.625573,101.079678 C458.475769,104.186641 455.026358,105.773626 451.919067,104.62747" id="Fill-161" fill="#FEFEFE"></path>
                        <path d="M461.518596,82.8127473 C458.308887,81.9979751 456.368953,78.7318319 457.187253,75.5185959 C458.005552,72.3088872 461.271695,70.3689533 464.481404,71.1872527 C467.691113,72.0055521 469.631047,75.2716953 468.812747,78.4814041 C467.994448,81.6911128 464.731832,83.6310467 461.518596,82.8127473" id="Fill-163" fill="#FEFEFE"></path>
                        <path d="M467.135754,60.9368441 C463.855145,60.4606266 461.586938,57.412835 462.063156,54.1357535 C462.539373,50.8551445 465.587165,48.5869385 468.864246,49.0631559 C472.144855,49.5429009 474.413062,52.587165 473.936844,55.8642465 C473.457099,59.1448555 470.412835,61.4130615 467.135754,60.9368441" id="Fill-165" fill="#FEFEFE"></path>
                        <path d="M473.761761,35.9950018 C470.452887,35.8609565 467.874224,33.0706967 468.004744,29.7583656 C468.138792,26.449562 470.929111,23.8709528 474.241512,24.0049982 C477.550386,24.1390435 480.12905,26.9293033 479.995002,30.2416344 C479.860954,33.550438 477.070635,36.1290472 473.761761,35.9950018" id="Fill-167" fill="#FEFEFE"></path>
                        <path d="M475.388087,12.9871286 C472.082291,13.2022773 469.224559,10.694561 469.012875,7.3897365 C468.797663,4.08491204 471.306117,1.23154707 474.611913,1.01287138 C477.917709,0.797722724 480.771913,3.30543904 480.987125,6.6102635 C481.202337,9.91861498 478.693883,12.77198 475.388087,12.9871286" id="Fill-169" fill="#FEFEFE"></path>
                    </g>
                    <g id="LOGO" transform="translate(159.000000, 164.000000)">
                        <g id="Group-21">
                            <g id="Group-19">
                                <path d="M81,162 C125.735065,162 162,125.735065 162,81 C162,36.2649353 125.735065,0 81,0 C36.2649353,0 0,36.2649353 0,81 C0,125.735065 36.2649353,162 81,162 Z" id="Oval-3-Copy" stroke-opacity="0.595023777" stroke="#FFFFFF" stroke-width="2" stroke-dasharray="2,4"></path>
                                <circle id="Oval-3" fill-opacity="0.597995924" fill="#FFFFFF" cx="81" cy="81" r="74"></circle>
                                <g id="Group-58" transform="translate(14.000000, 14.000000)">
                                    <circle id="Oval-3-Copy-2" fill="#0098E1" cx="67" cy="67" r="67"></circle>
                                    <g id="易观方舟logo-1-copy-2" transform="translate(25.000000, 32.000000)" fill="#FFFFFF" fill-rule="nonzero">
                                        <g id="Group">
                                            <g transform="translate(27.434746, 0.000000)" id="Shape">
                                                <path d="M44.9625012,26.0630091 C46.1310181,26.0630091 47.0455097,25.1485176 47.0455097,23.9800006 L47.0455097,15.8003818 C47.0455097,14.6318648 46.1310181,13.7173732 44.9625012,13.7173732 C43.7939842,13.7173732 42.8794926,14.6318648 42.8794926,15.8003818 L42.8794926,24.0308057 C42.8794926,25.1485176 43.7939842,26.0630091 44.9625012,26.0630091 Z"></path>
                                                <path d="M34.2934331,26.0630091 C35.4619501,26.0630091 36.3764416,25.1485176 36.3764416,23.9800006 L36.3764416,7.92559342 C36.3764416,6.75707644 35.4619501,5.8425849 34.2934331,5.8425849 C33.1249161,5.8425849 32.2104246,6.75707644 32.2104246,7.92559342 L32.2104246,23.9800006 C32.2104246,25.1485176 33.1249161,26.0630091 34.2934331,26.0630091 Z"></path>
                                                <path d="M23.624365,26.0630091 C24.792882,26.0630091 25.7073735,25.1485176 25.7073735,23.9800006 L25.7073735,2.28622887 C25.7073735,1.11771189 24.792882,0.203220344 23.624365,0.203220344 C22.455848,0.203220344 21.5413565,1.11771189 21.5413565,2.28622887 L21.5413565,24.0308057 C21.5413565,25.1485176 22.5066531,26.0630091 23.624365,26.0630091 Z"></path>
                                                <path d="M12.9552969,26.0630091 C14.1238139,26.0630091 15.0383055,25.1485176 15.0383055,23.9800006 L15.0383055,15.8003818 C15.0383055,14.6318648 14.1238139,13.7173732 12.9552969,13.7173732 C11.78678,13.7173732 10.8722884,14.6318648 10.8722884,15.8003818 L10.8722884,24.0308057 C10.8722884,25.1485176 11.837585,26.0630091 12.9552969,26.0630091 Z"></path>
                                                <path d="M2.28622887,26.0630091 C3.45474585,26.0630091 4.3692374,25.1485176 4.3692374,23.9800006 L4.3692374,10.4658477 C4.3692374,9.29733075 3.45474585,8.3828392 2.28622887,8.3828392 C1.11771189,8.3828392 0.203220344,9.29733075 0.203220344,10.4658477 L0.203220344,23.9800006 C0.203220344,25.1485176 1.16851698,26.0630091 2.28622887,26.0630091 Z"></path>
                                            </g>
                                            <g transform="translate(0.000000, 1.016102)" id="Shape">
                                                <path d="M1.32093224,20.1696192 C0.101610172,16.9180937 -0.304830516,13.3109325 0.304830516,9.65296635 C0.914491549,5.99500015 2.48944922,2.79427973 4.67406792,0.152415258 C5.94419507,3.40394077 6.35063576,6.96029679 5.74097472,10.6690681 C5.13131369,14.3270343 3.55635602,17.5277547 1.32093224,20.1696192 Z"></path>
                                                <path d="M1.37173732,20.1696192 C2.79427973,17.0197038 5.02970352,14.174619 8.0272036,11.9900003 C11.0247037,9.85618669 14.4286444,8.68766971 17.8325852,8.3828392 C16.4608479,11.5835596 14.2254241,14.4286444 11.1771189,16.5624581 C8.17961885,18.6962717 4.77567809,19.9155937 1.37173732,20.1696192 Z"></path>
                                            </g>
                                            <path d="M44.5052554,42.9811028 L47.2995351,41.5585604 L44.5560605,40.1868231 C45.0641113,39.3739417 45.9277978,38.8150857 46.9947046,38.8150857 C48.5696623,38.8150857 49.8397894,40.0852129 49.8397894,41.6601706 C49.8397894,43.2351282 48.5696623,44.5052554 46.9947046,44.5052554 C45.9277978,44.5052554 45.0133062,43.8447893 44.5052554,42.9811028 Z" id="Shape"></path>
                                            <path d="M76.5124596,28.1460177 L84.5904683,28.1460177 C84.5904683,51.5163573 65.6401712,70.4666544 42.2698316,70.4666544 C40.8980943,70.4666544 39.577162,70.4158493 38.2562298,70.263434 C59.7467812,68.2312306 76.5124596,50.1446199 76.5124596,28.1460177 Z" id="Shape" opacity="0.32"></path>
                                            <path d="M68.485256,28.1460177 L76.5632647,28.1460177 C76.5632647,50.1446199 59.7467812,68.2312306 38.3070349,70.263434 C36.9352976,70.1110187 35.6143653,69.9586035 34.2934331,69.7045781 C53.751781,65.9450017 68.485256,48.7728826 68.485256,28.1460177 Z" id="Shape" opacity="0.56"></path>
                                            <path d="M60.4072473,28.1460177 L68.485256,28.1460177 C68.485256,48.7728826 53.751781,65.9450017 34.242628,69.7045781 C32.8708907,69.4505526 31.5499584,69.094917 30.2290262,68.7392814 C47.6551707,63.5063576 60.4072473,47.2995351 60.4072473,28.1460177 Z" id="Shape" opacity="0.8"></path>
                                            <path d="M33.2265263,28.1460177 L18.7470768,28.1460177 C11.3803393,28.1460177 4.87728826,24.3864413 1.06690681,18.6454666 C0.406440688,21.6937717 0,24.8944922 0,28.1460177 C0,39.0691112 4.11521197,49.026908 10.9230935,56.4952557 L2.33703396,67.3675441 C7.21432222,69.3489425 12.5488563,70.4158493 18.1374157,70.4158493 C22.3542379,70.4158493 26.4186447,69.8061882 30.2290262,68.6376713 C47.7059758,63.4555525 60.4580524,47.24873 60.4580524,28.0952126 L33.2265263,28.0952126 L33.2265263,28.1460177 Z M45.470552,46.7406792 C42.5746621,46.7406792 40.2376282,44.4036452 40.2376282,41.5077553 C40.2376282,38.6118654 42.5746621,36.2748314 45.470552,36.2748314 C48.3664419,36.2748314 50.7034759,38.6118654 50.7034759,41.5077553 C50.7034759,44.4036452 48.3664419,46.7406792 45.470552,46.7406792 Z" id="Shape"></path>
                                        </g>
                                    </g>
                                </g>
                            </g>
                        </g>
                    </g>
                </g>
            </g>
        </g>
    </g>
</svg>