<?xml version="1.0" encoding="UTF-8"?>
<svg width="28px" height="32px" viewBox="0 0 28 32" version="1.1" xmlns="http://www.w3.org/2000/svg" xmlns:xlink="http://www.w3.org/1999/xlink">
    <!-- Generator: Sketch 50.2 (55047) - http://www.bohemiancoding.com/sketch -->
    <title>服务器 copy</title>
    <desc>Created with Sketch.</desc>
    <defs></defs>
    <g id="Page-2" stroke="none" stroke-width="1" fill="none" fill-rule="evenodd">
        <g id="首页" transform="translate(-546.000000, -1928.000000)" fill="#6AA0F2" fill-rule="nonzero">
            <g id="Group-10" transform="translate(546.000000, 1928.000000)">
                <g id="服务器-copy">
                    <path d="M26,23 L2,23 C0.896875,23 0,23.896875 0,25 L0,30 C0,31.103125 0.896875,32 2,32 L26,32 C27.103125,32 28,31.103125 28,30 L28,25 C28,23.896875 27.103125,23 26,23 Z M26,30 L2,30 L2,25 L26,25 L26,30 Z M26,0 L2,0 C0.896875,0 0,0.896875 0,2 L0,7 C0,8.103125 0.896875,9 2,9 L26,9 C27.103125,9 28,8.103125 28,7 L28,2 C28,0.896875 27.103125,0 26,0 Z M26,7 L2,7 L2,2 L26,2 L26,7 Z M26,11.5 L2,11.5 C0.896875,11.5 0,12.396875 0,13.5 L0,18.5 C0,19.603125 0.896875,20.5 2,20.5 L26,20.5 C27.103125,20.5 28,19.603125 28,18.5 L28,13.5 C28,12.396875 27.103125,11.5 26,11.5 Z M26,18.5 L2,18.5 L2,13.5 L26,13.5 L26,18.5 Z" id="Shape"></path>
                    <path d="M21,5 C21,5.55228475 21.4477153,6 22,6 C22.5522847,6 23,5.55228475 23,5 C23,4.44771525 22.5522847,4 22,4 C21.4477153,4 21,4.44771525 21,5 Z" id="Shape"></path>
                    <path d="M21,16 C21,16.5522847 21.4477153,17 22,17 C22.5522847,17 23,16.5522847 23,16 C23,15.4477153 22.5522847,15 22,15 C21.4477153,15 21,15.4477153 21,16 Z" id="Shape"></path>
                    <path d="M21,27 C21,27.5522847 21.4477153,28 22,28 C22.5522847,28 23,27.5522847 23,27 C23,26.4477153 22.5522847,26 22,26 C21.4477153,26 21,26.4477153 21,27 Z" id="Shape"></path>
                    <path d="M17,5 C17,5.55228475 17.4477153,6 18,6 C18.5522847,6 19,5.55228475 19,5 C19,4.44771525 18.5522847,4 18,4 C17.4477153,4 17,4.44771525 17,5 Z" id="Shape"></path>
                    <path d="M17,16 C17,16.5522847 17.4477153,17 18,17 C18.5522847,17 19,16.5522847 19,16 C19,15.4477153 18.5522847,15 18,15 C17.4477153,15 17,15.4477153 17,16 Z" id="Shape"></path>
                    <path d="M17,27 C17,27.5522847 17.4477153,28 18,28 C18.5522847,28 19,27.5522847 19,27 C19,26.4477153 18.5522847,26 18,26 C17.4477153,26 17,26.4477153 17,27 Z" id="Shape"></path>
                </g>
            </g>
        </g>
    </g>
</svg>